AGaramondPro-Regular.ufo
<glyph name="percent" format="1">
  <advance width="844"/>
  <unicode hex="0025"/>
  <outline>
    <contour>
      <point x="799" y="180" type="curve" smooth="yes" name="hr01"/>
      <point x="799" y="260"/>
      <point x="754" y="374"/>
      <point x="646" y="374" type="curve" smooth="yes"/>
      <point x="538" y="374"/>
      <point x="493" y="260"/>
      <point x="493" y="180" type="curve" smooth="yes"/>
      <point x="493" y="101"/>
      <point x="538" y="-14"/>
      <point x="646" y="-14" type="curve" smooth="yes"/>
      <point x="754" y="-14"/>
      <point x="799" y="101"/>
    </contour>
    <contour>
      <point x="727" y="180" type="curve" smooth="yes"/>
      <point x="727" y="128"/>
      <point x="719" y="14"/>
      <point x="647" y="14" type="curve" smooth="yes"/>
      <point x="576" y="14"/>
      <point x="565" y="126"/>
      <point x="565" y="180" type="curve" smooth="yes"/>
      <point x="565" y="234"/>
      <point x="576" y="346"/>
      <point x="647" y="346" type="curve" smooth="yes"/>
      <point x="719" y="346"/>
      <point x="727" y="232"/>
    </contour>
    <contour>
      <point x="351" y="446" type="curve" smooth="yes"/>
      <point x="351" y="526"/>
      <point x="306" y="640"/>
      <point x="198" y="640" type="curve" smooth="yes"/>
      <point x="90" y="640"/>
      <point x="45" y="526"/>
      <point x="45" y="446" type="curve" smooth="yes"/>
      <point x="45" y="367"/>
      <point x="90" y="252"/>
      <point x="198" y="252" type="curve" smooth="yes"/>
      <point x="306" y="252"/>
      <point x="351" y="367"/>
    </contour>
    <contour>
      <point x="279" y="446" type="curve" smooth="yes"/>
      <point x="279" y="394"/>
      <point x="271" y="280"/>
      <point x="199" y="280" type="curve" smooth="yes"/>
      <point x="128" y="280"/>
      <point x="117" y="392"/>
      <point x="117" y="446" type="curve" smooth="yes"/>
      <point x="117" y="500"/>
      <point x="128" y="612"/>
      <point x="199" y="612" type="curve" smooth="yes"/>
      <point x="271" y="612"/>
      <point x="279" y="498"/>
    </contour>
    <contour>
      <point x="636" y="635" type="line" name="hr02"/>
      <point x="627" y="647"/>
      <point x="613" y="653"/>
      <point x="603" y="652" type="curve"/>
      <point x="199" y="-18" type="line"/>
      <point x="199" y="-31"/>
      <point x="213" y="-40"/>
      <point x="229" y="-40" type="curve"/>
    </contour>
  </outline>
</glyph>
<glyph name="two" format="1">
  <advance width="500"/>
  <unicode hex="0032"/>
  <outline>
    <contour>
      <point x="192" y="62" type="line" smooth="yes" name="hr01"/>
      <point x="166" y="62"/>
      <point x="161" y="64"/>
      <point x="161" y="71" type="curve" smooth="yes"/>
      <point x="161" y="77"/>
      <point x="170" y="93"/>
      <point x="252" y="187" type="curve" smooth="yes"/>
      <point x="313" y="257" type="line" smooth="yes"/>
      <point x="391" y="347"/>
      <point x="420" y="415"/>
      <point x="420" y="477" type="curve" smooth="yes"/>
      <point x="420" y="573"/>
      <point x="355" y="640"/>
      <point x="255" y="640" type="curve" smooth="yes"/>
      <point x="165" y="640"/>
      <point x="86" y="587"/>
      <point x="54" y="499" type="curve"/>
      <point x="54" y="486"/>
      <point x="69" y="481"/>
      <point x="78" y="486" type="curve"/>
      <point x="105" y="545"/>
      <point x="148" y="586"/>
      <point x="208" y="586" type="curve" smooth="yes"/>
      <point x="289" y="586"/>
      <point x="333" y="531"/>
      <point x="333" y="440" type="curve" smooth="yes"/>
      <point x="333" y="333"/>
      <point x="256" y="236"/>
      <point x="190" y="165" type="curve" smooth="yes"/>
      <point x="116" y="85"/>
      <point x="83" y="51"/>
      <point x="37" y="21" type="curve" smooth="yes" name="hr02"/>
      <point x="31" y="17"/>
      <point x="26" y="13"/>
      <point x="26" y="10" type="curve" smooth="yes"/>
      <point x="26" y="2"/>
      <point x="31" y="-2"/>
      <point x="33" y="-3" type="curve"/>
      <point x="55" y="-1"/>
      <point x="88" y="0"/>
      <point x="144" y="0" type="curve" smooth="yes" name="hr03"/>
      <point x="289" y="0" type="line" smooth="yes"/>
      <point x="335" y="0"/>
      <point x="377" y="-1"/>
      <point x="418" y="-3" type="curve"/>
      <point x="433" y="17"/>
      <point x="451" y="69"/>
      <point x="464" y="119" type="curve"/>
      <point x="460" y="125"/>
      <point x="449" y="128"/>
      <point x="442" y="125" type="curve"/>
      <point x="436" y="114"/>
      <point x="429" y="101"/>
      <point x="410" y="84" type="curve" smooth="yes"/>
      <point x="392" y="68"/>
      <point x="362" y="62"/>
      <point x="316" y="62" type="curve" smooth="yes"/>
    </contour>
  </outline>
</glyph>
<glyph name="greater" format="1">
  <advance width="500"/>
  <unicode hex="003E"/>
  <outline>
    <contour>
      <point x="55" y="413" type="line" name="hr01"/>
      <point x="55" y="355" type="line"/>
      <point x="372" y="207" type="line" name="hr02"/>
      <point x="372" y="205" type="line"/>
      <point x="55" y="56" type="line"/>
      <point x="55" y="-1" type="line"/>
      <point x="444" y="183" type="line"/>
      <point x="444" y="228" type="line"/>
    </contour>
  </outline>
</glyph>
<glyph name="at" format="1">
  <advance width="765"/>
  <unicode hex="0040"/>
  <outline>
    <contour>
      <point x="452" y="325" type="curve" smooth="yes" name="hr01"/>
      <point x="474" y="325"/>
      <point x="490" y="311"/>
      <point x="495" y="296" type="curve"/>
      <point x="483" y="265"/>
      <point x="425" y="176"/>
      <point x="376" y="133" type="curve" smooth="yes" name="hr02"/>
      <point x="328" y="90"/>
      <point x="302" y="81"/>
      <point x="296" y="81" type="curve" smooth="yes"/>
      <point x="289" y="81"/>
      <point x="284" y="85"/>
      <point x="284" y="94" type="curve" smooth="yes"/>
      <point x="284" y="148"/>
      <point x="333" y="250"/>
      <point x="389" y="295" type="curve" smooth="yes"/>
      <point x="415" y="316"/>
      <point x="431" y="325"/>
    </contour>
    <contour>
      <point x="518" y="338" type="line"/>
      <point x="513" y="352"/>
      <point x="494" y="360"/>
      <point x="481" y="360" type="curve" smooth="yes"/>
      <point x="401" y="360"/>
      <point x="329" y="293"/>
      <point x="281" y="234" type="curve" smooth="yes" name="hr04"/>
      <point x="222" y="162"/>
      <point x="205" y="98"/>
      <point x="205" y="80" type="curve" smooth="yes"/>
      <point x="205" y="57"/>
      <point x="218" y="35"/>
      <point x="246" y="35" type="curve" smooth="yes"/>
      <point x="287" y="35"/>
      <point x="375" y="90"/>
      <point x="435" y="152" type="curve"/>
      <point x="437" y="151" type="line"/>
      <point x="412" y="88" type="line" smooth="yes" name="hr05"/>
      <point x="405" y="70"/>
      <point x="404" y="62"/>
      <point x="404" y="57" type="curve" smooth="yes"/>
      <point x="404" y="50"/>
      <point x="410" y="35"/>
      <point x="476" y="35" type="curve" smooth="yes"/>
      <point x="638" y="35"/>
      <point x="735" y="148"/>
      <point x="735" y="276" type="curve" smooth="yes"/>
      <point x="735" y="410"/>
      <point x="631" y="536"/>
      <point x="440" y="536" type="curve" smooth="yes"/>
      <point x="234" y="536"/>
      <point x="45" y="388"/>
      <point x="45" y="153" type="curve" smooth="yes"/>
      <point x="45" y="-58"/>
      <point x="217" y="-156"/>
      <point x="382" y="-156" type="curve" smooth="yes"/>
      <point x="438" y="-156"/>
      <point x="515" y="-143"/>
      <point x="575" y="-105" type="curve"/>
      <point x="578" y="-97"/>
      <point x="574" y="-89"/>
      <point x="567" y="-86" type="curve"/>
      <point x="534" y="-100"/>
      <point x="484" y="-121"/>
      <point x="412" y="-121" type="curve" smooth="yes"/>
      <point x="183" y="-121"/>
      <point x="114" y="36"/>
      <point x="114" y="154" type="curve" smooth="yes"/>
      <point x="114" y="338"/>
      <point x="233" y="502"/>
      <point x="431" y="502" type="curve" smooth="yes"/>
      <point x="578" y="502"/>
      <point x="692" y="413"/>
      <point x="692" y="272" type="curve" smooth="yes"/>
      <point x="692" y="146"/>
      <point x="603" y="72"/>
      <point x="497" y="68" type="curve" smooth="yes"/>
      <point x="471" y="67"/>
      <point x="465" y="77"/>
      <point x="474" y="100" type="curve" smooth="yes"/>
      <point x="490" y="143"/>
      <point x="578" y="347"/>
      <point x="591" y="377" type="curve"/>
      <point x="582" y="387"/>
      <point x="559" y="395"/>
      <point x="543" y="389" type="curve"/>
    </contour>
  </outline>
</glyph>
<glyph name="B" format="1">
  <advance width="605"/>
  <unicode hex="0042"/>
  <outline>
    <contour>
      <point x="128" y="150" type="line" smooth="yes" name="hr01"/>
      <point x="128" y="45"/>
      <point x="126" y="34"/>
      <point x="73" y="25" type="curve" smooth="yes" name="hr02"/>
      <point x="55" y="22" type="line"/>
      <point x="49" y="16"/>
      <point x="51" y="0"/>
      <point x="57" y="-3" type="curve" name="hr03"/>
      <point x="94" y="-2"/>
      <point x="128" y="0"/>
      <point x="172" y="0" type="curve" smooth="yes"/>
      <point x="214" y="0"/>
      <point x="263" y="-3"/>
      <point x="292" y="-3" type="curve" smooth="yes"/>
      <point x="472" y="-3"/>
      <point x="558" y="75"/>
      <point x="558" y="191" type="curve" smooth="yes"/>
      <point x="558" y="298"/>
      <point x="478" y="348"/>
      <point x="424" y="358" type="curve" smooth="yes"/>
      <point x="413" y="360"/>
      <point x="405" y="363"/>
      <point x="405" y="373" type="curve"/>
      <point x="465" y="401"/>
      <point x="507" y="438"/>
      <point x="507" y="510" type="curve" smooth="yes" name="hr04"/>
      <point x="507" y="574"/>
      <point x="474" y="614"/>
      <point x="431" y="635" type="curve" smooth="yes"/>
      <point x="386" y="658"/>
      <point x="326" y="663"/>
      <point x="263" y="663" type="curve" smooth="yes"/>
      <point x="170" y="663"/>
      <point x="102" y="660"/>
      <point x="48" y="655" type="curve"/>
      <point x="40" y="651"/>
      <point x="39" y="636"/>
      <point x="47" y="630" type="curve"/>
      <point x="79" y="627" type="line" smooth="yes"/>
      <point x="124" y="623"/>
      <point x="128" y="604"/>
      <point x="128" y="530" type="curve" smooth="yes"/>
    </contour>
    <contour>
      <point x="210" y="313" type="line" smooth="yes"/>
      <point x="210" y="333"/>
      <point x="214" y="339"/>
      <point x="268" y="339" type="curve" smooth="yes"/>
      <point x="427" y="339"/>
      <point x="467" y="247"/>
      <point x="467" y="168" type="curve" smooth="yes" name="hr05"/>
      <point x="467" y="68"/>
      <point x="399" y="28"/>
      <point x="310" y="28" type="curve" smooth="yes"/>
      <point x="280" y="28"/>
      <point x="250" y="33"/>
      <point x="231" y="56" type="curve" smooth="yes"/>
      <point x="212" y="78"/>
      <point x="210" y="129"/>
      <point x="210" y="165" type="curve" smooth="yes"/>
    </contour>
    <contour>
      <point x="210" y="600" type="line" smooth="yes"/>
      <point x="210" y="618"/>
      <point x="214" y="623"/>
      <point x="224" y="626" type="curve"/>
      <point x="233" y="630"/>
      <point x="248" y="632"/>
      <point x="270" y="632" type="curve" smooth="yes"/>
      <point x="346" y="632"/>
      <point x="419" y="595"/>
      <point x="419" y="497" type="curve" smooth="yes" name="hr06"/>
      <point x="419" y="403"/>
      <point x="364" y="373"/>
      <point x="262" y="369" type="curve" smooth="yes"/>
      <point x="211" y="367"/>
      <point x="210" y="369"/>
      <point x="210" y="397" type="curve" smooth="yes"/>
    </contour>
  </outline>
</glyph>
<glyph name="F" format="1">
  <advance width="538"/>
  <unicode hex="0046"/>
  <outline>
    <contour>
      <point x="210" y="589" type="line" smooth="yes" name="hr01"/>
      <point x="210" y="627"/>
      <point x="210" y="629"/>
      <point x="240" y="629" type="curve" smooth="yes"/>
      <point x="301" y="629" type="line" smooth="yes"/>
      <point x="343" y="629"/>
      <point x="376" y="629"/>
      <point x="398" y="623" type="curve" smooth="yes"/>
      <point x="448" y="610"/>
      <point x="460" y="573"/>
      <point x="468" y="528" type="curve"/>
      <point x="475" y="522"/>
      <point x="489" y="525"/>
      <point x="492" y="531" type="curve"/>
      <point x="490" y="569"/>
      <point x="489" y="617"/>
      <point x="489" y="663" type="curve" name="hr02"/>
      <point x="476" y="660"/>
      <point x="418" y="660"/>
      <point x="354" y="660" type="curve" smooth="yes" name="hr03"/>
      <point x="170" y="660" type="line" smooth="yes"/>
      <point x="130" y="660"/>
      <point x="96" y="661"/>
      <point x="54" y="663" type="curve" name="hr04"/>
      <point x="48" y="660"/>
      <point x="46" y="642"/>
      <point x="52" y="638" type="curve"/>
      <point x="68" y="636" type="line" smooth="yes"/>
      <point x="126" y="629"/>
      <point x="128" y="615"/>
      <point x="128" y="510" type="curve" smooth="yes"/>
      <point x="128" y="150" type="line" smooth="yes"/>
      <point x="128" y="45"/>
      <point x="126" y="32"/>
      <point x="68" y="25" type="curve" smooth="yes"/>
      <point x="43" y="22" type="line"/>
      <point x="37" y="16"/>
      <point x="39" y="0"/>
      <point x="45" y="-3" type="curve"/>
      <point x="92" y="-1"/>
      <point x="126" y="0"/>
      <point x="170" y="0" type="curve" smooth="yes"/>
      <point x="210" y="0"/>
      <point x="244" y="-1"/>
      <point x="303" y="-3" type="curve"/>
      <point x="309" y="0"/>
      <point x="311" y="18"/>
      <point x="305" y="22" type="curve"/>
      <point x="271" y="25" type="line" smooth="yes"/>
      <point x="212" y="30"/>
      <point x="210" y="45"/>
      <point x="210" y="150" type="curve" smooth="yes"/>
      <point x="210" y="289" type="line" smooth="yes"/>
      <point x="210" y="315"/>
      <point x="213" y="316"/>
      <point x="243" y="316" type="curve" smooth="yes"/>
      <point x="311" y="316" type="line" smooth="yes"/>
      <point x="349" y="316"/>
      <point x="374" y="315"/>
      <point x="388" y="311" type="curve" smooth="yes"/>
      <point x="407" y="305"/>
      <point x="415" y="291"/>
      <point x="420" y="273" type="curve" smooth="yes"/>
      <point x="430" y="234" type="line"/>
      <point x="437" y="228"/>
      <point x="452" y="228"/>
      <point x="456" y="234" type="curve"/>
      <point x="456" y="257"/>
      <point x="452" y="295"/>
      <point x="452" y="331" type="curve" smooth="yes"/>
      <point x="452" y="368"/>
      <point x="456" y="408"/>
      <point x="456" y="432" type="curve"/>
      <point x="452" y="438"/>
      <point x="435" y="438"/>
      <point x="430" y="432" type="curve"/>
      <point x="421" y="392" type="line" smooth="yes"/>
      <point x="415" y="366"/>
      <point x="407" y="361"/>
      <point x="396" y="357" type="curve" smooth="yes"/>
      <point x="384" y="353"/>
      <point x="352" y="351"/>
      <point x="311" y="351" type="curve" smooth="yes"/>
      <point x="243" y="351" type="line" smooth="yes"/>
      <point x="213" y="351"/>
      <point x="210" y="351"/>
      <point x="210" y="378" type="curve" smooth="yes"/>
    </contour>
  </outline>
</glyph>
<glyph name="O" format="1">
  <advance width="795"/>
  <unicode hex="004F"/>
  <outline>
    <contour>
      <point x="402" y="-16" type="curve" smooth="yes" name="hr00"/>
      <point x="595" y="-16"/>
      <point x="749" y="131"/>
      <point x="749" y="333" type="curve" smooth="yes"/>
      <point x="749" y="509"/>
      <point x="633" y="676"/>
      <point x="402" y="676" type="curve" smooth="yes"/>
      <point x="196" y="676"/>
      <point x="46" y="523"/>
      <point x="46" y="323" type="curve" smooth="yes"/>
      <point x="46" y="143"/>
      <point x="180" y="-16"/>
    </contour>
    <contour>
      <point x="415" y="15" type="curve" smooth="yes"/>
      <point x="218" y="15"/>
      <point x="146" y="207"/>
      <point x="146" y="355" type="curve" smooth="yes"/>
      <point x="146" y="574"/>
      <point x="281" y="645"/>
      <point x="385" y="645" type="curve" smooth="yes"/>
      <point x="576" y="645"/>
      <point x="649" y="467"/>
      <point x="649" y="302" type="curve" smooth="yes"/>
      <point x="649" y="105"/>
      <point x="535" y="15"/>
    </contour>
  </outline>
</glyph>
<glyph name="R" format="1">
  <advance width="645"/>
  <unicode hex="0052"/>
  <outline>
    <contour>
      <point x="128" y="150" type="line" smooth="yes" name="hr01"/>
      <point x="128" y="45"/>
      <point x="126" y="32"/>
      <point x="68" y="25" type="curve" smooth="yes"/>
      <point x="43" y="22" type="line"/>
      <point x="37" y="15"/>
      <point x="39" y="0"/>
      <point x="45" y="-3" type="curve"/>
      <point x="92" y="-1"/>
      <point x="128" y="0"/>
      <point x="170" y="0" type="curve" smooth="yes"/>
      <point x="210" y="0"/>
      <point x="244" y="-1"/>
      <point x="289" y="-3" type="curve"/>
      <point x="295" y="0"/>
      <point x="297" y="17"/>
      <point x="291" y="22" type="curve"/>
      <point x="270" y="25" type="line" smooth="yes"/>
      <point x="212" y="33"/>
      <point x="210" y="45"/>
      <point x="210" y="150" type="curve" smooth="yes"/>
      <point x="210" y="276" type="line" smooth="yes"/>
      <point x="210" y="297"/>
      <point x="212" y="298"/>
      <point x="257" y="298" type="curve" smooth="yes"/>
      <point x="297" y="298"/>
      <point x="313" y="288"/>
      <point x="328" y="266" type="curve" smooth="yes"/>
      <point x="359" y="221"/>
      <point x="400" y="152"/>
      <point x="426" y="115" type="curve" smooth="yes"/>
      <point x="497" y="14"/>
      <point x="548" y="-11"/>
      <point x="633" y="-11" type="curve" smooth="yes" name="hr02"/>
      <point x="652" y="-11"/>
      <point x="668" y="-9"/>
      <point x="677" y="-6" type="curve"/>
      <point x="682" y="-2"/>
      <point x="681" y="6"/>
      <point x="676" y="8" type="curve"/>
      <point x="649" y="10"/>
      <point x="624" y="21"/>
      <point x="607" y="36" type="curve" smooth="yes"/>
      <point x="539" y="93"/>
      <point x="486" y="173"/>
      <point x="406" y="302" type="curve" smooth="yes"/>
      <point x="401" y="310"/>
      <point x="396" y="320"/>
      <point x="401" y="326" type="curve"/>
      <point x="451" y="346"/>
      <point x="526" y="398"/>
      <point x="526" y="493" type="curve" smooth="yes"/>
      <point x="526" y="563"/>
      <point x="491" y="608"/>
      <point x="443" y="633" type="curve" smooth="yes"/>
      <point x="397" y="658"/>
      <point x="338" y="663"/>
      <point x="276" y="663" type="curve" smooth="yes"/>
      <point x="178" y="663"/>
      <point x="109" y="660"/>
      <point x="53" y="655" type="curve"/>
      <point x="45" y="651"/>
      <point x="45" y="635"/>
      <point x="52" y="630" type="curve"/>
      <point x="84" y="626" type="line" smooth="yes"/>
      <point x="125" y="621"/>
      <point x="128" y="604"/>
      <point x="128" y="509" type="curve" smooth="yes"/>
    </contour>
    <contour>
      <point x="210" y="600" type="line" smooth="yes"/>
      <point x="210" y="628"/>
      <point x="213" y="632"/>
      <point x="275" y="632" type="curve" smooth="yes"/>
      <point x="386" y="632"/>
      <point x="435" y="557"/>
      <point x="435" y="478" type="curve" smooth="yes"/>
      <point x="435" y="410"/>
      <point x="412" y="375"/>
      <point x="385" y="354" type="curve" smooth="yes"/>
      <point x="356" y="332"/>
      <point x="318" y="328"/>
      <point x="282" y="328" type="curve" smooth="yes"/>
      <point x="231" y="328"/>
      <point x="216" y="330"/>
      <point x="213" y="333" type="curve" smooth="yes"/>
      <point x="210" y="337"/>
      <point x="210" y="348"/>
      <point x="210" y="366" type="curve" smooth="yes"/>
    </contour>
  </outline>
</glyph>
<glyph name="V" format="1">
  <advance width="676"/>
  <unicode hex="0056"/>
  <outline>
    <contour>
      <point x="276" y="120" type="line" smooth="yes" name="hr00"/>
      <point x="293" y="78"/>
      <point x="311" y="29"/>
      <point x="322" y="-13" type="curve"/>
      <point x="327" y="-15"/>
      <point x="332" y="-16"/>
      <point x="337" y="-16" type="curve" smooth="yes"/>
      <point x="341" y="-16"/>
      <point x="345" y="-15"/>
      <point x="348" y="-13" type="curve"/>
      <point x="365" y="40"/>
      <point x="412" y="156"/>
      <point x="452" y="248" type="curve" smooth="yes"/>
      <point x="506" y="371" type="line" smooth="yes"/>
      <point x="551" y="473"/>
      <point x="590" y="554"/>
      <point x="618" y="601" type="curve" smooth="yes"/>
      <point x="631" y="622"/>
      <point x="646" y="634"/>
      <point x="670" y="636" type="curve" smooth="yes"/>
      <point x="700" y="638" type="line"/>
      <point x="705" y="643"/>
      <point x="705" y="659"/>
      <point x="698" y="663" type="curve"/>
      <point x="665" y="661"/>
      <point x="634" y="660"/>
      <point x="601" y="660" type="curve" smooth="yes"/>
      <point x="563" y="660"/>
      <point x="525" y="661"/>
      <point x="497" y="663" type="curve"/>
      <point x="490" y="659"/>
      <point x="488" y="644"/>
      <point x="495" y="638" type="curve"/>
      <point x="513" y="636" type="line" smooth="yes"/>
      <point x="548" y="632"/>
      <point x="558" y="624"/>
      <point x="558" y="617" type="curve" smooth="yes"/>
      <point x="558" y="610"/>
      <point x="557" y="599"/>
      <point x="549" y="578" type="curve" smooth="yes"/>
      <point x="532" y="535"/>
      <point x="485" y="422"/>
      <point x="456" y="354" type="curve" smooth="yes"/>
      <point x="433" y="301"/>
      <point x="391" y="198"/>
      <point x="360" y="132" type="curve"/>
      <point x="310" y="246"/>
      <point x="264" y="361"/>
      <point x="218" y="477" type="curve" smooth="yes"/>
      <point x="187" y="553"/>
      <point x="170" y="607"/>
      <point x="168" y="617" type="curve"/>
      <point x="169" y="625"/>
      <point x="177" y="631"/>
      <point x="215" y="636" type="curve" smooth="yes"/>
      <point x="230" y="638" type="line"/>
      <point x="237" y="644"/>
      <point x="235" y="659"/>
      <point x="228" y="663" type="curve"/>
      <point x="186" y="661"/>
      <point x="151" y="660"/>
      <point x="107" y="660" type="curve" smooth="yes"/>
      <point x="64" y="660"/>
      <point x="32" y="661"/>
      <point x="3" y="663" type="curve"/>
      <point x="-5" y="658"/>
      <point x="-6" y="644"/>
      <point x="1" y="638" type="curve"/>
      <point x="19" y="636" type="line" smooth="yes"/>
      <point x="62" y="631"/>
      <point x="77" y="610"/>
      <point x="100" y="554" type="curve" smooth="yes"/>
    </contour>
  </outline>
</glyph>
<glyph name="d" format="1">
  <advance width="509"/>
  <unicode hex="0064"/>
  <outline>
    <contour>
      <point x="424" y="585" type="line" smooth="yes" name="hr01"/>
      <point x="424" y="629"/>
      <point x="426" y="679"/>
      <point x="427" y="709" type="curve"/>
      <point x="425" y="713"/>
      <point x="421" y="715"/>
      <point x="417" y="715" type="curve"/>
      <point x="381" y="696"/>
      <point x="334" y="681"/>
      <point x="309" y="673" type="curve"/>
      <point x="304" y="670"/>
      <point x="304" y="656"/>
      <point x="309" y="653" type="curve" smooth="yes"/>
      <point x="319" y="647" type="line" smooth="yes"/>
      <point x="349" y="629"/>
      <point x="350" y="623"/>
      <point x="350" y="564" type="curve" smooth="yes"/>
      <point x="350" y="413" type="line" smooth="yes" name="hr02"/>
      <point x="350" y="405"/>
      <point x="349" y="399"/>
      <point x="344" y="399" type="curve"/>
      <point x="333" y="403"/>
      <point x="311" y="408"/>
      <point x="277" y="408" type="curve" smooth="yes" name="hr03"/>
      <point x="141" y="408"/>
      <point x="35" y="318"/>
      <point x="35" y="178" type="curve" smooth="yes"/>
      <point x="35" y="73"/>
      <point x="109" y="-14"/>
      <point x="220" y="-14" type="curve" smooth="yes"/>
      <point x="268" y="-14"/>
      <point x="302" y="2"/>
      <point x="346" y="32" type="curve"/>
      <point x="350" y="32" type="line"/>
      <point x="352" y="28"/>
      <point x="352" y="16"/>
      <point x="352" y="1" type="curve" smooth="yes" name="hr04"/>
      <point x="352" y="-16" type="line" smooth="yes"/>
      <point x="352" y="-21"/>
      <point x="357" y="-24"/>
      <point x="363" y="-24" type="curve"/>
      <point x="391" y="-13"/>
      <point x="453" y="2"/>
      <point x="495" y="8" type="curve"/>
      <point x="504" y="13"/>
      <point x="503" y="38"/>
      <point x="496" y="40" type="curve"/>
      <point x="481" y="35"/>
      <point x="464" y="30"/>
      <point x="453" y="30" type="curve" smooth="yes"/>
      <point x="425" y="30"/>
      <point x="424" y="67"/>
      <point x="424" y="146" type="curve" smooth="yes"/>
    </contour>
    <contour>
      <point x="350" y="99" type="line" smooth="yes" name="hr05"/>
      <point x="350" y="83"/>
      <point x="349" y="68"/>
      <point x="343" y="62" type="curve" smooth="yes"/>
      <point x="327" y="46"/>
      <point x="293" y="34"/>
      <point x="266" y="34" type="curve" smooth="yes"/>
      <point x="168" y="34"/>
      <point x="117" y="120"/>
      <point x="117" y="211" type="curve" smooth="yes"/>
      <point x="117" y="298"/>
      <point x="164" y="377"/>
      <point x="255" y="377" type="curve" smooth="yes"/>
      <point x="294" y="377"/>
      <point x="324" y="356"/>
      <point x="339" y="335" type="curve" smooth="yes"/>
      <point x="346" y="325"/>
      <point x="350" y="316"/>
      <point x="350" y="296" type="curve" smooth="yes"/>
    </contour>
  </outline>
</glyph>
<glyph name="l" format="1">
  <advance width="247"/>
  <unicode hex="006C"/>
  <outline>
    <contour>
      <point x="162" y="585" type="line" smooth="yes" name="hr00"/>
      <point x="162" y="629"/>
      <point x="164" y="679"/>
      <point x="165" y="709" type="curve"/>
      <point x="163" y="713"/>
      <point x="159" y="715"/>
      <point x="155" y="715" type="curve"/>
      <point x="119" y="696"/>
      <point x="72" y="681"/>
      <point x="47" y="673" type="curve"/>
      <point x="42" y="670"/>
      <point x="42" y="656"/>
      <point x="47" y="653" type="curve" smooth="yes"/>
      <point x="57" y="647" type="line" smooth="yes"/>
      <point x="87" y="629"/>
      <point x="88" y="623"/>
      <point x="88" y="564" type="curve" smooth="yes"/>
      <point x="88" y="112" type="line" smooth="yes"/>
      <point x="88" y="40"/>
      <point x="87" y="30"/>
      <point x="50" y="25" type="curve" smooth="yes"/>
      <point x="27" y="22" type="line"/>
      <point x="20" y="17"/>
      <point x="22" y="0"/>
      <point x="29" y="-3" type="curve"/>
      <point x="59" y="-1"/>
      <point x="89" y="0"/>
      <point x="125" y="0" type="curve" smooth="yes"/>
      <point x="160" y="0"/>
      <point x="189" y="-1"/>
      <point x="222" y="-3" type="curve"/>
      <point x="229" y="0"/>
      <point x="231" y="17"/>
      <point x="224" y="22" type="curve"/>
      <point x="200" y="25" type="line" smooth="yes"/>
      <point x="164" y="30"/>
      <point x="162" y="40"/>
      <point x="162" y="112" type="curve" smooth="yes"/>
    </contour>
  </outline>
</glyph>
<glyph name="v" format="1">
  <advance width="432"/>
  <unicode hex="0076"/>
  <outline>
    <contour>
      <point x="166" y="92" type="line" smooth="yes" name="hr00"/>
      <point x="181" y="55"/>
      <point x="196" y="16"/>
      <point x="204" y="-12" type="curve"/>
      <point x="207" y="-15"/>
      <point x="212" y="-16"/>
      <point x="217" y="-16" type="curve" smooth="yes"/>
      <point x="221" y="-16"/>
      <point x="225" y="-15"/>
      <point x="227" y="-12" type="curve"/>
      <point x="240" y="22"/>
      <point x="250" y="45"/>
      <point x="260" y="70" type="curve" smooth="yes"/>
      <point x="276" y="111"/>
      <point x="338" y="256"/>
      <point x="352" y="283" type="curve" smooth="yes"/>
      <point x="381" y="339"/>
      <point x="390" y="365"/>
      <point x="425" y="370" type="curve" smooth="yes"/>
      <point x="440" y="372" type="line"/>
      <point x="446" y="378"/>
      <point x="445" y="393"/>
      <point x="438" y="397" type="curve"/>
      <point x="410" y="395"/>
      <point x="393" y="394"/>
      <point x="368" y="394" type="curve" smooth="yes"/>
      <point x="349" y="394"/>
      <point x="324" y="395"/>
      <point x="293" y="397" type="curve"/>
      <point x="286" y="393"/>
      <point x="285" y="379"/>
      <point x="291" y="372" type="curve"/>
      <point x="314" y="369" type="line" smooth="yes"/>
      <point x="326" y="367"/>
      <point x="332" y="363"/>
      <point x="332" y="354" type="curve" smooth="yes"/>
      <point x="332" y="348"/>
      <point x="328" y="327"/>
      <point x="314" y="292" type="curve" smooth="yes"/>
      <point x="257" y="145" type="line" smooth="yes"/>
      <point x="249" y="124"/>
      <point x="242" y="110"/>
      <point x="238" y="107" type="curve"/>
      <point x="235" y="110"/>
      <point x="231" y="119"/>
      <point x="222" y="139" type="curve" smooth="yes"/>
      <point x="199" y="191"/>
      <point x="170" y="261"/>
      <point x="147" y="330" type="curve" smooth="yes"/>
      <point x="137" y="360"/>
      <point x="138" y="365"/>
      <point x="169" y="370" type="curve" smooth="yes"/>
      <point x="181" y="372" type="line"/>
      <point x="188" y="377"/>
      <point x="187" y="393"/>
      <point x="180" y="397" type="curve"/>
      <point x="146" y="395"/>
      <point x="126" y="394"/>
      <point x="99" y="394" type="curve" smooth="yes"/>
      <point x="65" y="394"/>
      <point x="30" y="395"/>
      <point x="5" y="397" type="curve"/>
      <point x="-3" y="394"/>
      <point x="-4" y="380"/>
      <point x="2" y="372" type="curve"/>
      <point x="22" y="369" type="line" smooth="yes"/>
      <point x="58" y="364"/>
      <point x="67" y="332"/>
      <point x="82" y="295" type="curve" smooth="yes"/>
    </contour>
  </outline>
</glyph>
<glyph name="x" format="1">
  <advance width="432"/>
  <unicode hex="0078"/>
  <outline>
    <contour>
      <point x="177" y="199" type="line" smooth="yes" name="hr01"/>
      <point x="185" y="188"/>
      <point x="183" y="184"/>
      <point x="174" y="173" type="curve" smooth="yes"/>
      <point x="151" y="145"/>
      <point x="106" y="78"/>
      <point x="85" y="56" type="curve" smooth="yes"/>
      <point x="67" y="37"/>
      <point x="53" y="29"/>
      <point x="35" y="26" type="curve" smooth="yes"/>
      <point x="12" y="22" type="line"/>
      <point x="5" y="18"/>
      <point x="6" y="1"/>
      <point x="14" y="-3" type="curve"/>
      <point x="40" y="-1"/>
      <point x="62" y="0"/>
      <point x="87" y="0" type="curve" smooth="yes"/>
      <point x="111" y="0"/>
      <point x="136" y="-1"/>
      <point x="161" y="-3" type="curve"/>
      <point x="168" y="0"/>
      <point x="169" y="17"/>
      <point x="163" y="22" type="curve"/>
      <point x="146" y="25" type="line" smooth="yes"/>
      <point x="121" y="29"/>
      <point x="123" y="37"/>
      <point x="143" y="69" type="curve" smooth="yes"/>
      <point x="185" y="135" type="line" smooth="yes" name="hr02"/>
      <point x="192" y="146"/>
      <point x="200" y="156"/>
      <point x="203" y="159" type="curve"/>
      <point x="207" y="156"/>
      <point x="213" y="148"/>
      <point x="225" y="130" type="curve" smooth="yes"/>
      <point x="277" y="55" type="line" smooth="yes"/>
      <point x="290" y="37"/>
      <point x="289" y="28"/>
      <point x="260" y="25" type="curve" smooth="yes"/>
      <point x="231" y="22" type="line"/>
      <point x="224" y="17"/>
      <point x="226" y="0"/>
      <point x="234" y="-3" type="curve"/>
      <point x="266" y="-1"/>
      <point x="292" y="0"/>
      <point x="329" y="0" type="curve" smooth="yes"/>
      <point x="358" y="0"/>
      <point x="391" y="-1"/>
      <point x="428" y="-3" type="curve"/>
      <point x="435" y="0"/>
      <point x="436" y="16"/>
      <point x="430" y="22" type="curve"/>
      <point x="414" y="23" type="line" smooth="yes"/>
      <point x="387" y="25"/>
      <point x="371" y="38"/>
      <point x="348" y="70" type="curve" smooth="yes"/>
      <point x="255" y="201" type="line" smooth="yes"/>
      <point x="242" y="219"/>
      <point x="242" y="222"/>
      <point x="254" y="238" type="curve" smooth="yes"/>
      <point x="294" y="292"/>
      <point x="331" y="338"/>
      <point x="348" y="352" type="curve" smooth="yes" name="hr03"/>
      <point x="359" y="361"/>
      <point x="374" y="364"/>
      <point x="398" y="369" type="curve" smooth="yes"/>
      <point x="413" y="372" type="line"/>
      <point x="419" y="377"/>
      <point x="419" y="393"/>
      <point x="411" y="397" type="curve"/>
      <point x="392" y="395"/>
      <point x="361" y="394"/>
      <point x="338" y="394" type="curve" smooth="yes"/>
      <point x="314" y="394"/>
      <point x="288" y="395"/>
      <point x="265" y="397" type="curve"/>
      <point x="257" y="394"/>
      <point x="255" y="378"/>
      <point x="261" y="372" type="curve"/>
      <point x="273" y="369" type="line" smooth="yes"/>
      <point x="295" y="363"/>
      <point x="298" y="358"/>
      <point x="281" y="332" type="curve" smooth="yes"/>
      <point x="260" y="300"/>
      <point x="227" y="250"/>
      <point x="223" y="247" type="curve"/>
      <point x="220" y="250"/>
      <point x="214" y="258"/>
      <point x="210" y="264" type="curve" smooth="yes"/>
      <point x="162" y="334" type="line" smooth="yes"/>
      <point x="145" y="358"/>
      <point x="144" y="364"/>
      <point x="171" y="369" type="curve" smooth="yes"/>
      <point x="186" y="372" type="line"/>
      <point x="192" y="377"/>
      <point x="192" y="393"/>
      <point x="185" y="397" type="curve"/>
      <point x="146" y="395"/>
      <point x="124" y="394"/>
      <point x="100" y="394" type="curve" smooth="yes"/>
      <point x="75" y="394"/>
      <point x="52" y="395"/>
      <point x="13" y="397" type="curve"/>
      <point x="6" y="394"/>
      <point x="5" y="377"/>
      <point x="11" y="372" type="curve"/>
      <point x="27" y="369" type="line" smooth="yes"/>
      <point x="55" y="364"/>
      <point x="72" y="348"/>
      <point x="87" y="326" type="curve" smooth="yes"/>
    </contour>
  </outline>
</glyph>
<glyph name="sterling" format="1">
  <advance width="500"/>
  <unicode hex="00A3"/>
  <outline>
    <contour>
      <point x="34" y="333" type="line" name="hr01"/>
      <point x="26" y="327"/>
      <point x="26" y="307"/>
      <point x="34" y="301" type="curve"/>
      <point x="116" y="301" type="line" smooth="yes"/>
      <point x="131" y="301"/>
      <point x="132" y="298"/>
      <point x="132" y="287" type="curve" smooth="yes"/>
      <point x="132" y="179"/>
      <point x="111" y="110"/>
      <point x="63" y="69" type="curve" smooth="yes"/>
      <point x="37" y="48"/>
      <point x="15" y="24"/>
      <point x="15" y="4" type="curve" smooth="yes"/>
      <point x="15" y="-8"/>
      <point x="20" y="-14"/>
      <point x="33" y="-14" type="curve" smooth="yes"/>
      <point x="44" y="-14"/>
      <point x="71" y="-1"/>
      <point x="71" y="13" type="curve" smooth="yes"/>
      <point x="71" y="27"/>
      <point x="76" y="46"/>
      <point x="105" y="46" type="curve" smooth="yes"/>
      <point x="135" y="46"/>
      <point x="173" y="28"/>
      <point x="208" y="9" type="curve" smooth="yes"/>
      <point x="258" y="-18"/>
      <point x="287" y="-30"/>
      <point x="317" y="-30" type="curve" smooth="yes" name="hr02"/>
      <point x="404" y="-30"/>
      <point x="474" y="31"/>
      <point x="474" y="82" type="curve" smooth="yes"/>
      <point x="474" y="106"/>
      <point x="459" y="127"/>
      <point x="438" y="127" type="curve" smooth="yes"/>
      <point x="422" y="127"/>
      <point x="410" y="116"/>
      <point x="414" y="92" type="curve" smooth="yes"/>
      <point x="420" y="54"/>
      <point x="417" y="20"/>
      <point x="375" y="20" type="curve" smooth="yes"/>
      <point x="347" y="20"/>
      <point x="316" y="32"/>
      <point x="283" y="46" type="curve" smooth="yes"/>
      <point x="250" y="60"/>
      <point x="217" y="74"/>
      <point x="195" y="77" type="curve" smooth="yes" name="hr03"/>
      <point x="151" y="83"/>
      <point x="130" y="80"/>
      <point x="115" y="78" type="curve"/>
      <point x="114" y="80" type="line"/>
      <point x="167" y="125"/>
      <point x="209" y="183"/>
      <point x="209" y="287" type="curve" smooth="yes"/>
      <point x="209" y="300"/>
      <point x="213" y="301"/>
      <point x="230" y="301" type="curve" smooth="yes"/>
      <point x="376" y="301" type="line"/>
      <point x="385" y="306"/>
      <point x="385" y="327"/>
      <point x="376" y="333" type="curve"/>
      <point x="229" y="333" type="line" smooth="yes" name="hr04"/>
      <point x="212" y="333"/>
      <point x="210" y="335"/>
      <point x="209" y="348" type="curve" smooth="yes"/>
      <point x="205" y="394"/>
      <point x="202" y="422"/>
      <point x="202" y="458" type="curve" smooth="yes"/>
      <point x="202" y="552"/>
      <point x="250" y="598"/>
      <point x="296" y="598" type="curve" smooth="yes"/>
      <point x="320" y="598"/>
      <point x="340" y="586"/>
      <point x="364" y="567" type="curve" smooth="yes"/>
      <point x="371" y="562"/>
      <point x="375" y="560"/>
      <point x="379" y="560" type="curve" smooth="yes"/>
      <point x="389" y="560"/>
      <point x="408" y="582"/>
      <point x="408" y="602" type="curve" smooth="yes"/>
      <point x="408" y="612"/>
      <point x="405" y="618"/>
      <point x="397" y="625" type="curve" smooth="yes"/>
      <point x="385" y="634"/>
      <point x="363" y="640"/>
      <point x="341" y="640" type="curve" smooth="yes"/>
      <point x="216" y="640"/>
      <point x="128" y="539"/>
      <point x="128" y="401" type="curve" smooth="yes"/>
      <point x="128" y="375"/>
      <point x="128" y="359"/>
      <point x="129" y="342" type="curve" smooth="yes"/>
      <point x="130" y="334"/>
      <point x="129" y="333"/>
      <point x="115" y="333" type="curve" smooth="yes"/>
    </contour>
  </outline>
</glyph>
<glyph name="currency" format="1">
  <advance width="500"/>
  <unicode hex="00A4"/>
  <outline>
    <contour>
      <point x="251" y="493" type="curve" smooth="yes" name="hr00"/>
      <point x="334" y="493"/>
      <point x="410" y="418"/>
      <point x="410" y="325" type="curve" smooth="yes"/>
      <point x="410" y="230"/>
      <point x="334" y="157"/>
      <point x="251" y="157" type="curve" smooth="yes"/>
      <point x="168" y="157"/>
      <point x="92" y="229"/>
      <point x="92" y="325" type="curve" smooth="yes"/>
      <point x="92" y="418"/>
      <point x="166" y="493"/>
    </contour>
    <contour>
      <point x="251" y="539" type="curve" smooth="yes"/>
      <point x="204" y="539"/>
      <point x="162" y="525"/>
      <point x="126" y="499" type="curve"/>
      <point x="85" y="550" type="line"/>
      <point x="62" y="543"/>
      <point x="39" y="523"/>
      <point x="36" y="502" type="curve"/>
      <point x="81" y="457" type="line"/>
      <point x="52" y="422"/>
      <point x="35" y="375"/>
      <point x="35" y="325" type="curve" smooth="yes"/>
      <point x="35" y="275"/>
      <point x="52" y="228"/>
      <point x="81" y="193" type="curve"/>
      <point x="36" y="148" type="line"/>
      <point x="39" y="127"/>
      <point x="62" y="107"/>
      <point x="85" y="100" type="curve"/>
      <point x="126" y="151" type="line"/>
      <point x="162" y="125"/>
      <point x="204" y="111"/>
      <point x="251" y="111" type="curve" smooth="yes"/>
      <point x="298" y="111"/>
      <point x="340" y="125"/>
      <point x="376" y="151" type="curve"/>
      <point x="417" y="100" type="line"/>
      <point x="440" y="107"/>
      <point x="463" y="127"/>
      <point x="466" y="148" type="curve"/>
      <point x="421" y="193" type="line"/>
      <point x="450" y="228"/>
      <point x="467" y="275"/>
      <point x="467" y="325" type="curve" smooth="yes"/>
      <point x="467" y="375"/>
      <point x="450" y="422"/>
      <point x="421" y="457" type="curve"/>
      <point x="466" y="502" type="line"/>
      <point x="463" y="523"/>
      <point x="440" y="543"/>
      <point x="417" y="550" type="curve"/>
      <point x="376" y="499" type="line"/>
      <point x="340" y="525"/>
      <point x="298" y="539"/>
    </contour>
  </outline>
</glyph>
<glyph name="yen" format="1">
  <advance width="500"/>
  <unicode hex="00A5"/>
  <outline>
    <contour>
      <point x="449" y="207" type="line" name="hr00"/>
      <point x="456" y="213"/>
      <point x="456" y="233"/>
      <point x="449" y="239" type="curve"/>
      <point x="300" y="239" type="line"/>
      <point x="300" y="320" type="line"/>
      <point x="449" y="320" type="line"/>
      <point x="456" y="326"/>
      <point x="456" y="346"/>
      <point x="449" y="352" type="curve"/>
      <point x="313" y="352" type="line"/>
      <point x="402" y="505" type="line" smooth="yes"/>
      <point x="435" y="561"/>
      <point x="456" y="597"/>
      <point x="486" y="603" type="curve" smooth="yes"/>
      <point x="510" y="608" type="line"/>
      <point x="515" y="614"/>
      <point x="515" y="625"/>
      <point x="508" y="629" type="curve"/>
      <point x="483" y="627"/>
      <point x="459" y="626"/>
      <point x="433" y="626" type="curve" smooth="yes"/>
      <point x="401" y="626"/>
      <point x="369" y="627"/>
      <point x="339" y="629" type="curve"/>
      <point x="331" y="626"/>
      <point x="330" y="613"/>
      <point x="336" y="608" type="curve"/>
      <point x="374" y="601" type="line" smooth="yes"/>
      <point x="391" y="598"/>
      <point x="397" y="594"/>
      <point x="397" y="583" type="curve" smooth="yes"/>
      <point x="397" y="576"/>
      <point x="370" y="524"/>
      <point x="345" y="477" type="curve" smooth="yes"/>
      <point x="307" y="407" type="line" smooth="yes"/>
      <point x="292" y="379"/>
      <point x="281" y="368"/>
      <point x="276" y="368" type="curve" smooth="yes"/>
      <point x="272" y="368"/>
      <point x="259" y="395"/>
      <point x="243" y="424" type="curve" smooth="yes"/>
      <point x="192" y="515" type="line" smooth="yes"/>
      <point x="181" y="535"/>
      <point x="157" y="579"/>
      <point x="157" y="586" type="curve" smooth="yes"/>
      <point x="157" y="593"/>
      <point x="162" y="598"/>
      <point x="177" y="601" type="curve" smooth="yes"/>
      <point x="215" y="608" type="line"/>
      <point x="220" y="613"/>
      <point x="220" y="626"/>
      <point x="213" y="629" type="curve"/>
      <point x="188" y="627"/>
      <point x="162" y="626"/>
      <point x="118" y="626" type="curve" smooth="yes"/>
      <point x="75" y="626"/>
      <point x="35" y="627"/>
      <point x="10" y="629" type="curve"/>
      <point x="1" y="625"/>
      <point x="2" y="613"/>
      <point x="7" y="608" type="curve"/>
      <point x="28" y="603" type="line" smooth="yes"/>
      <point x="67" y="594"/>
      <point x="76" y="580"/>
      <point x="108" y="525" type="curve" smooth="yes"/>
      <point x="210" y="352" type="line"/>
      <point x="74" y="352" type="line"/>
      <point x="67" y="346"/>
      <point x="67" y="326"/>
      <point x="74" y="320" type="curve"/>
      <point x="224" y="320" type="line"/>
      <point x="224" y="239" type="line"/>
      <point x="74" y="239" type="line"/>
      <point x="67" y="233"/>
      <point x="67" y="213"/>
      <point x="74" y="207" type="curve"/>
      <point x="226" y="207" type="line"/>
      <point x="226" y="123" type="line" smooth="yes"/>
      <point x="226" y="46"/>
      <point x="225" y="29"/>
      <point x="183" y="24" type="curve" smooth="yes"/>
      <point x="146" y="20" type="line"/>
      <point x="140" y="15"/>
      <point x="141" y="0"/>
      <point x="148" y="-3" type="curve"/>
      <point x="184" y="-1"/>
      <point x="229" y="0"/>
      <point x="260" y="0" type="curve" smooth="yes"/>
      <point x="295" y="0"/>
      <point x="340" y="-1"/>
      <point x="376" y="-3" type="curve"/>
      <point x="383" y="0"/>
      <point x="384" y="15"/>
      <point x="378" y="20" type="curve"/>
      <point x="341" y="24" type="line" smooth="yes"/>
      <point x="300" y="28"/>
      <point x="298" y="46"/>
      <point x="298" y="123" type="curve" smooth="yes"/>
      <point x="298" y="207" type="line"/>
    </contour>
  </outline>
</glyph>
<glyph name="brokenbar" format="1">
  <advance width="239"/>
  <unicode hex="00A6"/>
  <outline>
    <contour>
      <point x="149" y="675" type="line" name="hr00"/>
      <point x="90" y="675" type="line"/>
      <point x="90" y="325" type="line"/>
      <point x="149" y="325" type="line"/>
    </contour>
    <contour>
      <point x="149" y="175" type="line"/>
      <point x="90" y="175" type="line"/>
      <point x="90" y="-175" type="line"/>
      <point x="149" y="-175" type="line"/>
    </contour>
  </outline>
</glyph>
<glyph name="copyright" format="1">
  <advance width="790"/>
  <unicode hex="00A9"/>
  <outline>
    <contour>
      <point x="280" y="334" type="curve" smooth="yes" name="hr00"/>
      <point x="280" y="426"/>
      <point x="328" y="502"/>
      <point x="423" y="502" type="curve" smooth="yes"/>
      <point x="483" y="502"/>
      <point x="523" y="474"/>
      <point x="541" y="417" type="curve"/>
      <point x="546" y="412"/>
      <point x="558" y="413"/>
      <point x="562" y="420" type="curve"/>
      <point x="557" y="457"/>
      <point x="555" y="483"/>
      <point x="550" y="513" type="curve"/>
      <point x="535" y="514"/>
      <point x="484" y="529"/>
      <point x="429" y="529" type="curve" smooth="yes"/>
      <point x="303" y="529"/>
      <point x="205" y="448"/>
      <point x="205" y="328" type="curve" smooth="yes"/>
      <point x="205" y="231"/>
      <point x="275" y="132"/>
      <point x="423" y="132" type="curve" smooth="yes"/>
      <point x="471" y="132"/>
      <point x="526" y="149"/>
      <point x="545" y="155" type="curve"/>
      <point x="557" y="176"/>
      <point x="570" y="225"/>
      <point x="572" y="251" type="curve"/>
      <point x="568" y="258"/>
      <point x="558" y="259"/>
      <point x="552" y="254" type="curve"/>
      <point x="527" y="197"/>
      <point x="487" y="159"/>
      <point x="429" y="159" type="curve" smooth="yes"/>
      <point x="340" y="159"/>
      <point x="280" y="229"/>
    </contour>
    <contour>
      <point x="395" y="-16" type="curve" smooth="yes"/>
      <point x="596" y="-16"/>
      <point x="745" y="139"/>
      <point x="745" y="330" type="curve" smooth="yes"/>
      <point x="745" y="521"/>
      <point x="596" y="676"/>
      <point x="395" y="676" type="curve" smooth="yes"/>
      <point x="194" y="676"/>
      <point x="45" y="521"/>
      <point x="45" y="330" type="curve" smooth="yes"/>
      <point x="45" y="139"/>
      <point x="194" y="-16"/>
    </contour>
    <contour>
      <point x="102" y="331" type="curve" smooth="yes"/>
      <point x="102" y="503"/>
      <point x="229" y="637"/>
      <point x="395" y="637" type="curve" smooth="yes"/>
      <point x="561" y="637"/>
      <point x="688" y="503"/>
      <point x="688" y="331" type="curve" smooth="yes"/>
      <point x="688" y="158"/>
      <point x="561" y="23"/>
      <point x="395" y="23" type="curve" smooth="yes"/>
      <point x="229" y="23"/>
      <point x="102" y="158"/>
    </contour>
  </outline>
</glyph>
<glyph name="macron" format="1">
  <advance width="360"/>
  <unicode hex="00AF"/>
  <outline>
    <contour>
      <point x="283" y="524" type="line" name="hr00"/>
      <point x="292" y="538"/>
      <point x="292" y="567"/>
      <point x="283" y="581" type="curve"/>
      <point x="79" y="581" type="line"/>
      <point x="68" y="567"/>
      <point x="68" y="538"/>
      <point x="79" y="524" type="curve"/>
    </contour>
  </outline>
</glyph>
<glyph name="guillemotright" format="1">
  <advance width="378"/>
  <unicode hex="00BB"/>
  <outline>
    <contour>
      <point x="115" y="218" type="line" smooth="yes" name="hr00"/>
      <point x="119" y="209"/>
      <point x="118" y="201"/>
      <point x="115" y="194" type="curve" smooth="yes"/>
      <point x="45" y="52" type="line"/>
      <point x="48" y="45"/>
      <point x="53" y="41"/>
      <point x="62" y="39" type="curve"/>
      <point x="101" y="89"/>
      <point x="139" y="140"/>
      <point x="181" y="190" type="curve" smooth="yes"/>
      <point x="190" y="201"/>
      <point x="191" y="210"/>
      <point x="181" y="221" type="curve" smooth="yes"/>
      <point x="139" y="271"/>
      <point x="101" y="321"/>
      <point x="62" y="371" type="curve"/>
      <point x="55" y="370"/>
      <point x="48" y="366"/>
      <point x="45" y="358" type="curve"/>
    </contour>
    <contour>
      <point x="260" y="218" type="line" smooth="yes"/>
      <point x="264" y="209"/>
      <point x="263" y="201"/>
      <point x="260" y="194" type="curve" smooth="yes"/>
      <point x="190" y="52" type="line"/>
      <point x="193" y="45"/>
      <point x="198" y="41"/>
      <point x="207" y="39" type="curve"/>
      <point x="246" y="89"/>
      <point x="284" y="140"/>
      <point x="326" y="190" type="curve" smooth="yes"/>
      <point x="335" y="201"/>
      <point x="336" y="210"/>
      <point x="326" y="221" type="curve" smooth="yes"/>
      <point x="284" y="271"/>
      <point x="246" y="321"/>
      <point x="207" y="371" type="curve"/>
      <point x="200" y="370"/>
      <point x="193" y="366"/>
      <point x="190" y="358" type="curve"/>
    </contour>
  </outline>
</glyph>
<glyph name="onequarter" format="1">
  <advance width="780"/>
  <unicode hex="00BC"/>
  <outline>
    <contour>
      <point x="138" y="-14" type="curve" name="hr01"/>
      <point x="139" y="-29"/>
      <point x="148" y="-40"/>
      <point x="165" y="-40" type="curve"/>
      <point x="310" y="184"/>
      <point x="456" y="407"/>
      <point x="605" y="631" type="curve"/>
      <point x="598" y="647"/>
      <point x="586" y="654"/>
      <point x="574" y="654" type="curve"/>
      <point x="431" y="431"/>
      <point x="285" y="209"/>
    </contour>
    <contour>
      <point x="110" y="333" type="line" smooth="yes"/>
      <point x="110" y="283"/>
      <point x="109" y="273"/>
      <point x="68" y="268" type="curve" smooth="yes"/>
      <point x="51" y="266" type="line"/>
      <point x="46" y="262"/>
      <point x="46" y="248"/>
      <point x="52" y="245" type="curve"/>
      <point x="80" y="246"/>
      <point x="112" y="247"/>
      <point x="140" y="247" type="curve" smooth="yes"/>
      <point x="171" y="247"/>
      <point x="202" y="246"/>
      <point x="232" y="245" type="curve"/>
      <point x="238" y="248"/>
      <point x="238" y="262"/>
      <point x="233" y="266" type="curve"/>
      <point x="216" y="268" type="line" smooth="yes"/>
      <point x="175" y="273"/>
      <point x="174" y="283"/>
      <point x="174" y="333" type="curve" smooth="yes"/>
      <point x="174" y="562" type="line" smooth="yes"/>
      <point x="174" y="586"/>
      <point x="174" y="614"/>
      <point x="176" y="635" type="curve" smooth="yes"/>
      <point x="176" y="639"/>
      <point x="172" y="640"/>
      <point x="169" y="640" type="curve"/>
      <point x="142" y="630"/>
      <point x="102" y="614"/>
      <point x="47" y="605" type="curve"/>
      <point x="42" y="601"/>
      <point x="42" y="590"/>
      <point x="48" y="586" type="curve"/>
      <point x="79" y="583" type="line" smooth="yes"/>
      <point x="108" y="580"/>
      <point x="110" y="563"/>
      <point x="110" y="526" type="curve" smooth="yes"/>
    </contour>
    <contour>
      <point x="475" y="145" type="line" smooth="yes"/>
      <point x="456" y="145"/>
      <point x="447" y="145"/>
      <point x="457" y="157" type="curve" smooth="yes"/>
      <point x="663" y="421" type="line" smooth="yes"/>
      <point x="664" y="423"/>
      <point x="665" y="425"/>
      <point x="665" y="427" type="curve" smooth="yes"/>
      <point x="665" y="431"/>
      <point x="655" y="432"/>
      <point x="643" y="432" type="curve" smooth="yes"/>
      <point x="633" y="432"/>
      <point x="629" y="429"/>
      <point x="622" y="420" type="curve" smooth="yes"/>
      <point x="409" y="146" type="line" smooth="yes"/>
      <point x="402" y="137"/>
      <point x="400" y="133"/>
      <point x="400" y="126" type="curve" smooth="yes"/>
      <point x="400" y="120"/>
      <point x="404" y="116"/>
      <point x="409" y="116" type="curve" smooth="yes"/>
      <point x="564" y="116" type="line" smooth="yes"/>
      <point x="582" y="116"/>
      <point x="583" y="113"/>
      <point x="583" y="98" type="curve" smooth="yes"/>
      <point x="583" y="86" type="line" smooth="yes" name="hr02"/>
      <point x="583" y="32"/>
      <point x="583" y="26"/>
      <point x="542" y="21" type="curve" smooth="yes"/>
      <point x="524" y="19" type="line"/>
      <point x="519" y="13"/>
      <point x="520" y="1"/>
      <point x="526" y="-2" type="curve"/>
      <point x="539" y="-1"/>
      <point x="578" y="0"/>
      <point x="615" y="0" type="curve" smooth="yes"/>
      <point x="657" y="0"/>
      <point x="680" y="-1"/>
      <point x="701" y="-2" type="curve"/>
      <point x="707" y="1"/>
      <point x="707" y="13"/>
      <point x="703" y="19" type="curve"/>
      <point x="685" y="21" type="line" smooth="yes"/>
      <point x="645" y="25"/>
      <point x="646" y="30"/>
      <point x="646" y="86" type="curve" smooth="yes"/>
      <point x="646" y="100" type="line" smooth="yes"/>
      <point x="646" y="114"/>
      <point x="647" y="116"/>
      <point x="665" y="116" type="curve" smooth="yes"/>
      <point x="698" y="116" type="line"/>
      <point x="706" y="122"/>
      <point x="706" y="140"/>
      <point x="698" y="145" type="curve"/>
      <point x="661" y="145" type="line" smooth="yes"/>
      <point x="648" y="145"/>
      <point x="646" y="147"/>
      <point x="646" y="159" type="curve" smooth="yes"/>
      <point x="646" y="274" type="line" smooth="yes"/>
      <point x="646" y="286"/>
      <point x="646" y="293"/>
      <point x="635" y="293" type="curve" smooth="yes"/>
      <point x="620" y="293"/>
      <point x="598" y="287"/>
      <point x="589" y="282" type="curve" smooth="yes"/>
      <point x="584" y="279"/>
      <point x="583" y="274"/>
      <point x="583" y="270" type="curve" smooth="yes"/>
      <point x="583" y="161" type="line" smooth="yes"/>
      <point x="583" y="147"/>
      <point x="581" y="145"/>
      <point x="565" y="145" type="curve" smooth="yes"/>
    </contour>
  </outline>
</glyph>
<glyph name="Egrave" format="1">
  <advance width="584"/>
  <unicode hex="00C8"/>
  <outline>
    <contour>
      <point x="128" y="150" type="line" smooth="yes" name="hr01"/>
      <point x="128" y="45"/>
      <point x="123" y="30"/>
      <point x="66" y="25" type="curve" smooth="yes" name="hr02"/>
      <point x="33" y="22" type="line"/>
      <point x="27" y="16"/>
      <point x="29" y="0"/>
      <point x="35" y="-3" type="curve" name="hr03"/>
      <point x="94" y="-1"/>
      <point x="128" y="0"/>
      <point x="171" y="0" type="curve" smooth="yes" name="hr04"/>
      <point x="261" y="0" type="line" smooth="yes"/>
      <point x="350" y="0"/>
      <point x="439" y="-1"/>
      <point x="529" y="-3" type="curve"/>
      <point x="542" y="24"/>
      <point x="567" y="101"/>
      <point x="574" y="136" type="curve"/>
      <point x="570" y="145"/>
      <point x="556" y="148"/>
      <point x="549" y="143" type="curve"/>
      <point x="523" y="91"/>
      <point x="496" y="56"/>
      <point x="478" y="46" type="curve" smooth="yes"/>
      <point x="456" y="35"/>
      <point x="427" y="31"/>
      <point x="350" y="31" type="curve" smooth="yes"/>
      <point x="262" y="31"/>
      <point x="241" y="42"/>
      <point x="229" y="54" type="curve" smooth="yes"/>
      <point x="213" y="71"/>
      <point x="210" y="105"/>
      <point x="210" y="158" type="curve" smooth="yes"/>
      <point x="210" y="299" type="line" smooth="yes"/>
      <point x="210" y="325"/>
      <point x="213" y="326"/>
      <point x="243" y="326" type="curve" smooth="yes"/>
      <point x="301" y="326" type="line" smooth="yes"/>
      <point x="340" y="326"/>
      <point x="364" y="325"/>
      <point x="378" y="321" type="curve" smooth="yes"/>
      <point x="398" y="316"/>
      <point x="405" y="301"/>
      <point x="409" y="283" type="curve" smooth="yes"/>
      <point x="418" y="244" type="line"/>
      <point x="423" y="238"/>
      <point x="440" y="238"/>
      <point x="444" y="245" type="curve"/>
      <point x="444" y="267"/>
      <point x="440" y="305"/>
      <point x="440" y="341" type="curve" smooth="yes"/>
      <point x="440" y="379"/>
      <point x="444" y="418"/>
      <point x="444" y="442" type="curve"/>
      <point x="440" y="449"/>
      <point x="423" y="449"/>
      <point x="418" y="443" type="curve"/>
      <point x="410" y="402" type="line" smooth="yes"/>
      <point x="405" y="377"/>
      <point x="398" y="371"/>
      <point x="386" y="367" type="curve" smooth="yes"/>
      <point x="374" y="363"/>
      <point x="343" y="361"/>
      <point x="301" y="361" type="curve" smooth="yes"/>
      <point x="243" y="361" type="line" smooth="yes"/>
      <point x="213" y="361"/>
      <point x="210" y="361"/>
      <point x="210" y="389" type="curve" smooth="yes"/>
      <point x="210" y="589" type="line" smooth="yes"/>
      <point x="210" y="627"/>
      <point x="210" y="629"/>
      <point x="240" y="629" type="curve" smooth="yes"/>
      <point x="312" y="629" type="line" smooth="yes"/>
      <point x="356" y="629"/>
      <point x="388" y="628"/>
      <point x="409" y="623" type="curve" smooth="yes"/>
      <point x="461" y="610"/>
      <point x="470" y="575"/>
      <point x="485" y="528" type="curve"/>
      <point x="490" y="522"/>
      <point x="506" y="524"/>
      <point x="510" y="530" type="curve"/>
      <point x="506" y="574"/>
      <point x="500" y="646"/>
      <point x="494" y="663" type="curve" name="hr05"/>
      <point x="482" y="660"/>
      <point x="423" y="660"/>
      <point x="359" y="660" type="curve" smooth="yes" name="hr06"/>
      <point x="171" y="660" type="line" smooth="yes"/>
      <point x="130" y="660"/>
      <point x="96" y="661"/>
      <point x="53" y="663" type="curve" name="hr07"/>
      <point x="47" y="660"/>
      <point x="45" y="642"/>
      <point x="51" y="638" type="curve"/>
      <point x="67" y="636" type="line" smooth="yes"/>
      <point x="126" y="629"/>
      <point x="128" y="614"/>
      <point x="128" y="510" type="curve" smooth="yes"/>
    </contour>
    <contour>
      <point x="334" y="705" type="line"/>
      <point x="341" y="707"/>
      <point x="347" y="718"/>
      <point x="344" y="729" type="curve"/>
      <point x="203" y="844" type="line"/>
      <point x="191" y="852"/>
      <point x="182" y="857"/>
      <point x="176" y="857" type="curve" smooth="yes"/>
      <point x="169" y="857"/>
      <point x="156" y="850"/>
      <point x="148" y="834" type="curve" smooth="yes"/>
      <point x="138" y="815"/>
      <point x="138" y="801"/>
      <point x="142" y="793" type="curve" smooth="yes"/>
      <point x="145" y="788"/>
      <point x="153" y="783"/>
      <point x="167" y="777" type="curve" smooth="yes"/>
    </contour>
  </outline>
</glyph>
<glyph name="Igrave" format="1">
  <advance width="338"/>
  <unicode hex="00CC"/>
  <outline>
    <contour>
      <point x="128" y="152" type="line" smooth="yes" name="hr00"/>
      <point x="128" y="46"/>
      <point x="126" y="32"/>
      <point x="67" y="25" type="curve" smooth="yes"/>
      <point x="42" y="22" type="line"/>
      <point x="36" y="16"/>
      <point x="38" y="0"/>
      <point x="44" y="-3" type="curve"/>
      <point x="94" y="-1"/>
      <point x="128" y="0"/>
      <point x="170" y="0" type="curve" smooth="yes"/>
      <point x="210" y="0"/>
      <point x="244" y="-1"/>
      <point x="294" y="-3" type="curve"/>
      <point x="300" y="0"/>
      <point x="302" y="18"/>
      <point x="296" y="22" type="curve"/>
      <point x="271" y="25" type="line" smooth="yes"/>
      <point x="212" y="32"/>
      <point x="210" y="46"/>
      <point x="210" y="152" type="curve" smooth="yes"/>
      <point x="210" y="508" type="line" smooth="yes"/>
      <point x="210" y="614"/>
      <point x="212" y="631"/>
      <point x="271" y="636" type="curve" smooth="yes"/>
      <point x="296" y="638" type="line"/>
      <point x="302" y="642"/>
      <point x="300" y="660"/>
      <point x="294" y="663" type="curve"/>
      <point x="244" y="661"/>
      <point x="210" y="660"/>
      <point x="170" y="660" type="curve" smooth="yes"/>
      <point x="128" y="660"/>
      <point x="94" y="661"/>
      <point x="44" y="663" type="curve"/>
      <point x="38" y="660"/>
      <point x="36" y="642"/>
      <point x="42" y="638" type="curve"/>
      <point x="67" y="636" type="line" smooth="yes"/>
      <point x="126" y="631"/>
      <point x="128" y="614"/>
      <point x="128" y="508" type="curve" smooth="yes"/>
    </contour>
    <contour>
      <point x="206" y="706" type="line"/>
      <point x="213" y="708"/>
      <point x="219" y="719"/>
      <point x="216" y="730" type="curve"/>
      <point x="75" y="845" type="line"/>
      <point x="63" y="853"/>
      <point x="54" y="858"/>
      <point x="48" y="858" type="curve" smooth="yes"/>
      <point x="41" y="858"/>
      <point x="28" y="851"/>
      <point x="20" y="835" type="curve" smooth="yes"/>
      <point x="10" y="816"/>
      <point x="10" y="802"/>
      <point x="13" y="794" type="curve"/>
      <point x="17" y="789"/>
      <point x="24" y="784"/>
      <point x="39" y="778" type="curve" smooth="yes"/>
    </contour>
  </outline>
</glyph>
<glyph name="Idieresis" format="1">
  <advance width="338"/>
  <unicode hex="00CF"/>
  <outline>
    <contour>
      <point x="128" y="152" type="line" smooth="yes" name="hr01"/>
      <point x="128" y="46"/>
      <point x="126" y="32"/>
      <point x="67" y="25" type="curve" smooth="yes"/>
      <point x="42" y="22" type="line"/>
      <point x="36" y="16"/>
      <point x="38" y="0"/>
      <point x="44" y="-3" type="curve"/>
      <point x="94" y="-1"/>
      <point x="128" y="0"/>
      <point x="170" y="0" type="curve" smooth="yes" name="hr02"/>
      <point x="210" y="0"/>
      <point x="244" y="-1"/>
      <point x="294" y="-3" type="curve"/>
      <point x="300" y="0"/>
      <point x="302" y="18"/>
      <point x="296" y="22" type="curve"/>
      <point x="271" y="25" type="line" smooth="yes" name="hr03"/>
      <point x="212" y="32"/>
      <point x="210" y="46"/>
      <point x="210" y="152" type="curve" smooth="yes"/>
      <point x="210" y="508" type="line" smooth="yes"/>
      <point x="210" y="614"/>
      <point x="212" y="631"/>
      <point x="271" y="636" type="curve" smooth="yes"/>
      <point x="296" y="638" type="line" name="hr04"/>
      <point x="302" y="642"/>
      <point x="300" y="660"/>
      <point x="294" y="663" type="curve"/>
      <point x="244" y="661"/>
      <point x="210" y="660"/>
      <point x="170" y="660" type="curve" smooth="yes" name="hr05"/>
      <point x="128" y="660"/>
      <point x="94" y="661"/>
      <point x="44" y="663" type="curve"/>
      <point x="38" y="660"/>
      <point x="36" y="642"/>
      <point x="42" y="638" type="curve"/>
      <point x="67" y="636" type="line" smooth="yes"/>
      <point x="126" y="631"/>
      <point x="128" y="614"/>
      <point x="128" y="508" type="curve" smooth="yes"/>
    </contour>
    <contour>
      <point x="84" y="705" type="curve" smooth="yes" name="hr06"/>
      <point x="115" y="705"/>
      <point x="135" y="729"/>
      <point x="135" y="758" type="curve" smooth="yes"/>
      <point x="135" y="784"/>
      <point x="115" y="812"/>
      <point x="84" y="812" type="curve" smooth="yes"/>
      <point x="53" y="812"/>
      <point x="32" y="785"/>
      <point x="35" y="756" type="curve"/>
      <point x="35" y="722"/>
      <point x="53" y="705"/>
    </contour>
    <contour>
      <point x="270" y="705" type="curve" smooth="yes"/>
      <point x="301" y="705"/>
      <point x="318" y="729"/>
      <point x="318" y="758" type="curve" smooth="yes"/>
      <point x="318" y="784"/>
      <point x="301" y="812"/>
      <point x="270" y="812" type="curve" smooth="yes"/>
      <point x="239" y="812"/>
      <point x="218" y="785"/>
      <point x="218" y="756" type="curve" smooth="yes"/>
      <point x="219" y="722"/>
      <point x="240" y="705"/>
    </contour>
  </outline>
</glyph>
<glyph name="Ugrave" format="1">
  <advance width="746"/>
  <unicode hex="00D9"/>
  <outline>
    <contour>
      <point x="605" y="294" type="line" smooth="yes" name="hr00"/>
      <point x="605" y="142"/>
      <point x="550" y="28"/>
      <point x="405" y="28" type="curve" smooth="yes"/>
      <point x="252" y="28"/>
      <point x="202" y="134"/>
      <point x="202" y="295" type="curve" smooth="yes"/>
      <point x="202" y="511" type="line" smooth="yes"/>
      <point x="202" y="615"/>
      <point x="204" y="632"/>
      <point x="262" y="637" type="curve" smooth="yes"/>
      <point x="286" y="639" type="line"/>
      <point x="292" y="643"/>
      <point x="290" y="660"/>
      <point x="284" y="663" type="curve"/>
      <point x="235" y="661"/>
      <point x="202" y="660"/>
      <point x="161" y="660" type="curve" smooth="yes"/>
      <point x="121" y="660"/>
      <point x="87" y="661"/>
      <point x="37" y="663" type="curve"/>
      <point x="31" y="660"/>
      <point x="29" y="643"/>
      <point x="35" y="639" type="curve"/>
      <point x="60" y="637" type="line" smooth="yes"/>
      <point x="118" y="632"/>
      <point x="120" y="615"/>
      <point x="120" y="511" type="curve" smooth="yes"/>
      <point x="120" y="275" type="line" smooth="yes"/>
      <point x="120" y="156"/>
      <point x="145" y="83"/>
      <point x="198" y="39" type="curve" smooth="yes"/>
      <point x="247" y="-3"/>
      <point x="316" y="-16"/>
      <point x="385" y="-16" type="curve" smooth="yes"/>
      <point x="459" y="-16"/>
      <point x="533" y="10"/>
      <point x="576" y="57" type="curve" smooth="yes"/>
      <point x="632" y="117"/>
      <point x="646" y="209"/>
      <point x="646" y="296" type="curve" smooth="yes"/>
      <point x="646" y="409" type="line" smooth="yes"/>
      <point x="646" y="465"/>
      <point x="646" y="580"/>
      <point x="660" y="613" type="curve" smooth="yes"/>
      <point x="666" y="626"/>
      <point x="685" y="635"/>
      <point x="710" y="637" type="curve" smooth="yes"/>
      <point x="734" y="639" type="line"/>
      <point x="739" y="645"/>
      <point x="740" y="658"/>
      <point x="732" y="663" type="curve"/>
      <point x="696" y="661"/>
      <point x="669" y="660"/>
      <point x="627" y="660" type="curve" smooth="yes"/>
      <point x="588" y="660"/>
      <point x="551" y="661"/>
      <point x="513" y="663" type="curve"/>
      <point x="507" y="659"/>
      <point x="505" y="646"/>
      <point x="511" y="639" type="curve"/>
      <point x="536" y="637" type="line" smooth="yes"/>
      <point x="561" y="635"/>
      <point x="579" y="628"/>
      <point x="586" y="616" type="curve" smooth="yes"/>
      <point x="603" y="586"/>
      <point x="605" y="471"/>
      <point x="605" y="409" type="curve" smooth="yes"/>
    </contour>
    <contour>
      <point x="435" y="706" type="line"/>
      <point x="442" y="708"/>
      <point x="448" y="719"/>
      <point x="445" y="730" type="curve"/>
      <point x="304" y="845" type="line"/>
      <point x="292" y="853"/>
      <point x="283" y="858"/>
      <point x="277" y="858" type="curve" smooth="yes"/>
      <point x="270" y="858"/>
      <point x="257" y="851"/>
      <point x="249" y="835" type="curve" smooth="yes"/>
      <point x="239" y="816"/>
      <point x="239" y="802"/>
      <point x="243" y="794" type="curve" smooth="yes"/>
      <point x="246" y="789"/>
      <point x="254" y="784"/>
      <point x="268" y="778" type="curve" smooth="yes"/>
    </contour>
  </outline>
</glyph>
<glyph name="edieresis" format="1">
  <advance width="396"/>
  <unicode hex="00EB"/>
  <outline>
    <contour>
      <point x="315" y="256" type="line" smooth="yes" name="hr01"/>
      <point x="357" y="256"/>
      <point x="371" y="257"/>
      <point x="374" y="263" type="curve" smooth="yes"/>
      <point x="376" y="267"/>
      <point x="378" y="275"/>
      <point x="378" y="289" type="curve" smooth="yes"/>
      <point x="378" y="349"/>
      <point x="322" y="408"/>
      <point x="236" y="408" type="curve" smooth="yes"/>
      <point x="116" y="408"/>
      <point x="35" y="305"/>
      <point x="35" y="182" type="curve" smooth="yes"/>
      <point x="35" y="138"/>
      <point x="47" y="91"/>
      <point x="77" y="52" type="curve" smooth="yes"/>
      <point x="106" y="14"/>
      <point x="157" y="-14"/>
      <point x="222" y="-14" type="curve" smooth="yes"/>
      <point x="274" y="-14"/>
      <point x="346" y="11"/>
      <point x="379" y="79" type="curve"/>
      <point x="378" y="88"/>
      <point x="371" y="94"/>
      <point x="361" y="91" type="curve"/>
      <point x="330" y="52"/>
      <point x="302" y="42"/>
      <point x="269" y="42" type="curve" smooth="yes"/>
      <point x="162" y="42"/>
      <point x="103" y="128"/>
      <point x="103" y="229" type="curve" smooth="yes"/>
      <point x="103" y="254"/>
      <point x="104" y="256"/>
      <point x="130" y="256" type="curve" smooth="yes"/>
    </contour>
    <contour>
      <point x="121" y="286" type="line" smooth="yes"/>
      <point x="114" y="286"/>
      <point x="114" y="289"/>
      <point x="114" y="291" type="curve" smooth="yes"/>
      <point x="115" y="324"/>
      <point x="166" y="378"/>
      <point x="225" y="378" type="curve" smooth="yes"/>
      <point x="283" y="378"/>
      <point x="302" y="343"/>
      <point x="302" y="315" type="curve" smooth="yes"/>
      <point x="302" y="302"/>
      <point x="299" y="298"/>
      <point x="296" y="296" type="curve" smooth="yes"/>
      <point x="288" y="290"/>
      <point x="266" y="286"/>
      <point x="192" y="286" type="curve" smooth="yes"/>
    </contour>
    <contour>
      <point x="145" y="502" type="curve" smooth="yes" name="hr02"/>
      <point x="173" y="502"/>
      <point x="193" y="523"/>
      <point x="193" y="552" type="curve" smooth="yes"/>
      <point x="193" y="575"/>
      <point x="173" y="598"/>
      <point x="145" y="598" type="curve" smooth="yes"/>
      <point x="117" y="598"/>
      <point x="97" y="576"/>
      <point x="98" y="549" type="curve" smooth="yes"/>
      <point x="99" y="519"/>
      <point x="118" y="502"/>
    </contour>
    <contour>
      <point x="310" y="502" type="curve" smooth="yes"/>
      <point x="338" y="502"/>
      <point x="356" y="524"/>
      <point x="356" y="553" type="curve" smooth="yes"/>
      <point x="356" y="575"/>
      <point x="338" y="598"/>
      <point x="310" y="598" type="curve" smooth="yes"/>
      <point x="282" y="598"/>
      <point x="261" y="576"/>
      <point x="261" y="550" type="curve" smooth="yes"/>
      <point x="262" y="520"/>
      <point x="283" y="502"/>
    </contour>
  </outline>
</glyph>
<glyph name="icircumflex" format="1">
  <advance width="257"/>
  <unicode hex="00EE"/>
  <outline>
    <contour>
      <point x="98" y="112" type="line" smooth="yes" name="hr00"/>
      <point x="98" y="40"/>
      <point x="97" y="30"/>
      <point x="60" y="25" type="curve" smooth="yes"/>
      <point x="39" y="22" type="line"/>
      <point x="32" y="17"/>
      <point x="34" y="0"/>
      <point x="41" y="-3" type="curve"/>
      <point x="69" y="-1"/>
      <point x="99" y="0"/>
      <point x="135" y="0" type="curve" smooth="yes"/>
      <point x="170" y="0"/>
      <point x="199" y="-1"/>
      <point x="229" y="-3" type="curve"/>
      <point x="236" y="0"/>
      <point x="238" y="17"/>
      <point x="231" y="22" type="curve"/>
      <point x="210" y="25" type="line" smooth="yes"/>
      <point x="174" y="30"/>
      <point x="172" y="40"/>
      <point x="172" y="112" type="curve" smooth="yes"/>
      <point x="172" y="292" type="line" smooth="yes"/>
      <point x="172" y="333"/>
      <point x="174" y="381"/>
      <point x="176" y="416" type="curve"/>
      <point x="175" y="420"/>
      <point x="171" y="422"/>
      <point x="166" y="422" type="curve"/>
      <point x="143" y="407"/>
      <point x="86" y="381"/>
      <point x="63" y="373" type="curve"/>
      <point x="58" y="370"/>
      <point x="58" y="359"/>
      <point x="62" y="355" type="curve"/>
      <point x="71" y="349" type="line" smooth="yes"/>
      <point x="98" y="331"/>
      <point x="98" y="326"/>
      <point x="98" y="287" type="curve" smooth="yes"/>
    </contour>
    <contour>
      <point x="218" y="455" type="line"/>
      <point x="223" y="453"/>
      <point x="239" y="458"/>
      <point x="240" y="464" type="curve"/>
      <point x="149" y="641" type="line" smooth="yes"/>
      <point x="138" y="662"/>
      <point x="125" y="662"/>
      <point x="114" y="641" type="curve" smooth="yes"/>
      <point x="24" y="464" type="line"/>
      <point x="25" y="458"/>
      <point x="38" y="453"/>
      <point x="44" y="455" type="curve"/>
      <point x="118" y="547" type="line" smooth="yes"/>
      <point x="130" y="562"/>
      <point x="133" y="562"/>
      <point x="145" y="547" type="curve" smooth="yes"/>
    </contour>
  </outline>
</glyph>
<glyph name="ocircumflex" format="1">
  <advance width="486"/>
  <unicode hex="00F4"/>
  <outline>
    <contour>
      <point x="248" y="408" type="curve" smooth="yes" name="hr00"/>
      <point x="130" y="408"/>
      <point x="35" y="318"/>
      <point x="35" y="192" type="curve" smooth="yes"/>
      <point x="35" y="67"/>
      <point x="125" y="-14"/>
      <point x="240" y="-14" type="curve" smooth="yes"/>
      <point x="365" y="-14"/>
      <point x="451" y="76"/>
      <point x="451" y="201" type="curve" smooth="yes"/>
      <point x="451" y="324"/>
      <point x="360" y="408"/>
    </contour>
    <contour>
      <point x="365" y="185" type="curve" smooth="yes"/>
      <point x="365" y="108"/>
      <point x="338" y="16"/>
      <point x="250" y="16" type="curve" smooth="yes"/>
      <point x="162" y="16"/>
      <point x="121" y="114"/>
      <point x="121" y="205" type="curve" smooth="yes"/>
      <point x="121" y="315"/>
      <point x="170" y="378"/>
      <point x="236" y="378" type="curve" smooth="yes"/>
      <point x="331" y="378"/>
      <point x="365" y="270"/>
    </contour>
    <contour>
      <point x="326" y="455" type="line"/>
      <point x="331" y="453"/>
      <point x="347" y="458"/>
      <point x="348" y="464" type="curve"/>
      <point x="257" y="641" type="line" smooth="yes"/>
      <point x="246" y="662"/>
      <point x="233" y="662"/>
      <point x="222" y="641" type="curve" smooth="yes"/>
      <point x="132" y="464" type="line"/>
      <point x="133" y="458"/>
      <point x="146" y="453"/>
      <point x="152" y="455" type="curve"/>
      <point x="226" y="547" type="line" smooth="yes"/>
      <point x="238" y="562"/>
      <point x="241" y="562"/>
      <point x="253" y="547" type="curve" smooth="yes"/>
    </contour>
  </outline>
</glyph>
<glyph name="divide" format="1">
  <advance width="500"/>
  <unicode hex="00F7"/>
  <outline>
    <contour>
      <point x="248" y="128" type="curve" smooth="yes" name="hr00"/>
      <point x="223" y="128"/>
      <point x="203" y="108"/>
      <point x="203" y="84" type="curve" smooth="yes"/>
      <point x="203" y="59"/>
      <point x="223" y="39"/>
      <point x="248" y="39" type="curve" smooth="yes"/>
      <point x="271" y="39"/>
      <point x="292" y="59"/>
      <point x="292" y="84" type="curve" smooth="yes"/>
      <point x="292" y="108"/>
      <point x="271" y="128"/>
    </contour>
    <contour>
      <point x="248" y="283" type="curve" smooth="yes"/>
      <point x="271" y="283"/>
      <point x="292" y="303"/>
      <point x="292" y="328" type="curve" smooth="yes"/>
      <point x="292" y="352"/>
      <point x="271" y="372"/>
      <point x="248" y="372" type="curve" smooth="yes"/>
      <point x="223" y="372"/>
      <point x="203" y="352"/>
      <point x="203" y="328" type="curve" smooth="yes"/>
      <point x="203" y="303"/>
      <point x="223" y="283"/>
    </contour>
    <contour>
      <point x="443" y="230" type="line"/>
      <point x="58" y="230" type="line"/>
      <point x="58" y="181" type="line"/>
      <point x="443" y="181" type="line"/>
    </contour>
  </outline>
</glyph>
<glyph name="Aogonek" format="1">
  <advance width="623"/>
  <unicode hex="0104"/>
  <outline>
    <contour>
      <point x="366" y="257" type="line" smooth="yes" name="hr01"/>
      <point x="396" y="257"/>
      <point x="400" y="254"/>
      <point x="407" y="232" type="curve" smooth="yes"/>
      <point x="451" y="96" type="line" smooth="yes"/>
      <point x="459" y="72"/>
      <point x="464" y="54"/>
      <point x="464" y="43" type="curve" smooth="yes"/>
      <point x="464" y="33"/>
      <point x="450" y="27"/>
      <point x="429" y="25" type="curve" smooth="yes"/>
      <point x="400" y="22" type="line"/>
      <point x="393" y="17"/>
      <point x="394" y="1"/>
      <point x="402" y="-3" type="curve"/>
      <point x="422" y="-2"/>
      <point x="496" y="-1"/>
      <point x="531" y="-1" type="curve"/>
      <point x="458" y="-40"/>
      <point x="422" y="-99"/>
      <point x="422" y="-137" type="curve" smooth="yes"/>
      <point x="422" y="-188"/>
      <point x="458" y="-223"/>
      <point x="511" y="-223" type="curve" smooth="yes"/>
      <point x="547" y="-223"/>
      <point x="588" y="-210"/>
      <point x="613" y="-179" type="curve"/>
      <point x="613" y="-170"/>
      <point x="610" y="-165"/>
      <point x="605" y="-162" type="curve"/>
      <point x="592" y="-169"/>
      <point x="572" y="-174"/>
      <point x="560" y="-174" type="curve" smooth="yes"/>
      <point x="523" y="-174"/>
      <point x="494" y="-158"/>
      <point x="494" y="-114" type="curve" smooth="yes"/>
      <point x="494" y="-79"/>
      <point x="519" y="-35"/>
      <point x="570" y="0" type="curve" name="hr02"/>
      <point x="581" y="0" type="line" smooth="yes"/>
      <point x="588" y="0"/>
      <point x="619" y="-2"/>
      <point x="638" y="-3" type="curve" name="hr03"/>
      <point x="643" y="1"/>
      <point x="645" y="17"/>
      <point x="638" y="22" type="curve"/>
      <point x="611" y="25" type="line" smooth="yes"/>
      <point x="568" y="30"/>
      <point x="555" y="45"/>
      <point x="526" y="131" type="curve" smooth="yes"/>
      <point x="389" y="533" type="line" smooth="yes"/>
      <point x="374" y="577"/>
      <point x="358" y="623"/>
      <point x="345" y="667" type="curve" smooth="yes"/>
      <point x="343" y="674"/>
      <point x="336" y="676"/>
      <point x="330" y="676" type="curve"/>
      <point x="319" y="663"/>
      <point x="302" y="645"/>
      <point x="278" y="638" type="curve"/>
      <point x="281" y="622"/>
      <point x="275" y="603"/>
      <point x="261" y="567" type="curve" smooth="yes"/>
      <point x="159" y="297" type="line" smooth="yes"/>
      <point x="117" y="185"/>
      <point x="89" y="120"/>
      <point x="71" y="74" type="curve" smooth="yes"/>
      <point x="57" y="38"/>
      <point x="35" y="27"/>
      <point x="11" y="25" type="curve" smooth="yes"/>
      <point x="-22" y="22" type="line"/>
      <point x="-28" y="17"/>
      <point x="-26" y="1"/>
      <point x="-20" y="-3" type="curve"/>
      <point x="7" y="-2"/>
      <point x="43" y="0"/>
      <point x="76" y="0" type="curve" smooth="yes"/>
      <point x="123" y="-1"/>
      <point x="154" y="-1"/>
      <point x="180" y="-3" type="curve"/>
      <point x="189" y="1"/>
      <point x="189" y="17"/>
      <point x="182" y="22" type="curve"/>
      <point x="149" y="25" type="line" smooth="yes"/>
      <point x="125" y="27"/>
      <point x="120" y="33"/>
      <point x="120" y="45" type="curve" smooth="yes"/>
      <point x="120" y="56"/>
      <point x="127" y="83"/>
      <point x="142" y="128" type="curve" smooth="yes"/>
      <point x="177" y="233" type="line" smooth="yes"/>
      <point x="184" y="254"/>
      <point x="190" y="257"/>
      <point x="215" y="257" type="curve" smooth="yes"/>
    </contour>
    <contour>
      <point x="230" y="297" type="line" smooth="yes"/>
      <point x="202" y="297"/>
      <point x="201" y="298"/>
      <point x="209" y="321" type="curve" smooth="yes"/>
      <point x="272" y="495" type="line" smooth="yes"/>
      <point x="283" y="525"/>
      <point x="293" y="549"/>
      <point x="296" y="554" type="curve"/>
      <point x="298" y="554" type="line"/>
      <point x="304" y="542"/>
      <point x="313" y="515"/>
      <point x="321" y="491" type="curve" smooth="yes"/>
      <point x="375" y="328" type="line" smooth="yes"/>
      <point x="384" y="301"/>
      <point x="382" y="297"/>
      <point x="353" y="297" type="curve" smooth="yes"/>
    </contour>
  </outline>
</glyph>
<glyph name="cacute" format="1">
  <advance width="400"/>
  <unicode hex="0107"/>
  <outline>
    <contour>
      <point x="278" y="408" type="curve" smooth="yes" name="hr00"/>
      <point x="112" y="408"/>
      <point x="36" y="293"/>
      <point x="36" y="185" type="curve" smooth="yes"/>
      <point x="36" y="120"/>
      <point x="59" y="71"/>
      <point x="94" y="37" type="curve" smooth="yes"/>
      <point x="129" y="3"/>
      <point x="178" y="-14"/>
      <point x="231" y="-14" type="curve" smooth="yes"/>
      <point x="289" y="-14"/>
      <point x="364" y="14"/>
      <point x="398" y="88" type="curve"/>
      <point x="397" y="97"/>
      <point x="388" y="104"/>
      <point x="380" y="102" type="curve"/>
      <point x="357" y="68"/>
      <point x="327" y="42"/>
      <point x="269" y="42" type="curve" smooth="yes"/>
      <point x="162" y="42"/>
      <point x="108" y="135"/>
      <point x="108" y="213" type="curve" smooth="yes"/>
      <point x="108" y="319"/>
      <point x="176" y="374"/>
      <point x="246" y="374" type="curve" smooth="yes"/>
      <point x="287" y="374"/>
      <point x="324" y="348"/>
      <point x="346" y="321" type="curve" smooth="yes"/>
      <point x="350" y="316"/>
      <point x="355" y="314"/>
      <point x="360" y="314" type="curve" smooth="yes"/>
      <point x="372" y="314"/>
      <point x="382" y="333"/>
      <point x="382" y="351" type="curve" smooth="yes"/>
      <point x="382" y="368"/>
      <point x="375" y="384"/>
      <point x="367" y="391" type="curve"/>
      <point x="340" y="403"/>
      <point x="301" y="408"/>
    </contour>
    <contour>
      <point x="325" y="581" type="line" smooth="yes"/>
      <point x="335" y="591"/>
      <point x="341" y="602"/>
      <point x="341" y="608" type="curve" smooth="yes"/>
      <point x="341" y="616"/>
      <point x="334" y="626"/>
      <point x="324" y="634" type="curve" smooth="yes"/>
      <point x="312" y="644"/>
      <point x="300" y="649"/>
      <point x="293" y="649" type="curve" smooth="yes"/>
      <point x="283" y="649"/>
      <point x="275" y="636"/>
      <point x="269" y="625" type="curve" smooth="yes"/>
      <point x="183" y="462" type="line"/>
      <point x="184" y="455"/>
      <point x="193" y="450"/>
      <point x="200" y="451" type="curve"/>
    </contour>
  </outline>
</glyph>
<glyph name="uni013B" format="1">
  <advance width="553"/>
  <unicode hex="013B"/>
  <outline>
    <contour>
      <point x="128" y="150" type="line" smooth="yes" name="hr01"/>
      <point x="128" y="45"/>
      <point x="126" y="31"/>
      <point x="68" y="25" type="curve" smooth="yes" name="hr02"/>
      <point x="38" y="22" type="line"/>
      <point x="32" y="16"/>
      <point x="34" y="0"/>
      <point x="40" y="-3" type="curve" name="hr03"/>
      <point x="96" y="-1"/>
      <point x="128" y="0"/>
      <point x="170" y="0" type="curve" smooth="yes" name="hr04"/>
      <point x="262" y="0" type="line" smooth="yes"/>
      <point x="365" y="0"/>
      <point x="460" y="-1"/>
      <point x="511" y="-3" type="curve"/>
      <point x="525" y="24"/>
      <point x="553" y="126"/>
      <point x="553" y="137" type="curve" smooth="yes"/>
      <point x="553" y="144"/>
      <point x="534" y="148"/>
      <point x="528" y="143" type="curve"/>
      <point x="508" y="92"/>
      <point x="482" y="56"/>
      <point x="462" y="44" type="curve" smooth="yes"/>
      <point x="446" y="35"/>
      <point x="425" y="31"/>
      <point x="340" y="31" type="curve" smooth="yes"/>
      <point x="261" y="31"/>
      <point x="242" y="43"/>
      <point x="231" y="54" type="curve" smooth="yes"/>
      <point x="213" y="73"/>
      <point x="210" y="99"/>
      <point x="210" y="162" type="curve" smooth="yes"/>
      <point x="210" y="510" type="line" smooth="yes"/>
      <point x="210" y="615"/>
      <point x="212" y="631"/>
      <point x="271" y="636" type="curve" smooth="yes"/>
      <point x="295" y="638" type="line"/>
      <point x="301" y="642"/>
      <point x="299" y="660"/>
      <point x="293" y="663" type="curve"/>
      <point x="243" y="661"/>
      <point x="209" y="660"/>
      <point x="170" y="660" type="curve" smooth="yes"/>
      <point x="130" y="660"/>
      <point x="96" y="661"/>
      <point x="40" y="663" type="curve"/>
      <point x="34" y="660"/>
      <point x="32" y="642"/>
      <point x="38" y="638" type="curve"/>
      <point x="63" y="636" type="line" smooth="yes"/>
      <point x="126" y="631"/>
      <point x="128" y="615"/>
      <point x="128" y="510" type="curve" smooth="yes"/>
    </contour>
    <contour>
      <point x="294" y="-58" type="curve" smooth="yes"/>
      <point x="264" y="-58"/>
      <point x="247" y="-77"/>
      <point x="247" y="-96" type="curve" smooth="yes"/>
      <point x="247" y="-106"/>
      <point x="252" y="-115"/>
      <point x="264" y="-121" type="curve" smooth="yes"/>
      <point x="272" y="-125"/>
      <point x="310" y="-137"/>
      <point x="310" y="-168" type="curve" smooth="yes"/>
      <point x="310" y="-207"/>
      <point x="267" y="-230"/>
      <point x="241" y="-238" type="curve"/>
      <point x="236" y="-242"/>
      <point x="237" y="-265"/>
      <point x="246" y="-269" type="curve"/>
      <point x="311" y="-251"/>
      <point x="367" y="-212"/>
      <point x="367" y="-141" type="curve" smooth="yes"/>
      <point x="367" y="-85"/>
      <point x="325" y="-58"/>
    </contour>
  </outline>
</glyph>
<glyph name="Lslash" format="1">
  <advance width="559"/>
  <unicode hex="0141"/>
  <outline>
    <contour>
      <point x="134" y="150" type="line" smooth="yes" name="hr01"/>
      <point x="134" y="45"/>
      <point x="132" y="31"/>
      <point x="74" y="25" type="curve" smooth="yes" name="hr02"/>
      <point x="44" y="22" type="line"/>
      <point x="38" y="16"/>
      <point x="40" y="0"/>
      <point x="46" y="-3" type="curve" name="hr03"/>
      <point x="102" y="-1"/>
      <point x="134" y="0"/>
      <point x="176" y="0" type="curve" smooth="yes" name="hr04"/>
      <point x="268" y="0" type="line" smooth="yes"/>
      <point x="371" y="0"/>
      <point x="466" y="-1"/>
      <point x="517" y="-3" type="curve"/>
      <point x="531" y="24"/>
      <point x="559" y="126"/>
      <point x="559" y="137" type="curve" smooth="yes"/>
      <point x="559" y="144"/>
      <point x="540" y="148"/>
      <point x="534" y="143" type="curve"/>
      <point x="514" y="92"/>
      <point x="488" y="56"/>
      <point x="468" y="44" type="curve" smooth="yes"/>
      <point x="452" y="35"/>
      <point x="431" y="31"/>
      <point x="346" y="31" type="curve" smooth="yes"/>
      <point x="267" y="31"/>
      <point x="248" y="43"/>
      <point x="237" y="54" type="curve" smooth="yes"/>
      <point x="219" y="73"/>
      <point x="216" y="99"/>
      <point x="216" y="162" type="curve" smooth="yes"/>
      <point x="216" y="313" type="line"/>
      <point x="388" y="399" type="line"/>
      <point x="392" y="412"/>
      <point x="387" y="426"/>
      <point x="375" y="431" type="curve"/>
      <point x="216" y="354" type="line"/>
      <point x="216" y="510" type="line" smooth="yes"/>
      <point x="216" y="615"/>
      <point x="218" y="631"/>
      <point x="277" y="636" type="curve" smooth="yes"/>
      <point x="301" y="638" type="line"/>
      <point x="307" y="642"/>
      <point x="305" y="660"/>
      <point x="299" y="663" type="curve"/>
      <point x="249" y="661"/>
      <point x="215" y="660"/>
      <point x="176" y="660" type="curve" smooth="yes"/>
      <point x="136" y="660"/>
      <point x="102" y="661"/>
      <point x="46" y="663" type="curve"/>
      <point x="40" y="660"/>
      <point x="38" y="642"/>
      <point x="44" y="638" type="curve"/>
      <point x="69" y="636" type="line" smooth="yes"/>
      <point x="132" y="631"/>
      <point x="134" y="615"/>
      <point x="134" y="510" type="curve" smooth="yes"/>
      <point x="134" y="313" type="line"/>
      <point x="30" y="265" type="line"/>
      <point x="28" y="251"/>
      <point x="31" y="235"/>
      <point x="44" y="232" type="curve"/>
      <point x="134" y="276" type="line"/>
    </contour>
  </outline>
</glyph>
<glyph name="uni0146" format="1">
  <advance width="525"/>
  <unicode hex="0146"/>
  <outline>
    <contour>
      <point x="98" y="112" type="line" smooth="yes" name="hr00"/>
      <point x="98" y="40"/>
      <point x="97" y="30"/>
      <point x="60" y="25" type="curve" smooth="yes"/>
      <point x="39" y="22" type="line"/>
      <point x="32" y="17"/>
      <point x="34" y="0"/>
      <point x="41" y="-3" type="curve"/>
      <point x="69" y="-1"/>
      <point x="99" y="0"/>
      <point x="135" y="0" type="curve" smooth="yes"/>
      <point x="170" y="0"/>
      <point x="199" y="-1"/>
      <point x="226" y="-3" type="curve"/>
      <point x="233" y="0"/>
      <point x="235" y="17"/>
      <point x="228" y="22" type="curve"/>
      <point x="210" y="25" type="line" smooth="yes"/>
      <point x="174" y="31"/>
      <point x="172" y="40"/>
      <point x="172" y="112" type="curve" smooth="yes"/>
      <point x="172" y="265" type="line" smooth="yes"/>
      <point x="172" y="294"/>
      <point x="174" y="308"/>
      <point x="187" y="325" type="curve" smooth="yes"/>
      <point x="201" y="344"/>
      <point x="234" y="360"/>
      <point x="272" y="360" type="curve" smooth="yes"/>
      <point x="340" y="360"/>
      <point x="366" y="318"/>
      <point x="366" y="261" type="curve" smooth="yes"/>
      <point x="366" y="112" type="line" smooth="yes"/>
      <point x="366" y="40"/>
      <point x="365" y="31"/>
      <point x="328" y="25" type="curve" smooth="yes"/>
      <point x="309" y="22" type="line"/>
      <point x="302" y="17"/>
      <point x="304" y="0"/>
      <point x="311" y="-3" type="curve"/>
      <point x="338" y="-1"/>
      <point x="368" y="0"/>
      <point x="404" y="0" type="curve" smooth="yes"/>
      <point x="439" y="0"/>
      <point x="468" y="-1"/>
      <point x="498" y="-3" type="curve"/>
      <point x="505" y="0"/>
      <point x="507" y="17"/>
      <point x="500" y="22" type="curve"/>
      <point x="478" y="25" type="line" smooth="yes"/>
      <point x="442" y="30"/>
      <point x="440" y="40"/>
      <point x="440" y="112" type="curve" smooth="yes"/>
      <point x="440" y="284" type="line" smooth="yes"/>
      <point x="440" y="351"/>
      <point x="406" y="408"/>
      <point x="323" y="408" type="curve" smooth="yes"/>
      <point x="272" y="408"/>
      <point x="225" y="383"/>
      <point x="183" y="357" type="curve"/>
      <point x="176" y="357"/>
      <point x="172" y="362"/>
      <point x="172" y="368" type="curve" smooth="yes"/>
      <point x="172" y="377"/>
      <point x="172" y="392"/>
      <point x="174" y="415" type="curve"/>
      <point x="172" y="420"/>
      <point x="167" y="422"/>
      <point x="163" y="422" type="curve"/>
      <point x="143" y="407"/>
      <point x="86" y="381"/>
      <point x="63" y="373" type="curve"/>
      <point x="58" y="370"/>
      <point x="58" y="359"/>
      <point x="62" y="355" type="curve"/>
      <point x="71" y="349" type="line" smooth="yes"/>
      <point x="98" y="331"/>
      <point x="98" y="326"/>
      <point x="98" y="287" type="curve" smooth="yes"/>
    </contour>
    <contour>
      <point x="251" y="-58" type="curve" smooth="yes"/>
      <point x="224" y="-58"/>
      <point x="209" y="-77"/>
      <point x="209" y="-96" type="curve" smooth="yes"/>
      <point x="209" y="-106"/>
      <point x="213" y="-115"/>
      <point x="224" y="-121" type="curve" smooth="yes"/>
      <point x="231" y="-125"/>
      <point x="266" y="-137"/>
      <point x="266" y="-168" type="curve" smooth="yes"/>
      <point x="266" y="-207"/>
      <point x="227" y="-230"/>
      <point x="203" y="-238" type="curve"/>
      <point x="199" y="-242"/>
      <point x="200" y="-265"/>
      <point x="208" y="-269" type="curve"/>
      <point x="267" y="-251"/>
      <point x="318" y="-212"/>
      <point x="318" y="-141" type="curve" smooth="yes"/>
      <point x="318" y="-85"/>
      <point x="280" y="-58"/>
    </contour>
  </outline>
</glyph>
<glyph name="omacron" format="1">
  <advance width="486"/>
  <unicode hex="014D"/>
  <outline>
    <contour>
      <point x="248" y="408" type="curve" smooth="yes" name="hr01"/>
      <point x="130" y="408"/>
      <point x="35" y="318"/>
      <point x="35" y="192" type="curve" smooth="yes"/>
      <point x="35" y="67"/>
      <point x="125" y="-14"/>
      <point x="240" y="-14" type="curve" smooth="yes"/>
      <point x="365" y="-14"/>
      <point x="451" y="76"/>
      <point x="451" y="201" type="curve" smooth="yes"/>
      <point x="451" y="324"/>
      <point x="360" y="408"/>
    </contour>
    <contour>
      <point x="365" y="185" type="curve" smooth="yes"/>
      <point x="365" y="108"/>
      <point x="338" y="16"/>
      <point x="250" y="16" type="curve" smooth="yes"/>
      <point x="162" y="16"/>
      <point x="121" y="114"/>
      <point x="121" y="205" type="curve" smooth="yes"/>
      <point x="121" y="315"/>
      <point x="170" y="378"/>
      <point x="236" y="378" type="curve" smooth="yes"/>
      <point x="331" y="378"/>
      <point x="365" y="270"/>
    </contour>
    <contour>
      <point x="353" y="504" type="line" name="hr02"/>
      <point x="362" y="518"/>
      <point x="362" y="551"/>
      <point x="353" y="565" type="curve"/>
      <point x="139" y="565" type="line"/>
      <point x="128" y="551"/>
      <point x="128" y="518"/>
      <point x="139" y="504" type="curve"/>
    </contour>
  </outline>
</glyph>
<glyph name="ohungarumlaut" format="1">
  <advance width="486"/>
  <unicode hex="0151"/>
  <outline>
    <contour>
      <point x="248" y="408" type="curve" smooth="yes" name="hr00"/>
      <point x="130" y="408"/>
      <point x="35" y="318"/>
      <point x="35" y="192" type="curve" smooth="yes"/>
      <point x="35" y="67"/>
      <point x="125" y="-14"/>
      <point x="240" y="-14" type="curve" smooth="yes"/>
      <point x="365" y="-14"/>
      <point x="451" y="76"/>
      <point x="451" y="201" type="curve" smooth="yes"/>
      <point x="451" y="324"/>
      <point x="360" y="408"/>
    </contour>
    <contour>
      <point x="365" y="185" type="curve" smooth="yes"/>
      <point x="365" y="108"/>
      <point x="338" y="16"/>
      <point x="250" y="16" type="curve" smooth="yes"/>
      <point x="162" y="16"/>
      <point x="121" y="114"/>
      <point x="121" y="205" type="curve" smooth="yes"/>
      <point x="121" y="315"/>
      <point x="170" y="378"/>
      <point x="236" y="378" type="curve" smooth="yes"/>
      <point x="331" y="378"/>
      <point x="365" y="270"/>
    </contour>
    <contour>
      <point x="258" y="594" type="line" smooth="yes"/>
      <point x="266" y="605"/>
      <point x="270" y="618"/>
      <point x="269" y="625" type="curve" smooth="yes"/>
      <point x="268" y="633"/>
      <point x="262" y="639"/>
      <point x="253" y="645" type="curve" smooth="yes"/>
      <point x="238" y="653"/>
      <point x="229" y="658"/>
      <point x="221" y="656" type="curve" smooth="yes"/>
      <point x="214" y="655"/>
      <point x="209" y="645"/>
      <point x="204" y="634" type="curve"/>
      <point x="149" y="471" type="line"/>
      <point x="149" y="463"/>
      <point x="159" y="459"/>
      <point x="166" y="460" type="curve"/>
    </contour>
    <contour>
      <point x="390" y="594" type="line" smooth="yes"/>
      <point x="397" y="605"/>
      <point x="402" y="618"/>
      <point x="401" y="626" type="curve" smooth="yes"/>
      <point x="400" y="634"/>
      <point x="394" y="641"/>
      <point x="385" y="645" type="curve" smooth="yes"/>
      <point x="370" y="653"/>
      <point x="361" y="658"/>
      <point x="353" y="657" type="curve"/>
      <point x="347" y="655"/>
      <point x="341" y="645"/>
      <point x="336" y="634" type="curve"/>
      <point x="281" y="471" type="line"/>
      <point x="280" y="463"/>
      <point x="291" y="459"/>
      <point x="298" y="460" type="curve"/>
    </contour>
  </outline>
</glyph>
<glyph name="uni015F" format="1">
  <advance width="323"/>
  <unicode hex="015F"/>
  <outline>
    <contour>
      <point x="106" y="-87" type="line"/>
      <point x="106" y="-92" type="line"/>
      <point x="137" y="-104"/>
      <point x="161" y="-128"/>
      <point x="161" y="-151" type="curve" smooth="yes"/>
      <point x="161" y="-172"/>
      <point x="148" y="-179"/>
      <point x="137" y="-179" type="curve" smooth="yes"/>
      <point x="125" y="-179"/>
      <point x="108" y="-153"/>
      <point x="91" y="-153" type="curve" smooth="yes"/>
      <point x="77" y="-153"/>
      <point x="69" y="-166"/>
      <point x="69" y="-176" type="curve" smooth="yes"/>
      <point x="69" y="-194"/>
      <point x="87" y="-207"/>
      <point x="120" y="-207" type="curve" smooth="yes"/>
      <point x="166" y="-207"/>
      <point x="212" y="-174"/>
      <point x="212" y="-129" type="curve" smooth="yes"/>
      <point x="212" y="-103"/>
      <point x="195" y="-82"/>
      <point x="171" y="-66" type="curve" smooth="yes"/>
      <point x="160" y="-59"/>
      <point x="159" y="-52"/>
      <point x="163" y="-45" type="curve" smooth="yes"/>
      <point x="185" y="-10" type="line"/>
      <point x="244" y="0"/>
      <point x="293" y="37"/>
      <point x="293" y="100" type="curve" smooth="yes" name="hr01"/>
      <point x="293" y="171"/>
      <point x="244" y="205"/>
      <point x="191" y="235" type="curve" smooth="yes"/>
      <point x="156" y="255"/>
      <point x="114" y="277"/>
      <point x="114" y="318" type="curve" smooth="yes"/>
      <point x="114" y="354"/>
      <point x="139" y="379"/>
      <point x="178" y="379" type="curve" smooth="yes"/>
      <point x="219" y="379"/>
      <point x="249" y="350"/>
      <point x="266" y="306" type="curve"/>
      <point x="271" y="300"/>
      <point x="286" y="302"/>
      <point x="290" y="309" type="curve"/>
      <point x="290" y="336"/>
      <point x="283" y="368"/>
      <point x="274" y="390" type="curve"/>
      <point x="265" y="398"/>
      <point x="228" y="408"/>
      <point x="186" y="408" type="curve" smooth="yes"/>
      <point x="110" y="408"/>
      <point x="50" y="367"/>
      <point x="50" y="294" type="curve" smooth="yes"/>
      <point x="50" y="239"/>
      <point x="91" y="204"/>
      <point x="149" y="171" type="curve" smooth="yes"/>
      <point x="186" y="150"/>
      <point x="226" y="125"/>
      <point x="226" y="79" type="curve" smooth="yes"/>
      <point x="226" y="36"/>
      <point x="195" y="15"/>
      <point x="159" y="15" type="curve" smooth="yes"/>
      <point x="102" y="15"/>
      <point x="70" y="63"/>
      <point x="53" y="118" type="curve"/>
      <point x="48" y="124"/>
      <point x="35" y="123"/>
      <point x="30" y="117" type="curve"/>
      <point x="28" y="84"/>
      <point x="34" y="35"/>
      <point x="42" y="16" type="curve"/>
      <point x="67" y="-4"/>
      <point x="102" y="-14"/>
      <point x="149" y="-14" type="curve" smooth="yes" name="hr02"/>
      <point x="152" y="-14" type="line"/>
    </contour>
  </outline>
</glyph>
<glyph name="Uhungarumlaut" format="1">
  <advance width="746"/>
  <unicode hex="0170"/>
  <outline>
    <contour>
      <point x="605" y="294" type="line" smooth="yes" name="hr00"/>
      <point x="605" y="142"/>
      <point x="550" y="28"/>
      <point x="405" y="28" type="curve" smooth="yes"/>
      <point x="252" y="28"/>
      <point x="202" y="134"/>
      <point x="202" y="295" type="curve" smooth="yes"/>
      <point x="202" y="511" type="line" smooth="yes"/>
      <point x="202" y="615"/>
      <point x="204" y="632"/>
      <point x="262" y="637" type="curve" smooth="yes"/>
      <point x="286" y="639" type="line"/>
      <point x="292" y="643"/>
      <point x="290" y="660"/>
      <point x="284" y="663" type="curve"/>
      <point x="235" y="661"/>
      <point x="202" y="660"/>
      <point x="161" y="660" type="curve" smooth="yes"/>
      <point x="121" y="660"/>
      <point x="87" y="661"/>
      <point x="37" y="663" type="curve"/>
      <point x="31" y="660"/>
      <point x="29" y="643"/>
      <point x="35" y="639" type="curve"/>
      <point x="60" y="637" type="line" smooth="yes"/>
      <point x="118" y="632"/>
      <point x="120" y="615"/>
      <point x="120" y="511" type="curve" smooth="yes"/>
      <point x="120" y="275" type="line" smooth="yes"/>
      <point x="120" y="156"/>
      <point x="145" y="83"/>
      <point x="198" y="39" type="curve" smooth="yes"/>
      <point x="247" y="-3"/>
      <point x="316" y="-16"/>
      <point x="385" y="-16" type="curve" smooth="yes"/>
      <point x="459" y="-16"/>
      <point x="533" y="10"/>
      <point x="576" y="57" type="curve" smooth="yes"/>
      <point x="632" y="117"/>
      <point x="646" y="209"/>
      <point x="646" y="296" type="curve" smooth="yes"/>
      <point x="646" y="409" type="line" smooth="yes"/>
      <point x="646" y="465"/>
      <point x="646" y="580"/>
      <point x="660" y="613" type="curve" smooth="yes"/>
      <point x="666" y="626"/>
      <point x="685" y="635"/>
      <point x="710" y="637" type="curve" smooth="yes"/>
      <point x="734" y="639" type="line"/>
      <point x="739" y="645"/>
      <point x="740" y="658"/>
      <point x="732" y="663" type="curve"/>
      <point x="696" y="661"/>
      <point x="669" y="660"/>
      <point x="627" y="660" type="curve" smooth="yes"/>
      <point x="588" y="660"/>
      <point x="551" y="661"/>
      <point x="513" y="663" type="curve"/>
      <point x="507" y="659"/>
      <point x="505" y="646"/>
      <point x="511" y="639" type="curve"/>
      <point x="536" y="637" type="line" smooth="yes"/>
      <point x="561" y="635"/>
      <point x="579" y="628"/>
      <point x="586" y="616" type="curve" smooth="yes"/>
      <point x="603" y="586"/>
      <point x="605" y="471"/>
      <point x="605" y="409" type="curve" smooth="yes"/>
    </contour>
    <contour>
      <point x="519" y="861" type="curve" smooth="yes"/>
      <point x="505" y="861"/>
      <point x="499" y="856"/>
      <point x="490" y="839" type="curve" smooth="yes"/>
      <point x="434" y="725" type="line"/>
      <point x="431" y="715"/>
      <point x="443" y="708"/>
      <point x="453" y="706" type="curve"/>
      <point x="540" y="789" type="line" smooth="yes"/>
      <point x="549" y="798"/>
      <point x="559" y="806"/>
      <point x="563" y="812" type="curve"/>
      <point x="570" y="819"/>
      <point x="566" y="834"/>
      <point x="548" y="847" type="curve" smooth="yes"/>
      <point x="537" y="855"/>
      <point x="526" y="861"/>
    </contour>
    <contour>
      <point x="366" y="861" type="curve" smooth="yes"/>
      <point x="352" y="861"/>
      <point x="346" y="856"/>
      <point x="337" y="839" type="curve" smooth="yes"/>
      <point x="281" y="725" type="line"/>
      <point x="278" y="715"/>
      <point x="290" y="708"/>
      <point x="300" y="706" type="curve"/>
      <point x="387" y="789" type="line" smooth="yes"/>
      <point x="395" y="796"/>
      <point x="405" y="806"/>
      <point x="409" y="814" type="curve" smooth="yes"/>
      <point x="414" y="824"/>
      <point x="410" y="834"/>
      <point x="396" y="846" type="curve" smooth="yes"/>
      <point x="387" y="853"/>
      <point x="373" y="861"/>
    </contour>
  </outline>
</glyph>
<glyph name="Ydieresis" format="1">
  <advance width="574"/>
  <unicode hex="0178"/>
  <outline>
    <contour>
      <point x="336" y="204" type="line" smooth="yes" name="hr01"/>
      <point x="336" y="281"/>
      <point x="339" y="290"/>
      <point x="383" y="366" type="curve" smooth="yes"/>
      <point x="446" y="475" type="line" smooth="yes"/>
      <point x="496" y="561"/>
      <point x="526" y="624"/>
      <point x="578" y="633" type="curve" smooth="yes"/>
      <point x="606" y="638" type="line"/>
      <point x="613" y="644"/>
      <point x="612" y="658"/>
      <point x="604" y="663" type="curve"/>
      <point x="570" y="661"/>
      <point x="542" y="660"/>
      <point x="511" y="660" type="curve" smooth="yes"/>
      <point x="480" y="660"/>
      <point x="451" y="661"/>
      <point x="415" y="663" type="curve"/>
      <point x="407" y="659"/>
      <point x="406" y="645"/>
      <point x="413" y="638" type="curve"/>
      <point x="431" y="636" type="line" smooth="yes"/>
      <point x="455" y="633"/>
      <point x="473" y="626"/>
      <point x="473" y="620" type="curve" smooth="yes"/>
      <point x="473" y="608"/>
      <point x="436" y="540"/>
      <point x="408" y="488" type="curve" smooth="yes"/>
      <point x="378" y="430"/>
      <point x="345" y="372"/>
      <point x="314" y="319" type="curve"/>
      <point x="275" y="388"/>
      <point x="238" y="467"/>
      <point x="201" y="541" type="curve" smooth="yes"/>
      <point x="196" y="551"/>
      <point x="170" y="608"/>
      <point x="170" y="618" type="curve" smooth="yes"/>
      <point x="170" y="626"/>
      <point x="177" y="631"/>
      <point x="212" y="636" type="curve" smooth="yes"/>
      <point x="225" y="638" type="line"/>
      <point x="231" y="644"/>
      <point x="231" y="660"/>
      <point x="222" y="663" type="curve"/>
      <point x="197" y="661"/>
      <point x="161" y="660"/>
      <point x="115" y="660" type="curve" smooth="yes"/>
      <point x="67" y="660"/>
      <point x="31" y="661"/>
      <point x="-1" y="663" type="curve"/>
      <point x="-8" y="659"/>
      <point x="-9" y="645"/>
      <point x="-3" y="638" type="curve"/>
      <point x="25" y="633" type="line" smooth="yes"/>
      <point x="55" y="628"/>
      <point x="70" y="623"/>
      <point x="104" y="557" type="curve" smooth="yes"/>
      <point x="222" y="327" type="line" smooth="yes"/>
      <point x="251" y="271"/>
      <point x="254" y="258"/>
      <point x="254" y="203" type="curve" smooth="yes"/>
      <point x="254" y="152" type="line" smooth="yes"/>
      <point x="254" y="45"/>
      <point x="252" y="31"/>
      <point x="194" y="25" type="curve" smooth="yes"/>
      <point x="163" y="22" type="line"/>
      <point x="157" y="16"/>
      <point x="159" y="0"/>
      <point x="165" y="-3" type="curve"/>
      <point x="218" y="-1"/>
      <point x="254" y="0"/>
      <point x="296" y="0" type="curve" smooth="yes"/>
      <point x="336" y="0"/>
      <point x="370" y="-1"/>
      <point x="432" y="-3" type="curve"/>
      <point x="438" y="0"/>
      <point x="440" y="16"/>
      <point x="434" y="22" type="curve"/>
      <point x="396" y="25" type="line" smooth="yes"/>
      <point x="342" y="29"/>
      <point x="336" y="45"/>
      <point x="336" y="152" type="curve" smooth="yes"/>
    </contour>
    <contour>
      <point x="219" y="710" type="curve" smooth="yes" name="hr02"/>
      <point x="250" y="710"/>
      <point x="270" y="734"/>
      <point x="270" y="763" type="curve" smooth="yes"/>
      <point x="270" y="789"/>
      <point x="250" y="817"/>
      <point x="219" y="817" type="curve" smooth="yes"/>
      <point x="188" y="817"/>
      <point x="167" y="790"/>
      <point x="170" y="761" type="curve"/>
      <point x="170" y="727"/>
      <point x="188" y="710"/>
    </contour>
    <contour>
      <point x="405" y="710" type="curve" smooth="yes"/>
      <point x="436" y="710"/>
      <point x="453" y="734"/>
      <point x="453" y="763" type="curve" smooth="yes"/>
      <point x="453" y="789"/>
      <point x="436" y="817"/>
      <point x="405" y="817" type="curve" smooth="yes"/>
      <point x="374" y="817"/>
      <point x="353" y="790"/>
      <point x="353" y="761" type="curve" smooth="yes"/>
      <point x="354" y="727"/>
      <point x="375" y="710"/>
    </contour>
  </outline>
</glyph>
<glyph name="uni0219" format="1">
  <advance width="323"/>
  <unicode hex="0219"/>
  <outline>
    <contour>
      <point x="186" y="408" type="curve" smooth="yes" name="hr01"/>
      <point x="110" y="408"/>
      <point x="50" y="367"/>
      <point x="50" y="294" type="curve" smooth="yes"/>
      <point x="50" y="239"/>
      <point x="91" y="204"/>
      <point x="149" y="171" type="curve" smooth="yes"/>
      <point x="186" y="150"/>
      <point x="226" y="125"/>
      <point x="226" y="79" type="curve" smooth="yes"/>
      <point x="226" y="36"/>
      <point x="195" y="15"/>
      <point x="159" y="15" type="curve" smooth="yes"/>
      <point x="102" y="15"/>
      <point x="70" y="63"/>
      <point x="53" y="118" type="curve"/>
      <point x="48" y="124"/>
      <point x="35" y="123"/>
      <point x="30" y="117" type="curve"/>
      <point x="28" y="84"/>
      <point x="34" y="35"/>
      <point x="42" y="16" type="curve"/>
      <point x="67" y="-4"/>
      <point x="102" y="-14"/>
      <point x="149" y="-14" type="curve" smooth="yes"/>
      <point x="223" y="-14"/>
      <point x="293" y="24"/>
      <point x="293" y="100" type="curve" smooth="yes"/>
      <point x="293" y="171"/>
      <point x="244" y="205"/>
      <point x="191" y="235" type="curve" smooth="yes"/>
      <point x="156" y="255"/>
      <point x="114" y="277"/>
      <point x="114" y="318" type="curve" smooth="yes"/>
      <point x="114" y="354"/>
      <point x="139" y="379"/>
      <point x="178" y="379" type="curve" smooth="yes"/>
      <point x="219" y="379"/>
      <point x="249" y="350"/>
      <point x="266" y="306" type="curve"/>
      <point x="271" y="300"/>
      <point x="286" y="302"/>
      <point x="290" y="309" type="curve"/>
      <point x="290" y="336"/>
      <point x="283" y="368"/>
      <point x="274" y="390" type="curve"/>
      <point x="265" y="398"/>
      <point x="228" y="408"/>
    </contour>
    <contour>
      <point x="151" y="-58" type="curve" smooth="yes" name="hr02"/>
      <point x="124" y="-58"/>
      <point x="109" y="-77"/>
      <point x="109" y="-96" type="curve" smooth="yes"/>
      <point x="109" y="-106"/>
      <point x="113" y="-115"/>
      <point x="124" y="-121" type="curve" smooth="yes"/>
      <point x="131" y="-125"/>
      <point x="162" y="-137"/>
      <point x="162" y="-168" type="curve" smooth="yes"/>
      <point x="162" y="-207"/>
      <point x="127" y="-230"/>
      <point x="103" y="-238" type="curve"/>
      <point x="99" y="-242"/>
      <point x="100" y="-265"/>
      <point x="108" y="-269" type="curve"/>
      <point x="167" y="-251"/>
      <point x="222" y="-212"/>
      <point x="222" y="-146" type="curve" smooth="yes"/>
      <point x="222" y="-85"/>
      <point x="180" y="-58"/>
    </contour>
  </outline>
</glyph>
<glyph name="quotedblleft" format="1">
  <advance width="404"/>
  <unicode hex="201C"/>
  <outline>
    <contour>
      <point x="301" y="473" type="curve" smooth="yes" name="hr00"/>
      <point x="340" y="473"/>
      <point x="349" y="499"/>
      <point x="349" y="514" type="curve" smooth="yes"/>
      <point x="349" y="533"/>
      <point x="336" y="541"/>
      <point x="322" y="542" type="curve" smooth="yes"/>
      <point x="303" y="543"/>
      <point x="272" y="560"/>
      <point x="272" y="598" type="curve" smooth="yes"/>
      <point x="272" y="639"/>
      <point x="311" y="667"/>
      <point x="348" y="684" type="curve"/>
      <point x="353" y="691"/>
      <point x="349" y="701"/>
      <point x="341" y="705" type="curve"/>
      <point x="278" y="686"/>
      <point x="224" y="638"/>
      <point x="224" y="569" type="curve" smooth="yes"/>
      <point x="224" y="517"/>
      <point x="260" y="473"/>
    </contour>
    <contour>
      <point x="132" y="473" type="curve" smooth="yes"/>
      <point x="171" y="473"/>
      <point x="180" y="499"/>
      <point x="180" y="514" type="curve" smooth="yes"/>
      <point x="180" y="533"/>
      <point x="167" y="541"/>
      <point x="153" y="542" type="curve" smooth="yes"/>
      <point x="134" y="543"/>
      <point x="103" y="560"/>
      <point x="103" y="598" type="curve" smooth="yes"/>
      <point x="103" y="639"/>
      <point x="142" y="667"/>
      <point x="179" y="684" type="curve"/>
      <point x="184" y="691"/>
      <point x="180" y="701"/>
      <point x="172" y="705" type="curve"/>
      <point x="109" y="686"/>
      <point x="55" y="638"/>
      <point x="55" y="569" type="curve" smooth="yes"/>
      <point x="55" y="517"/>
      <point x="91" y="473"/>
    </contour>
  </outline>
</glyph>
<glyph name="dagger" format="1">
  <advance width="480"/>
  <unicode hex="2020"/>
  <outline>
    <contour>
      <point x="256" y="-127" type="line" name="hr00"/>
      <point x="256" y="10" type="line" smooth="yes"/>
      <point x="256" y="126"/>
      <point x="271" y="195"/>
      <point x="291" y="262" type="curve"/>
      <point x="260" y="300"/>
      <point x="255" y="346"/>
      <point x="255" y="437" type="curve"/>
      <point x="317" y="437"/>
      <point x="353" y="406"/>
      <point x="384" y="406" type="curve" smooth="yes"/>
      <point x="415" y="406"/>
      <point x="430" y="425"/>
      <point x="430" y="450" type="curve" smooth="yes"/>
      <point x="430" y="474"/>
      <point x="415" y="493"/>
      <point x="384" y="493" type="curve" smooth="yes"/>
      <point x="353" y="493"/>
      <point x="317" y="463"/>
      <point x="255" y="463" type="curve"/>
      <point x="255" y="574"/>
      <point x="286" y="598"/>
      <point x="286" y="628" type="curve" smooth="yes"/>
      <point x="286" y="648"/>
      <point x="274" y="676"/>
      <point x="240" y="676" type="curve" smooth="yes"/>
      <point x="206" y="676"/>
      <point x="194" y="648"/>
      <point x="194" y="628" type="curve" smooth="yes"/>
      <point x="194" y="598"/>
      <point x="225" y="574"/>
      <point x="225" y="463" type="curve"/>
      <point x="163" y="463"/>
      <point x="127" y="493"/>
      <point x="97" y="493" type="curve" smooth="yes"/>
      <point x="65" y="493"/>
      <point x="50" y="474"/>
      <point x="50" y="450" type="curve" smooth="yes"/>
      <point x="50" y="425"/>
      <point x="65" y="406"/>
      <point x="97" y="406" type="curve" smooth="yes"/>
      <point x="127" y="406"/>
      <point x="163" y="437"/>
      <point x="225" y="437" type="curve"/>
      <point x="225" y="346"/>
      <point x="220" y="300"/>
      <point x="189" y="262" type="curve"/>
      <point x="209" y="195"/>
      <point x="224" y="126"/>
      <point x="224" y="10" type="curve" smooth="yes"/>
      <point x="224" y="-127" type="line"/>
    </contour>
  </outline>
</glyph>
<glyph name="nine.superior" format="1">
  <advance width="360"/>
  <unicode hex="2079"/>
  <outline>
    <contour>
      <point x="152" y="351" type="curve" smooth="yes" name="hr00"/>
      <point x="125" y="334"/>
      <point x="88" y="319"/>
      <point x="47" y="308" type="curve"/>
      <point x="42" y="303"/>
      <point x="44" y="290"/>
      <point x="52" y="288" type="curve"/>
      <point x="103" y="295"/>
      <point x="173" y="315"/>
      <point x="219" y="349" type="curve" smooth="yes"/>
      <point x="294" y="406"/>
      <point x="325" y="472"/>
      <point x="327" y="543" type="curve" smooth="yes"/>
      <point x="330" y="643"/>
      <point x="272" y="708"/>
      <point x="184" y="708" type="curve" smooth="yes"/>
      <point x="100" y="708"/>
      <point x="34" y="654"/>
      <point x="34" y="578" type="curve" smooth="yes"/>
      <point x="34" y="514"/>
      <point x="84" y="474"/>
      <point x="145" y="474" type="curve" smooth="yes"/>
      <point x="174" y="474"/>
      <point x="197" y="486"/>
      <point x="212" y="498" type="curve"/>
      <point x="215" y="502"/>
      <point x="214" y="510"/>
      <point x="210" y="513" type="curve"/>
      <point x="201" y="512"/>
      <point x="191" y="511"/>
      <point x="177" y="511" type="curve" smooth="yes"/>
      <point x="126" y="511"/>
      <point x="99" y="560"/>
      <point x="99" y="604" type="curve" smooth="yes"/>
      <point x="99" y="652"/>
      <point x="134" y="682"/>
      <point x="170" y="682" type="curve" smooth="yes"/>
      <point x="231" y="682"/>
      <point x="253" y="608"/>
      <point x="253" y="556" type="curve" smooth="yes"/>
      <point x="253" y="449"/>
      <point x="208" y="386"/>
    </contour>
  </outline>
</glyph>
<glyph name="eight.inferior" format="1">
  <advance width="360"/>
  <unicode hex="2088"/>
  <outline>
    <contour>
      <point x="179" y="-171" type="curve" smooth="yes" name="hr01"/>
      <point x="260" y="-171"/>
      <point x="318" y="-133"/>
      <point x="318" y="-67" type="curve" smooth="yes"/>
      <point x="318" y="-7"/>
      <point x="278" y="24"/>
      <point x="233" y="47" type="curve"/>
      <point x="264" y="62"/>
      <point x="307" y="89"/>
      <point x="307" y="133" type="curve" smooth="yes" name="hr02"/>
      <point x="307" y="197"/>
      <point x="254" y="229"/>
      <point x="186" y="229" type="curve" smooth="yes"/>
      <point x="115" y="229"/>
      <point x="59" y="187"/>
      <point x="59" y="124" type="curve" smooth="yes"/>
      <point x="59" y="80"/>
      <point x="93" y="48"/>
      <point x="132" y="32" type="curve"/>
      <point x="132" y="30" type="line"/>
      <point x="86" y="15"/>
      <point x="43" y="-20"/>
      <point x="43" y="-71" type="curve" smooth="yes" name="hr03"/>
      <point x="43" y="-144"/>
      <point x="110" y="-171"/>
    </contour>
    <contour>
      <point x="160" y="18" type="curve"/>
      <point x="215" y="1"/>
      <point x="259" y="-30"/>
      <point x="259" y="-77" type="curve" smooth="yes"/>
      <point x="259" y="-117"/>
      <point x="229" y="-145"/>
      <point x="183" y="-145" type="curve" smooth="yes"/>
      <point x="136" y="-145"/>
      <point x="103" y="-107"/>
      <point x="103" y="-68" type="curve" smooth="yes"/>
      <point x="103" y="-33"/>
      <point x="118" y="2"/>
    </contour>
    <contour>
      <point x="206" y="60" type="curve" name="hr04"/>
      <point x="160" y="75"/>
      <point x="116" y="99"/>
      <point x="116" y="138" type="curve" smooth="yes"/>
      <point x="116" y="174"/>
      <point x="142" y="203"/>
      <point x="183" y="203" type="curve" smooth="yes"/>
      <point x="223" y="203"/>
      <point x="251" y="169"/>
      <point x="251" y="135" type="curve" smooth="yes"/>
      <point x="251" y="97"/>
      <point x="232" y="74"/>
    </contour>
  </outline>
</glyph>
<glyph name="parenleft.inferior" format="1">
  <advance width="220"/>
  <unicode hex="208D"/>
  <outline>
    <contour>
      <point x="107" y="27" type="curve" smooth="yes" name="hr00"/>
      <point x="107" y="138"/>
      <point x="147" y="218"/>
      <point x="211" y="269" type="curve"/>
      <point x="215" y="278"/>
      <point x="208" y="286"/>
      <point x="201" y="287" type="curve"/>
      <point x="96" y="238"/>
      <point x="41" y="140"/>
      <point x="41" y="27" type="curve" smooth="yes"/>
      <point x="41" y="-86"/>
      <point x="96" y="-184"/>
      <point x="201" y="-233" type="curve"/>
      <point x="208" y="-232"/>
      <point x="215" y="-224"/>
      <point x="211" y="-215" type="curve"/>
      <point x="147" y="-164"/>
      <point x="107" y="-84"/>
    </contour>
  </outline>
</glyph>
<glyph name="peseta" format="1">
  <advance width="500"/>
  <unicode hex="20A7"/>
  <outline>
    <contour>
      <point x="164" y="470" type="line" name="hr00"/>
      <point x="164" y="567" type="line" smooth="yes"/>
      <point x="164" y="597"/>
      <point x="165" y="601"/>
      <point x="213" y="601" type="curve" smooth="yes"/>
      <point x="303" y="601"/>
      <point x="356" y="550"/>
      <point x="363" y="470" type="curve"/>
    </contour>
    <contour>
      <point x="10" y="470" type="line"/>
      <point x="3" y="464"/>
      <point x="3" y="444"/>
      <point x="10" y="438" type="curve"/>
      <point x="94" y="438" type="line"/>
      <point x="94" y="143" type="line" smooth="yes"/>
      <point x="94" y="43"/>
      <point x="92" y="31"/>
      <point x="40" y="24" type="curve" smooth="yes"/>
      <point x="17" y="21" type="line"/>
      <point x="11" y="15"/>
      <point x="13" y="0"/>
      <point x="19" y="-3" type="curve"/>
      <point x="59" y="-1"/>
      <point x="91" y="0"/>
      <point x="129" y="0" type="curve" smooth="yes"/>
      <point x="165" y="0"/>
      <point x="195" y="-1"/>
      <point x="247" y="-3" type="curve"/>
      <point x="252" y="0"/>
      <point x="254" y="16"/>
      <point x="249" y="21" type="curve"/>
      <point x="224" y="24" type="line" smooth="yes"/>
      <point x="166" y="31"/>
      <point x="164" y="43"/>
      <point x="164" y="143" type="curve" smooth="yes"/>
      <point x="164" y="438" type="line"/>
      <point x="364" y="438" type="line"/>
      <point x="361" y="360"/>
      <point x="322" y="307"/>
      <point x="226" y="289" type="curve"/>
      <point x="220" y="287"/>
      <point x="220" y="273"/>
      <point x="227" y="270" type="curve"/>
      <point x="264" y="270"/>
      <point x="312" y="279"/>
      <point x="351" y="299" type="curve" smooth="yes"/>
      <point x="388" y="318"/>
      <point x="437" y="358"/>
      <point x="441" y="438" type="curve"/>
      <point x="487" y="438" type="line"/>
      <point x="495" y="444"/>
      <point x="495" y="464"/>
      <point x="487" y="470" type="curve"/>
      <point x="440" y="470" type="line"/>
      <point x="435" y="525"/>
      <point x="407" y="568"/>
      <point x="370" y="592" type="curve" smooth="yes"/>
      <point x="327" y="620"/>
      <point x="271" y="631"/>
      <point x="196" y="631" type="curve" smooth="yes"/>
      <point x="121" y="631"/>
      <point x="65" y="630"/>
      <point x="17" y="623" type="curve"/>
      <point x="9" y="619"/>
      <point x="9" y="605"/>
      <point x="15" y="599" type="curve"/>
      <point x="47" y="595" type="line" smooth="yes"/>
      <point x="92" y="589"/>
      <point x="94" y="574"/>
      <point x="94" y="494" type="curve" smooth="yes"/>
      <point x="94" y="470" type="line"/>
    </contour>
  </outline>
</glyph>
<glyph name="onethird" format="1">
  <advance width="780"/>
  <unicode hex="2153"/>
  <outline>
    <contour>
      <point x="100" y="333" type="line" smooth="yes" name="hr01"/>
      <point x="100" y="283"/>
      <point x="99" y="273"/>
      <point x="58" y="268" type="curve" smooth="yes"/>
      <point x="41" y="266" type="line"/>
      <point x="36" y="262"/>
      <point x="36" y="248"/>
      <point x="42" y="245" type="curve"/>
      <point x="70" y="246"/>
      <point x="102" y="247"/>
      <point x="130" y="247" type="curve" smooth="yes"/>
      <point x="161" y="247"/>
      <point x="192" y="246"/>
      <point x="222" y="245" type="curve"/>
      <point x="228" y="248"/>
      <point x="228" y="262"/>
      <point x="223" y="266" type="curve"/>
      <point x="206" y="268" type="line" smooth="yes"/>
      <point x="165" y="273"/>
      <point x="164" y="283"/>
      <point x="164" y="333" type="curve" smooth="yes"/>
      <point x="164" y="562" type="line" smooth="yes"/>
      <point x="164" y="586"/>
      <point x="164" y="614"/>
      <point x="166" y="635" type="curve" smooth="yes"/>
      <point x="166" y="639"/>
      <point x="162" y="640"/>
      <point x="159" y="640" type="curve"/>
      <point x="132" y="630"/>
      <point x="92" y="614"/>
      <point x="37" y="605" type="curve"/>
      <point x="32" y="601"/>
      <point x="32" y="590"/>
      <point x="38" y="586" type="curve"/>
      <point x="69" y="583" type="line" smooth="yes"/>
      <point x="98" y="580"/>
      <point x="100" y="563"/>
      <point x="100" y="526" type="curve" smooth="yes"/>
    </contour>
    <contour>
      <point x="593" y="201" type="curve" smooth="yes"/>
      <point x="653" y="201"/>
      <point x="676" y="156"/>
      <point x="676" y="112" type="curve" smooth="yes"/>
      <point x="676" y="31"/>
      <point x="602" y="-12"/>
      <point x="562" y="-12" type="curve" smooth="yes" name="hr02"/>
      <point x="547" y="-12"/>
      <point x="537" y="-5"/>
      <point x="530" y="6" type="curve" smooth="yes"/>
      <point x="523" y="17"/>
      <point x="512" y="32"/>
      <point x="497" y="32" type="curve" smooth="yes"/>
      <point x="478" y="32"/>
      <point x="464" y="18"/>
      <point x="464" y="0" type="curve" smooth="yes"/>
      <point x="464" y="-30"/>
      <point x="502" y="-39"/>
      <point x="535" y="-39" type="curve" smooth="yes"/>
      <point x="568" y="-39"/>
      <point x="626" y="-25"/>
      <point x="679" y="14" type="curve" smooth="yes"/>
      <point x="725" y="48"/>
      <point x="748" y="92"/>
      <point x="748" y="137" type="curve" smooth="yes"/>
      <point x="748" y="197"/>
      <point x="701" y="226"/>
      <point x="650" y="232" type="curve" smooth="yes"/>
      <point x="642" y="233"/>
      <point x="637" y="236"/>
      <point x="642" y="242" type="curve"/>
      <point x="700" y="269"/>
      <point x="715" y="293"/>
      <point x="715" y="322" type="curve" smooth="yes" name="hr03"/>
      <point x="715" y="359"/>
      <point x="677" y="393"/>
      <point x="619" y="393" type="curve" smooth="yes"/>
      <point x="563" y="393"/>
      <point x="515" y="362"/>
      <point x="490" y="312" type="curve"/>
      <point x="492" y="305"/>
      <point x="498" y="300"/>
      <point x="507" y="301" type="curve"/>
      <point x="530" y="338"/>
      <point x="560" y="359"/>
      <point x="592" y="359" type="curve" smooth="yes"/>
      <point x="620" y="359"/>
      <point x="645" y="341"/>
      <point x="645" y="306" type="curve" smooth="yes"/>
      <point x="645" y="280"/>
      <point x="630" y="261"/>
      <point x="614" y="250" type="curve" smooth="yes"/>
      <point x="587" y="232"/>
      <point x="532" y="209"/>
      <point x="508" y="199" type="curve"/>
      <point x="504" y="186"/>
      <point x="511" y="177"/>
      <point x="521" y="172" type="curve"/>
      <point x="537" y="187"/>
      <point x="561" y="201"/>
    </contour>
    <contour>
      <point x="147" y="-14" type="curve"/>
      <point x="148" y="-29"/>
      <point x="157" y="-40"/>
      <point x="174" y="-40" type="curve"/>
      <point x="319" y="184"/>
      <point x="465" y="407"/>
      <point x="614" y="631" type="curve"/>
      <point x="607" y="647"/>
      <point x="595" y="654"/>
      <point x="583" y="654" type="curve"/>
      <point x="440" y="431"/>
      <point x="294" y="209"/>
    </contour>
  </outline>
</glyph>
<glyph name="twothirds" format="1">
  <advance width="780"/>
  <unicode hex="2154"/>
  <outline>
    <contour>
      <point x="125" y="295" type="line" smooth="yes" name="hr01"/>
      <point x="118" y="295"/>
      <point x="111" y="297"/>
      <point x="111" y="303" type="curve" smooth="yes"/>
      <point x="111" y="309"/>
      <point x="120" y="318"/>
      <point x="145" y="343" type="curve" smooth="yes"/>
      <point x="201" y="399" type="line" smooth="yes"/>
      <point x="259" y="457"/>
      <point x="277" y="495"/>
      <point x="277" y="537" type="curve" smooth="yes"/>
      <point x="277" y="597"/>
      <point x="232" y="640"/>
      <point x="159" y="640" type="curve" smooth="yes"/>
      <point x="97" y="640"/>
      <point x="47" y="607"/>
      <point x="20" y="545" type="curve"/>
      <point x="20" y="537"/>
      <point x="31" y="531"/>
      <point x="39" y="536" type="curve"/>
      <point x="62" y="575"/>
      <point x="92" y="599"/>
      <point x="129" y="599" type="curve" smooth="yes"/>
      <point x="174" y="599"/>
      <point x="204" y="567"/>
      <point x="204" y="515" type="curve" smooth="yes"/>
      <point x="204" y="452"/>
      <point x="154" y="391"/>
      <point x="112" y="349" type="curve" smooth="yes"/>
      <point x="64" y="301"/>
      <point x="40" y="281"/>
      <point x="8" y="261" type="curve"/>
      <point x="4" y="256"/>
      <point x="6" y="249"/>
      <point x="11" y="245" type="curve"/>
      <point x="26" y="246"/>
      <point x="48" y="247"/>
      <point x="86" y="247" type="curve" smooth="yes"/>
      <point x="158" y="247" type="line" smooth="yes"/>
      <point x="189" y="247"/>
      <point x="246" y="246"/>
      <point x="271" y="245" type="curve"/>
      <point x="284" y="257"/>
      <point x="294" y="289"/>
      <point x="310" y="324" type="curve"/>
      <point x="306" y="332"/>
      <point x="298" y="334"/>
      <point x="291" y="331" type="curve"/>
      <point x="269" y="298"/>
      <point x="243" y="295"/>
      <point x="196" y="295" type="curve" smooth="yes"/>
    </contour>
    <contour>
      <point x="609" y="201" type="curve" smooth="yes"/>
      <point x="669" y="201"/>
      <point x="692" y="156"/>
      <point x="692" y="112" type="curve" smooth="yes"/>
      <point x="692" y="31"/>
      <point x="618" y="-12"/>
      <point x="578" y="-12" type="curve" smooth="yes" name="hr02"/>
      <point x="563" y="-12"/>
      <point x="553" y="-5"/>
      <point x="546" y="6" type="curve" smooth="yes"/>
      <point x="539" y="17"/>
      <point x="528" y="32"/>
      <point x="513" y="32" type="curve" smooth="yes"/>
      <point x="494" y="32"/>
      <point x="480" y="18"/>
      <point x="480" y="0" type="curve" smooth="yes"/>
      <point x="480" y="-30"/>
      <point x="518" y="-39"/>
      <point x="551" y="-39" type="curve" smooth="yes"/>
      <point x="584" y="-39"/>
      <point x="642" y="-25"/>
      <point x="695" y="14" type="curve" smooth="yes"/>
      <point x="741" y="48"/>
      <point x="764" y="92"/>
      <point x="764" y="137" type="curve" smooth="yes"/>
      <point x="764" y="197"/>
      <point x="717" y="226"/>
      <point x="666" y="232" type="curve" smooth="yes"/>
      <point x="658" y="233"/>
      <point x="653" y="236"/>
      <point x="658" y="242" type="curve"/>
      <point x="716" y="269"/>
      <point x="731" y="293"/>
      <point x="731" y="322" type="curve" smooth="yes" name="hr03"/>
      <point x="731" y="359"/>
      <point x="693" y="393"/>
      <point x="635" y="393" type="curve" smooth="yes"/>
      <point x="579" y="393"/>
      <point x="531" y="362"/>
      <point x="506" y="312" type="curve"/>
      <point x="508" y="305"/>
      <point x="514" y="300"/>
      <point x="523" y="301" type="curve"/>
      <point x="546" y="338"/>
      <point x="576" y="359"/>
      <point x="608" y="359" type="curve" smooth="yes"/>
      <point x="636" y="359"/>
      <point x="661" y="341"/>
      <point x="661" y="306" type="curve" smooth="yes"/>
      <point x="661" y="280"/>
      <point x="646" y="261"/>
      <point x="630" y="250" type="curve" smooth="yes"/>
      <point x="603" y="232"/>
      <point x="548" y="209"/>
      <point x="524" y="199" type="curve"/>
      <point x="520" y="186"/>
      <point x="527" y="177"/>
      <point x="537" y="172" type="curve"/>
      <point x="553" y="187"/>
      <point x="577" y="201"/>
    </contour>
    <contour>
      <point x="183" y="-14" type="curve"/>
      <point x="184" y="-29"/>
      <point x="193" y="-40"/>
      <point x="210" y="-40" type="curve"/>
      <point x="355" y="184"/>
      <point x="501" y="407"/>
      <point x="650" y="631" type="curve"/>
      <point x="643" y="647"/>
      <point x="631" y="654"/>
      <point x="619" y="654" type="curve"/>
      <point x="476" y="431"/>
      <point x="330" y="209"/>
    </contour>
  </outline>
</glyph>
<glyph name="partialdiff" format="1">
  <advance width="494"/>
  <unicode hex="2202"/>
  <outline>
    <contour>
      <point x="229" y="387" type="curve" smooth="yes" name="hr00"/>
      <point x="123" y="387"/>
      <point x="40" y="279"/>
      <point x="40" y="179" type="curve" smooth="yes"/>
      <point x="40" y="76"/>
      <point x="114" y="-14"/>
      <point x="220" y="-14" type="curve" smooth="yes"/>
      <point x="317" y="-14"/>
      <point x="368" y="50"/>
      <point x="404" y="120" type="curve" smooth="yes"/>
      <point x="443" y="197"/>
      <point x="455" y="290"/>
      <point x="455" y="379" type="curve" smooth="yes"/>
      <point x="455" y="535"/>
      <point x="379" y="714"/>
      <point x="198" y="714" type="curve" smooth="yes"/>
      <point x="144" y="714"/>
      <point x="115" y="702"/>
      <point x="99" y="693" type="curve" smooth="yes"/>
      <point x="91" y="688"/>
      <point x="80" y="672"/>
      <point x="80" y="653" type="curve" smooth="yes"/>
      <point x="80" y="632"/>
      <point x="87" y="623"/>
      <point x="101" y="632" type="curve" smooth="yes"/>
      <point x="139" y="655"/>
      <point x="188" y="670"/>
      <point x="227" y="670" type="curve" smooth="yes"/>
      <point x="349" y="670"/>
      <point x="388" y="549"/>
      <point x="386" y="433" type="curve" smooth="yes"/>
      <point x="385" y="387"/>
      <point x="383" y="358"/>
      <point x="376" y="323" type="curve"/>
      <point x="319" y="373"/>
      <point x="289" y="387"/>
    </contour>
    <contour>
      <point x="256" y="351" type="curve" smooth="yes"/>
      <point x="304" y="351"/>
      <point x="348" y="312"/>
      <point x="368" y="290" type="curve"/>
      <point x="352" y="196"/>
      <point x="321" y="15"/>
      <point x="208" y="15" type="curve" smooth="yes"/>
      <point x="150" y="15"/>
      <point x="122" y="92"/>
      <point x="122" y="147" type="curve" smooth="yes"/>
      <point x="122" y="219"/>
      <point x="166" y="351"/>
    </contour>
  </outline>
</glyph>
<glyph name="minus" format="1">
  <advance width="500"/>
  <unicode hex="2212"/>
  <outline>
    <contour>
      <point x="443" y="230" type="line" name="hr00"/>
      <point x="58" y="230" type="line"/>
      <point x="58" y="181" type="line"/>
      <point x="443" y="181" type="line"/>
    </contour>
  </outline>
</glyph>
<glyph name="radical" format="1">
  <advance width="549"/>
  <unicode hex="221A"/>
  <outline>
    <contour>
      <point x="26" y="417" type="line" name="hr00"/>
      <point x="122" y="464" type="line"/>
      <point x="365" y="-38" type="line"/>
      <point x="515" y="912" type="line"/>
      <point x="480" y="917" type="line"/>
      <point x="353" y="114" type="line"/>
      <point x="161" y="524" type="line"/>
      <point x="10" y="450" type="line"/>
    </contour>
  </outline>
</glyph>
<glyph name="Atilde.titling" format="1">
  <advance width="610"/>
  <unicode hex="E00A"/>
  <outline>
    <contour>
      <point x="371" y="266" type="line" smooth="yes" name="hr00"/>
      <point x="393" y="266"/>
      <point x="396" y="266"/>
      <point x="403" y="245" type="curve" smooth="yes"/>
      <point x="451" y="96" type="line" smooth="yes"/>
      <point x="459" y="72"/>
      <point x="464" y="54"/>
      <point x="464" y="43" type="curve" smooth="yes"/>
      <point x="464" y="28"/>
      <point x="452" y="23"/>
      <point x="431" y="19" type="curve" smooth="yes"/>
      <point x="402" y="13" type="line"/>
      <point x="398" y="8"/>
      <point x="399" y="1"/>
      <point x="404" y="-3" type="curve"/>
      <point x="436" y="-2"/>
      <point x="473" y="0"/>
      <point x="513" y="0" type="curve" smooth="yes"/>
      <point x="565" y="0"/>
      <point x="598" y="-1"/>
      <point x="629" y="-3" type="curve"/>
      <point x="633" y="1"/>
      <point x="634" y="9"/>
      <point x="630" y="13" type="curve"/>
      <point x="600" y="18" type="line" smooth="yes"/>
      <point x="559" y="25"/>
      <point x="548" y="44"/>
      <point x="518" y="131" type="curve" smooth="yes"/>
      <point x="387" y="511" type="line" smooth="yes"/>
      <point x="354" y="608"/>
      <point x="342" y="650"/>
      <point x="336" y="667" type="curve" smooth="yes"/>
      <point x="334" y="674"/>
      <point x="330" y="676"/>
      <point x="323" y="676" type="curve" smooth="yes"/>
      <point x="320" y="676"/>
      <point x="313" y="653"/>
      <point x="275" y="638" type="curve"/>
      <point x="277" y="624"/>
      <point x="276" y="607"/>
      <point x="259" y="562" type="curve" smooth="yes"/>
      <point x="159" y="297" type="line" smooth="yes"/>
      <point x="112" y="173"/>
      <point x="90" y="120"/>
      <point x="70" y="75" type="curve" smooth="yes"/>
      <point x="52" y="33"/>
      <point x="41" y="28"/>
      <point x="17" y="22" type="curve" smooth="yes"/>
      <point x="-21" y="13" type="line"/>
      <point x="-24" y="8"/>
      <point x="-24" y="1"/>
      <point x="-19" y="-3" type="curve"/>
      <point x="11" y="-1"/>
      <point x="39" y="0"/>
      <point x="75" y="0" type="curve" smooth="yes"/>
      <point x="116" y="-1"/>
      <point x="147" y="-1"/>
      <point x="174" y="-3" type="curve"/>
      <point x="178" y="1"/>
      <point x="178" y="8"/>
      <point x="175" y="13" type="curve"/>
      <point x="138" y="19" type="line" smooth="yes"/>
      <point x="115" y="23"/>
      <point x="108" y="29"/>
      <point x="108" y="40" type="curve" smooth="yes"/>
      <point x="108" y="53"/>
      <point x="111" y="65"/>
      <point x="119" y="89" type="curve" smooth="yes"/>
      <point x="172" y="245" type="line" smooth="yes"/>
      <point x="179" y="265"/>
      <point x="180" y="266"/>
      <point x="204" y="266" type="curve" smooth="yes"/>
    </contour>
    <contour>
      <point x="219" y="297" type="line" smooth="yes"/>
      <point x="190" y="297"/>
      <point x="191" y="298"/>
      <point x="200" y="323" type="curve" smooth="yes"/>
      <point x="252" y="468" type="line" smooth="yes"/>
      <point x="270" y="519"/>
      <point x="288" y="557"/>
      <point x="292" y="567" type="curve"/>
      <point x="301" y="550"/>
      <point x="311" y="516"/>
      <point x="319" y="491" type="curve" smooth="yes"/>
      <point x="375" y="324" type="line" smooth="yes"/>
      <point x="384" y="298"/>
      <point x="385" y="297"/>
      <point x="358" y="297" type="curve" smooth="yes"/>
    </contour>
    <contour>
      <point x="287" y="776" type="line" smooth="yes"/>
      <point x="267" y="776"/>
      <point x="254" y="773"/>
      <point x="242" y="759" type="curve"/>
      <point x="228" y="746"/>
      <point x="214" y="706"/>
      <point x="211" y="692" type="curve"/>
      <point x="214" y="687"/>
      <point x="220" y="686"/>
      <point x="225" y="689" type="curve"/>
      <point x="241" y="719"/>
      <point x="256" y="732"/>
      <point x="293" y="732" type="curve" smooth="yes"/>
      <point x="337" y="732" type="line" smooth="yes"/>
      <point x="355" y="732"/>
      <point x="366" y="735"/>
      <point x="378" y="746" type="curve" smooth="yes"/>
      <point x="389" y="757"/>
      <point x="404" y="784"/>
      <point x="409" y="806" type="curve"/>
      <point x="406" y="811"/>
      <point x="399" y="812"/>
      <point x="395" y="809" type="curve"/>
      <point x="375" y="782"/>
      <point x="366" y="776"/>
      <point x="332" y="776" type="curve" smooth="yes"/>
    </contour>
  </outline>
</glyph>
<glyph name="Ccedilla.titling" format="1">
  <advance width="704"/>
  <unicode hex="E00F"/>
  <outline>
    <contour>
      <point x="362" y="-87" type="line" name="hr01"/>
      <point x="362" y="-92" type="line"/>
      <point x="390" y="-103"/>
      <point x="412" y="-124"/>
      <point x="412" y="-145" type="curve" smooth="yes"/>
      <point x="412" y="-164"/>
      <point x="400" y="-170"/>
      <point x="390" y="-170" type="curve" smooth="yes"/>
      <point x="379" y="-170"/>
      <point x="364" y="-147"/>
      <point x="349" y="-147" type="curve" smooth="yes"/>
      <point x="336" y="-147"/>
      <point x="329" y="-158"/>
      <point x="329" y="-167" type="curve" smooth="yes"/>
      <point x="329" y="-184"/>
      <point x="345" y="-195"/>
      <point x="375" y="-195" type="curve" smooth="yes"/>
      <point x="416" y="-195"/>
      <point x="457" y="-166"/>
      <point x="457" y="-130" type="curve" smooth="yes"/>
      <point x="457" y="-105"/>
      <point x="442" y="-86"/>
      <point x="417" y="-69" type="curve" smooth="yes" name="hr02"/>
      <point x="411" y="-65"/>
      <point x="407" y="-60"/>
      <point x="411" y="-54" type="curve" smooth="yes"/>
      <point x="434" y="-16" type="line"/>
      <point x="436" y="-16" type="line" smooth="yes"/>
      <point x="506" y="-16"/>
      <point x="575" y="0"/>
      <point x="597" y="7" type="curve" smooth="yes"/>
      <point x="608" y="10"/>
      <point x="620" y="14"/>
      <point x="632" y="16" type="curve"/>
      <point x="646" y="36"/>
      <point x="673" y="102"/>
      <point x="680" y="156" type="curve"/>
      <point x="677" y="162"/>
      <point x="666" y="163"/>
      <point x="662" y="159" type="curve"/>
      <point x="629" y="93"/>
      <point x="571" y="7"/>
      <point x="439" y="7" type="curve" smooth="yes" name="hr03"/>
      <point x="276" y="7"/>
      <point x="140" y="123"/>
      <point x="140" y="341" type="curve" smooth="yes"/>
      <point x="140" y="553"/>
      <point x="274" y="653"/>
      <point x="432" y="653" type="curve" smooth="yes"/>
      <point x="586" y="653"/>
      <point x="628" y="571"/>
      <point x="645" y="508" type="curve"/>
      <point x="649" y="506"/>
      <point x="660" y="506"/>
      <point x="663" y="510" type="curve"/>
      <point x="655" y="566"/>
      <point x="647" y="625"/>
      <point x="647" y="653" type="curve"/>
      <point x="641" y="652"/>
      <point x="634" y="653"/>
      <point x="622" y="656" type="curve" smooth="yes"/>
      <point x="575" y="667"/>
      <point x="495" y="676"/>
      <point x="446" y="676" type="curve" smooth="yes"/>
      <point x="340" y="676"/>
      <point x="248" y="648"/>
      <point x="176" y="591" type="curve" smooth="yes"/>
      <point x="103" y="534"/>
      <point x="50" y="443"/>
      <point x="50" y="331" type="curve" smooth="yes"/>
      <point x="50" y="194"/>
      <point x="112" y="107"/>
      <point x="191" y="52" type="curve" smooth="yes"/>
      <point x="255" y="7"/>
      <point x="331" y="-12"/>
      <point x="407" y="-14" type="curve"/>
    </contour>
  </outline>
</glyph>
<glyph name="Icircumflex.titling" format="1">
  <advance width="344"/>
  <unicode hex="E027"/>
  <outline>
    <contour>
      <point x="210" y="500" type="line" smooth="yes" name="hr00"/>
      <point x="210" y="558"/>
      <point x="213" y="608"/>
      <point x="224" y="623" type="curve" smooth="yes"/>
      <point x="234" y="636"/>
      <point x="255" y="640"/>
      <point x="271" y="643" type="curve" smooth="yes"/>
      <point x="296" y="647" type="line"/>
      <point x="300" y="653"/>
      <point x="300" y="660"/>
      <point x="295" y="663" type="curve"/>
      <point x="250" y="661"/>
      <point x="215" y="660"/>
      <point x="172" y="660" type="curve" smooth="yes"/>
      <point x="131" y="660"/>
      <point x="99" y="661"/>
      <point x="50" y="663" type="curve"/>
      <point x="45" y="659"/>
      <point x="45" y="653"/>
      <point x="49" y="647" type="curve"/>
      <point x="73" y="643" type="line" smooth="yes"/>
      <point x="89" y="640"/>
      <point x="110" y="636"/>
      <point x="120" y="623" type="curve" smooth="yes"/>
      <point x="131" y="609"/>
      <point x="134" y="558"/>
      <point x="134" y="500" type="curve" smooth="yes"/>
      <point x="134" y="160" type="line" smooth="yes"/>
      <point x="134" y="102"/>
      <point x="131" y="52"/>
      <point x="120" y="37" type="curve" smooth="yes"/>
      <point x="110" y="24"/>
      <point x="89" y="20"/>
      <point x="73" y="17" type="curve" smooth="yes"/>
      <point x="48" y="13" type="line"/>
      <point x="45" y="8"/>
      <point x="45" y="0"/>
      <point x="50" y="-3" type="curve"/>
      <point x="102" y="-1"/>
      <point x="132" y="0"/>
      <point x="172" y="0" type="curve" smooth="yes"/>
      <point x="212" y="0"/>
      <point x="242" y="-1"/>
      <point x="294" y="-3" type="curve"/>
      <point x="299" y="0"/>
      <point x="299" y="8"/>
      <point x="296" y="13" type="curve"/>
      <point x="271" y="17" type="line" smooth="yes"/>
      <point x="255" y="20"/>
      <point x="234" y="24"/>
      <point x="224" y="37" type="curve" smooth="yes"/>
      <point x="213" y="52"/>
      <point x="210" y="102"/>
      <point x="210" y="160" type="curve" smooth="yes"/>
    </contour>
    <contour>
      <point x="58" y="719" type="line"/>
      <point x="58" y="712"/>
      <point x="62" y="707"/>
      <point x="69" y="707" type="curve"/>
      <point x="159" y="759" type="line" smooth="yes"/>
      <point x="170" y="766"/>
      <point x="174" y="766"/>
      <point x="184" y="759" type="curve"/>
      <point x="276" y="707" type="line"/>
      <point x="282" y="708"/>
      <point x="286" y="712"/>
      <point x="286" y="719" type="curve"/>
      <point x="189" y="811" type="line" smooth="yes"/>
      <point x="178" y="822"/>
      <point x="167" y="822"/>
      <point x="156" y="811" type="curve" smooth="yes"/>
    </contour>
  </outline>
</glyph>
<glyph name="Idieresis.titling" format="1">
  <advance width="344"/>
  <unicode hex="E028"/>
  <outline>
    <contour>
      <point x="210" y="500" type="line" smooth="yes" name="hr01"/>
      <point x="210" y="558"/>
      <point x="213" y="608"/>
      <point x="224" y="623" type="curve" smooth="yes"/>
      <point x="234" y="636"/>
      <point x="255" y="640"/>
      <point x="271" y="643" type="curve" smooth="yes"/>
      <point x="296" y="647" type="line"/>
      <point x="300" y="653"/>
      <point x="300" y="660"/>
      <point x="295" y="663" type="curve"/>
      <point x="250" y="661"/>
      <point x="215" y="660"/>
      <point x="172" y="660" type="curve" smooth="yes"/>
      <point x="131" y="660"/>
      <point x="99" y="661"/>
      <point x="50" y="663" type="curve"/>
      <point x="45" y="659"/>
      <point x="45" y="653"/>
      <point x="49" y="647" type="curve"/>
      <point x="73" y="643" type="line" smooth="yes"/>
      <point x="89" y="640"/>
      <point x="110" y="636"/>
      <point x="120" y="623" type="curve" smooth="yes"/>
      <point x="131" y="609"/>
      <point x="134" y="558"/>
      <point x="134" y="500" type="curve" smooth="yes"/>
      <point x="134" y="160" type="line" smooth="yes"/>
      <point x="134" y="102"/>
      <point x="131" y="52"/>
      <point x="120" y="37" type="curve" smooth="yes"/>
      <point x="110" y="24"/>
      <point x="89" y="20"/>
      <point x="73" y="17" type="curve" smooth="yes"/>
      <point x="48" y="13" type="line"/>
      <point x="45" y="8"/>
      <point x="45" y="0"/>
      <point x="50" y="-3" type="curve"/>
      <point x="102" y="-1"/>
      <point x="132" y="0"/>
      <point x="172" y="0" type="curve" smooth="yes"/>
      <point x="212" y="0"/>
      <point x="242" y="-1"/>
      <point x="294" y="-3" type="curve"/>
      <point x="299" y="0"/>
      <point x="299" y="8"/>
      <point x="296" y="13" type="curve"/>
      <point x="271" y="17" type="line" smooth="yes"/>
      <point x="255" y="20"/>
      <point x="234" y="24"/>
      <point x="224" y="37" type="curve" smooth="yes"/>
      <point x="213" y="52"/>
      <point x="210" y="102"/>
      <point x="210" y="160" type="curve" smooth="yes"/>
    </contour>
    <contour>
      <point x="95" y="705" type="curve" smooth="yes" name="hr02"/>
      <point x="118" y="705"/>
      <point x="135" y="723"/>
      <point x="135" y="746" type="curve" smooth="yes"/>
      <point x="135" y="766"/>
      <point x="118" y="787"/>
      <point x="95" y="787" type="curve" smooth="yes"/>
      <point x="72" y="787"/>
      <point x="56" y="767"/>
      <point x="56" y="745" type="curve" smooth="yes"/>
      <point x="57" y="719"/>
      <point x="72" y="705"/>
    </contour>
    <contour>
      <point x="250" y="705" type="curve" smooth="yes"/>
      <point x="273" y="705"/>
      <point x="288" y="723"/>
      <point x="288" y="746" type="curve" smooth="yes"/>
      <point x="288" y="766"/>
      <point x="273" y="787"/>
      <point x="250" y="787" type="curve" smooth="yes"/>
      <point x="226" y="787"/>
      <point x="209" y="767"/>
      <point x="209" y="745" type="curve" smooth="yes"/>
      <point x="210" y="719"/>
      <point x="227" y="705"/>
    </contour>
  </outline>
</glyph>
<glyph name="Ograve.titling" format="1">
  <advance width="797"/>
  <unicode hex="E040"/>
  <outline>
    <contour>
      <point x="403" y="676" type="curve" smooth="yes" name="hr00"/>
      <point x="200" y="676"/>
      <point x="50" y="523"/>
      <point x="50" y="323" type="curve" smooth="yes"/>
      <point x="50" y="143"/>
      <point x="181" y="-16"/>
      <point x="401" y="-16" type="curve" smooth="yes"/>
      <point x="596" y="-16"/>
      <point x="747" y="129"/>
      <point x="747" y="334" type="curve" smooth="yes"/>
      <point x="747" y="512"/>
      <point x="629" y="676"/>
    </contour>
    <contour>
      <point x="388" y="653" type="curve" smooth="yes"/>
      <point x="584" y="653"/>
      <point x="657" y="464"/>
      <point x="657" y="307" type="curve" smooth="yes"/>
      <point x="657" y="92"/>
      <point x="540" y="7"/>
      <point x="411" y="7" type="curve" smooth="yes"/>
      <point x="213" y="7"/>
      <point x="140" y="205"/>
      <point x="140" y="358" type="curve" smooth="yes"/>
      <point x="140" y="583"/>
      <point x="277" y="653"/>
    </contour>
    <contour>
      <point x="407" y="707" type="line"/>
      <point x="412" y="709"/>
      <point x="415" y="716"/>
      <point x="413" y="722" type="curve"/>
      <point x="306" y="812" type="line" smooth="yes"/>
      <point x="297" y="820"/>
      <point x="291" y="824"/>
      <point x="286" y="824" type="curve" smooth="yes"/>
      <point x="280" y="824"/>
      <point x="275" y="820"/>
      <point x="266" y="807" type="curve" smooth="yes"/>
      <point x="257" y="794"/>
      <point x="256" y="785"/>
      <point x="258" y="781" type="curve" smooth="yes"/>
      <point x="260" y="775"/>
      <point x="267" y="770"/>
      <point x="277" y="766" type="curve" smooth="yes"/>
    </contour>
  </outline>
</glyph>
<glyph name="Q.alt" format="1">
  <advance width="795"/>
  <unicode hex="E046"/>
  <outline>
    <contour>
      <point x="403" y="676" type="curve" smooth="yes" name="hr00"/>
      <point x="196" y="676"/>
      <point x="46" y="523"/>
      <point x="46" y="323" type="curve" smooth="yes"/>
      <point x="46" y="115"/>
      <point x="212" y="0"/>
      <point x="352" y="-13" type="curve" smooth="yes"/>
      <point x="368" y="-14"/>
      <point x="382" y="-18"/>
      <point x="399" y="-30" type="curve" smooth="yes"/>
      <point x="414" y="-41"/>
      <point x="565" y="-156"/>
      <point x="694" y="-227" type="curve" smooth="yes"/>
      <point x="772" y="-270"/>
      <point x="953" y="-354"/>
      <point x="1137" y="-354" type="curve" smooth="yes"/>
      <point x="1197" y="-354"/>
      <point x="1300" y="-333"/>
      <point x="1352" y="-277" type="curve"/>
      <point x="1357" y="-270"/>
      <point x="1352" y="-263"/>
      <point x="1345" y="-261" type="curve"/>
      <point x="1300" y="-292"/>
      <point x="1245" y="-314"/>
      <point x="1156" y="-314" type="curve" smooth="yes"/>
      <point x="1034" y="-314"/>
      <point x="898" y="-254"/>
      <point x="800" y="-198" type="curve" smooth="yes"/>
      <point x="661" y="-119"/>
      <point x="568" y="-45"/>
      <point x="531" y="-11" type="curve"/>
      <point x="524" y="-6"/>
      <point x="520" y="-3"/>
      <point x="522" y="4" type="curve"/>
      <point x="657" y="51"/>
      <point x="751" y="175"/>
      <point x="751" y="333" type="curve" smooth="yes"/>
      <point x="751" y="513"/>
      <point x="635" y="676"/>
    </contour>
    <contour>
      <point x="416" y="15" type="curve" smooth="yes"/>
      <point x="219" y="15"/>
      <point x="147" y="207"/>
      <point x="147" y="355" type="curve" smooth="yes"/>
      <point x="147" y="574"/>
      <point x="282" y="645"/>
      <point x="386" y="645" type="curve" smooth="yes"/>
      <point x="577" y="645"/>
      <point x="650" y="467"/>
      <point x="650" y="302" type="curve" smooth="yes"/>
      <point x="650" y="105"/>
      <point x="536" y="15"/>
    </contour>
  </outline>
</glyph>
<glyph name="uni021A.titling" format="1">
  <advance width="660"/>
  <unicode hex="E057"/>
  <outline>
    <contour>
      <point x="154" y="660" type="line" smooth="yes" name="hr01"/>
      <point x="128" y="660"/>
      <point x="93" y="663"/>
      <point x="82" y="667" type="curve" smooth="yes"/>
      <point x="71" y="671"/>
      <point x="67" y="680"/>
      <point x="65" y="685" type="curve"/>
      <point x="61" y="688"/>
      <point x="56" y="688"/>
      <point x="51" y="685" type="curve"/>
      <point x="45" y="648"/>
      <point x="29" y="589"/>
      <point x="13" y="548" type="curve"/>
      <point x="15" y="541"/>
      <point x="25" y="539"/>
      <point x="31" y="541" type="curve"/>
      <point x="44" y="566"/>
      <point x="55" y="589"/>
      <point x="78" y="612" type="curve" smooth="yes"/>
      <point x="99" y="634"/>
      <point x="142" y="637"/>
      <point x="204" y="637" type="curve" smooth="yes"/>
      <point x="262" y="637" type="line" smooth="yes"/>
      <point x="292" y="637"/>
      <point x="293" y="636"/>
      <point x="293" y="598" type="curve" smooth="yes"/>
      <point x="293" y="158" type="line" smooth="yes"/>
      <point x="293" y="100"/>
      <point x="290" y="50"/>
      <point x="279" y="36" type="curve" smooth="yes"/>
      <point x="269" y="24"/>
      <point x="251" y="20"/>
      <point x="235" y="18" type="curve" smooth="yes"/>
      <point x="191" y="13" type="line"/>
      <point x="187" y="8"/>
      <point x="187" y="1"/>
      <point x="192" y="-3" type="curve"/>
      <point x="233" y="-1"/>
      <point x="274" y="0"/>
      <point x="332" y="0" type="curve" smooth="yes"/>
      <point x="383" y="0"/>
      <point x="420" y="-1"/>
      <point x="463" y="-3" type="curve"/>
      <point x="468" y="1"/>
      <point x="468" y="8"/>
      <point x="464" y="13" type="curve"/>
      <point x="430" y="17" type="line" smooth="yes"/>
      <point x="414" y="19"/>
      <point x="393" y="24"/>
      <point x="383" y="36" type="curve" smooth="yes"/>
      <point x="372" y="51"/>
      <point x="369" y="100"/>
      <point x="369" y="158" type="curve" smooth="yes"/>
      <point x="369" y="598" type="line" smooth="yes"/>
      <point x="369" y="636"/>
      <point x="370" y="637"/>
      <point x="400" y="637" type="curve" smooth="yes"/>
      <point x="469" y="637" type="line" smooth="yes"/>
      <point x="524" y="637"/>
      <point x="562" y="632"/>
      <point x="588" y="610" type="curve" smooth="yes"/>
      <point x="600" y="600"/>
      <point x="608" y="576"/>
      <point x="615" y="537" type="curve"/>
      <point x="620" y="533"/>
      <point x="630" y="534"/>
      <point x="633" y="539" type="curve"/>
      <point x="630" y="563"/>
      <point x="637" y="644"/>
      <point x="648" y="683" type="curve"/>
      <point x="646" y="687"/>
      <point x="638" y="688"/>
      <point x="634" y="686" type="curve"/>
      <point x="628" y="676"/>
      <point x="620" y="668"/>
      <point x="612" y="666" type="curve" smooth="yes"/>
      <point x="595" y="661"/>
      <point x="574" y="660"/>
      <point x="542" y="660" type="curve" smooth="yes"/>
    </contour>
    <contour>
      <point x="315" y="-66" type="curve" smooth="yes" name="hr02"/>
      <point x="292" y="-66"/>
      <point x="279" y="-82"/>
      <point x="279" y="-99" type="curve" smooth="yes"/>
      <point x="279" y="-108"/>
      <point x="282" y="-115"/>
      <point x="292" y="-121" type="curve" smooth="yes"/>
      <point x="298" y="-124"/>
      <point x="334" y="-133"/>
      <point x="334" y="-164" type="curve" smooth="yes"/>
      <point x="334" y="-203"/>
      <point x="296" y="-223"/>
      <point x="273" y="-231" type="curve"/>
      <point x="269" y="-234"/>
      <point x="271" y="-245"/>
      <point x="277" y="-247" type="curve"/>
      <point x="330" y="-230"/>
      <point x="375" y="-198"/>
      <point x="375" y="-139" type="curve" smooth="yes"/>
      <point x="375" y="-89"/>
      <point x="341" y="-66"/>
    </contour>
  </outline>
</glyph>
<glyph name="Udieresis.titling" format="1">
  <advance width="753"/>
  <unicode hex="E05C"/>
  <outline>
    <contour>
      <point x="651" y="414" type="line" smooth="yes" name="hr00"/>
      <point x="651" y="450"/>
      <point x="650" y="584"/>
      <point x="666" y="620" type="curve" smooth="yes"/>
      <point x="670" y="630"/>
      <point x="689" y="638"/>
      <point x="708" y="642" type="curve" smooth="yes"/>
      <point x="735" y="647" type="line"/>
      <point x="739" y="653"/>
      <point x="738" y="660"/>
      <point x="734" y="663" type="curve"/>
      <point x="700" y="661"/>
      <point x="673" y="660"/>
      <point x="636" y="660" type="curve" smooth="yes"/>
      <point x="598" y="660"/>
      <point x="561" y="661"/>
      <point x="521" y="663" type="curve"/>
      <point x="517" y="661"/>
      <point x="516" y="651"/>
      <point x="520" y="647" type="curve"/>
      <point x="550" y="643" type="line" smooth="yes"/>
      <point x="575" y="640"/>
      <point x="593" y="632"/>
      <point x="600" y="621" type="curve" smooth="yes"/>
      <point x="617" y="591"/>
      <point x="619" y="461"/>
      <point x="619" y="414" type="curve" smooth="yes"/>
      <point x="619" y="282" type="line" smooth="yes"/>
      <point x="619" y="130"/>
      <point x="564" y="17"/>
      <point x="409" y="17" type="curve" smooth="yes"/>
      <point x="254" y="17"/>
      <point x="201" y="127"/>
      <point x="201" y="281" type="curve" smooth="yes"/>
      <point x="201" y="500" type="line" smooth="yes"/>
      <point x="201" y="558"/>
      <point x="204" y="608"/>
      <point x="215" y="623" type="curve" smooth="yes"/>
      <point x="225" y="636"/>
      <point x="246" y="640"/>
      <point x="262" y="643" type="curve" smooth="yes"/>
      <point x="287" y="647" type="line"/>
      <point x="291" y="653"/>
      <point x="291" y="660"/>
      <point x="286" y="663" type="curve"/>
      <point x="241" y="661"/>
      <point x="206" y="660"/>
      <point x="163" y="660" type="curve" smooth="yes"/>
      <point x="122" y="660"/>
      <point x="90" y="661"/>
      <point x="43" y="663" type="curve"/>
      <point x="38" y="659"/>
      <point x="38" y="653"/>
      <point x="42" y="647" type="curve"/>
      <point x="64" y="643" type="line" smooth="yes"/>
      <point x="80" y="640"/>
      <point x="101" y="636"/>
      <point x="111" y="623" type="curve" smooth="yes"/>
      <point x="122" y="609"/>
      <point x="125" y="558"/>
      <point x="125" y="500" type="curve" smooth="yes"/>
      <point x="125" y="266" type="line" smooth="yes"/>
      <point x="125" y="157"/>
      <point x="149" y="84"/>
      <point x="201" y="40" type="curve" smooth="yes"/>
      <point x="250" y="-3"/>
      <point x="314" y="-16"/>
      <point x="392" y="-16" type="curve" smooth="yes"/>
      <point x="468" y="-16"/>
      <point x="543" y="9"/>
      <point x="586" y="56" type="curve" smooth="yes"/>
      <point x="640" y="116"/>
      <point x="651" y="201"/>
      <point x="651" y="284" type="curve" smooth="yes"/>
    </contour>
    <contour>
      <point x="330" y="705" type="curve" smooth="yes"/>
      <point x="353" y="705"/>
      <point x="370" y="723"/>
      <point x="370" y="746" type="curve" smooth="yes"/>
      <point x="370" y="766"/>
      <point x="353" y="787"/>
      <point x="330" y="787" type="curve" smooth="yes"/>
      <point x="307" y="787"/>
      <point x="291" y="767"/>
      <point x="291" y="745" type="curve" smooth="yes"/>
      <point x="292" y="719"/>
      <point x="307" y="705"/>
    </contour>
    <contour>
      <point x="485" y="705" type="curve" smooth="yes"/>
      <point x="508" y="705"/>
      <point x="523" y="723"/>
      <point x="523" y="746" type="curve" smooth="yes"/>
      <point x="523" y="766"/>
      <point x="508" y="787"/>
      <point x="485" y="787" type="curve" smooth="yes"/>
      <point x="461" y="787"/>
      <point x="444" y="767"/>
      <point x="444" y="745" type="curve" smooth="yes"/>
      <point x="445" y="719"/>
      <point x="462" y="705"/>
    </contour>
  </outline>
</glyph>
<glyph name="Uogonek.titling" format="1">
  <advance width="753"/>
  <unicode hex="E060"/>
  <outline>
    <contour>
      <point x="651" y="414" type="line" smooth="yes" name="hr00"/>
      <point x="651" y="450"/>
      <point x="650" y="584"/>
      <point x="666" y="620" type="curve" smooth="yes"/>
      <point x="670" y="630"/>
      <point x="689" y="638"/>
      <point x="708" y="642" type="curve" smooth="yes"/>
      <point x="735" y="647" type="line"/>
      <point x="739" y="653"/>
      <point x="738" y="660"/>
      <point x="734" y="663" type="curve"/>
      <point x="700" y="661"/>
      <point x="673" y="660"/>
      <point x="636" y="660" type="curve" smooth="yes"/>
      <point x="598" y="660"/>
      <point x="561" y="661"/>
      <point x="521" y="663" type="curve"/>
      <point x="517" y="661"/>
      <point x="516" y="651"/>
      <point x="520" y="647" type="curve"/>
      <point x="550" y="643" type="line" smooth="yes"/>
      <point x="575" y="640"/>
      <point x="593" y="632"/>
      <point x="600" y="621" type="curve" smooth="yes"/>
      <point x="617" y="591"/>
      <point x="619" y="461"/>
      <point x="619" y="414" type="curve" smooth="yes"/>
      <point x="619" y="282" type="line" smooth="yes"/>
      <point x="619" y="130"/>
      <point x="564" y="20"/>
      <point x="409" y="20" type="curve" smooth="yes"/>
      <point x="254" y="20"/>
      <point x="201" y="127"/>
      <point x="201" y="281" type="curve" smooth="yes"/>
      <point x="201" y="500" type="line" smooth="yes"/>
      <point x="201" y="558"/>
      <point x="204" y="608"/>
      <point x="215" y="623" type="curve" smooth="yes"/>
      <point x="225" y="636"/>
      <point x="246" y="640"/>
      <point x="262" y="643" type="curve" smooth="yes"/>
      <point x="287" y="647" type="line"/>
      <point x="291" y="653"/>
      <point x="291" y="660"/>
      <point x="286" y="663" type="curve"/>
      <point x="241" y="661"/>
      <point x="206" y="660"/>
      <point x="163" y="660" type="curve" smooth="yes"/>
      <point x="122" y="660"/>
      <point x="90" y="661"/>
      <point x="43" y="663" type="curve"/>
      <point x="38" y="659"/>
      <point x="38" y="653"/>
      <point x="42" y="647" type="curve"/>
      <point x="64" y="643" type="line" smooth="yes"/>
      <point x="80" y="640"/>
      <point x="101" y="636"/>
      <point x="111" y="623" type="curve" smooth="yes"/>
      <point x="122" y="609"/>
      <point x="125" y="558"/>
      <point x="125" y="500" type="curve" smooth="yes"/>
      <point x="125" y="266" type="line" smooth="yes"/>
      <point x="125" y="157"/>
      <point x="149" y="84"/>
      <point x="201" y="40" type="curve" smooth="yes"/>
      <point x="250" y="-3"/>
      <point x="314" y="-16"/>
      <point x="392" y="-16" type="curve" smooth="yes"/>
      <point x="412" y="-16"/>
      <point x="440" y="-13"/>
      <point x="447" y="-11" type="curve"/>
      <point x="375" y="-60"/>
      <point x="348" y="-101"/>
      <point x="348" y="-135" type="curve" smooth="yes"/>
      <point x="348" y="-168"/>
      <point x="372" y="-208"/>
      <point x="427" y="-208" type="curve" smooth="yes"/>
      <point x="481" y="-208"/>
      <point x="513" y="-181"/>
      <point x="529" y="-160" type="curve"/>
      <point x="530" y="-156"/>
      <point x="526" y="-151"/>
      <point x="523" y="-150" type="curve"/>
      <point x="512" y="-156"/>
      <point x="489" y="-161"/>
      <point x="469" y="-161" type="curve" smooth="yes"/>
      <point x="441" y="-161"/>
      <point x="417" y="-144"/>
      <point x="417" y="-111" type="curve" smooth="yes"/>
      <point x="417" y="-84"/>
      <point x="428" y="-50"/>
      <point x="487" y="-2" type="curve"/>
      <point x="516" y="7"/>
      <point x="552" y="22"/>
      <point x="584" y="56" type="curve" smooth="yes"/>
      <point x="638" y="116"/>
      <point x="651" y="201"/>
      <point x="651" y="284" type="curve" smooth="yes"/>
    </contour>
  </outline>
</glyph>
<glyph name="Uring.titling" format="1">
  <advance width="753"/>
  <unicode hex="E061"/>
  <outline>
    <contour>
      <point x="651" y="414" type="line" smooth="yes" name="hr00"/>
      <point x="651" y="450"/>
      <point x="650" y="584"/>
      <point x="666" y="620" type="curve" smooth="yes"/>
      <point x="670" y="630"/>
      <point x="689" y="638"/>
      <point x="708" y="642" type="curve" smooth="yes"/>
      <point x="735" y="647" type="line"/>
      <point x="739" y="653"/>
      <point x="738" y="660"/>
      <point x="734" y="663" type="curve"/>
      <point x="700" y="661"/>
      <point x="673" y="660"/>
      <point x="636" y="660" type="curve" smooth="yes"/>
      <point x="598" y="660"/>
      <point x="561" y="661"/>
      <point x="521" y="663" type="curve"/>
      <point x="517" y="661"/>
      <point x="516" y="651"/>
      <point x="520" y="647" type="curve"/>
      <point x="550" y="643" type="line" smooth="yes"/>
      <point x="575" y="640"/>
      <point x="593" y="632"/>
      <point x="600" y="621" type="curve" smooth="yes"/>
      <point x="617" y="591"/>
      <point x="619" y="461"/>
      <point x="619" y="414" type="curve" smooth="yes"/>
      <point x="619" y="282" type="line" smooth="yes"/>
      <point x="619" y="130"/>
      <point x="564" y="17"/>
      <point x="409" y="17" type="curve" smooth="yes"/>
      <point x="254" y="17"/>
      <point x="201" y="127"/>
      <point x="201" y="281" type="curve" smooth="yes"/>
      <point x="201" y="500" type="line" smooth="yes"/>
      <point x="201" y="558"/>
      <point x="204" y="608"/>
      <point x="215" y="623" type="curve" smooth="yes"/>
      <point x="225" y="636"/>
      <point x="246" y="640"/>
      <point x="262" y="643" type="curve" smooth="yes"/>
      <point x="287" y="647" type="line"/>
      <point x="291" y="653"/>
      <point x="291" y="660"/>
      <point x="286" y="663" type="curve"/>
      <point x="241" y="661"/>
      <point x="206" y="660"/>
      <point x="163" y="660" type="curve" smooth="yes"/>
      <point x="122" y="660"/>
      <point x="90" y="661"/>
      <point x="43" y="663" type="curve"/>
      <point x="38" y="659"/>
      <point x="38" y="653"/>
      <point x="42" y="647" type="curve"/>
      <point x="64" y="643" type="line" smooth="yes"/>
      <point x="80" y="640"/>
      <point x="101" y="636"/>
      <point x="111" y="623" type="curve" smooth="yes"/>
      <point x="122" y="609"/>
      <point x="125" y="558"/>
      <point x="125" y="500" type="curve" smooth="yes"/>
      <point x="125" y="266" type="line" smooth="yes"/>
      <point x="125" y="157"/>
      <point x="149" y="84"/>
      <point x="201" y="40" type="curve" smooth="yes"/>
      <point x="250" y="-3"/>
      <point x="314" y="-16"/>
      <point x="392" y="-16" type="curve" smooth="yes"/>
      <point x="468" y="-16"/>
      <point x="543" y="9"/>
      <point x="586" y="56" type="curve" smooth="yes"/>
      <point x="640" y="116"/>
      <point x="651" y="201"/>
      <point x="651" y="284" type="curve" smooth="yes"/>
    </contour>
    <contour>
      <point x="402" y="852" type="curve" smooth="yes"/>
      <point x="357" y="852"/>
      <point x="326" y="817"/>
      <point x="326" y="779" type="curve" smooth="yes"/>
      <point x="326" y="740"/>
      <point x="357" y="706"/>
      <point x="402" y="706" type="curve" smooth="yes"/>
      <point x="447" y="706"/>
      <point x="479" y="740"/>
      <point x="479" y="779" type="curve" smooth="yes"/>
      <point x="479" y="817"/>
      <point x="447" y="852"/>
    </contour>
    <contour>
      <point x="362" y="779" type="curve" smooth="yes"/>
      <point x="362" y="806"/>
      <point x="380" y="826"/>
      <point x="402" y="826" type="curve" smooth="yes"/>
      <point x="425" y="826"/>
      <point x="443" y="806"/>
      <point x="443" y="779" type="curve" smooth="yes"/>
      <point x="443" y="751"/>
      <point x="425" y="731"/>
      <point x="402" y="731" type="curve" smooth="yes"/>
      <point x="380" y="731"/>
      <point x="362" y="751"/>
    </contour>
  </outline>
</glyph>
<glyph name="X.titling" format="1">
  <advance width="632"/>
  <unicode hex="E064"/>
  <outline>
    <contour>
      <point x="175" y="18" type="line" smooth="yes" name="hr00"/>
      <point x="152" y="22"/>
      <point x="143" y="28"/>
      <point x="143" y="38" type="curve" smooth="yes"/>
      <point x="143" y="45"/>
      <point x="148" y="56"/>
      <point x="156" y="70" type="curve" smooth="yes"/>
      <point x="200" y="145"/>
      <point x="252" y="222"/>
      <point x="304" y="289" type="curve"/>
      <point x="347" y="229"/>
      <point x="389" y="169"/>
      <point x="431" y="107" type="curve" smooth="yes"/>
      <point x="467" y="54"/>
      <point x="474" y="41"/>
      <point x="474" y="33" type="curve" smooth="yes"/>
      <point x="474" y="28"/>
      <point x="461" y="23"/>
      <point x="440" y="19" type="curve" smooth="yes"/>
      <point x="409" y="13" type="line"/>
      <point x="407" y="8"/>
      <point x="408" y="0"/>
      <point x="413" y="-3" type="curve"/>
      <point x="454" y="-1"/>
      <point x="493" y="0"/>
      <point x="537" y="0" type="curve" smooth="yes"/>
      <point x="578" y="0"/>
      <point x="614" y="-1"/>
      <point x="656" y="-3" type="curve"/>
      <point x="660" y="0"/>
      <point x="660" y="9"/>
      <point x="657" y="13" type="curve"/>
      <point x="627" y="18" type="line" smooth="yes"/>
      <point x="593" y="24"/>
      <point x="566" y="44"/>
      <point x="533" y="90" type="curve" smooth="yes"/>
      <point x="492" y="146"/>
      <point x="427" y="237"/>
      <point x="362" y="334" type="curve" smooth="yes"/>
      <point x="349" y="354"/>
      <point x="347" y="358"/>
      <point x="361" y="378" type="curve" smooth="yes"/>
      <point x="407" y="443"/>
      <point x="448" y="501"/>
      <point x="487" y="553" type="curve" smooth="yes"/>
      <point x="527" y="607"/>
      <point x="555" y="634"/>
      <point x="589" y="640" type="curve" smooth="yes"/>
      <point x="627" y="647" type="line"/>
      <point x="631" y="652"/>
      <point x="631" y="659"/>
      <point x="625" y="663" type="curve"/>
      <point x="590" y="661"/>
      <point x="561" y="660"/>
      <point x="529" y="660" type="curve" smooth="yes"/>
      <point x="492" y="660"/>
      <point x="460" y="661"/>
      <point x="427" y="663" type="curve"/>
      <point x="421" y="659"/>
      <point x="421" y="652"/>
      <point x="425" y="647" type="curve"/>
      <point x="459" y="640" type="line" smooth="yes"/>
      <point x="476" y="636"/>
      <point x="483" y="632"/>
      <point x="483" y="626" type="curve" smooth="yes"/>
      <point x="483" y="619"/>
      <point x="477" y="606"/>
      <point x="454" y="568" type="curve" smooth="yes"/>
      <point x="414" y="500"/>
      <point x="381" y="454"/>
      <point x="331" y="382" type="curve"/>
      <point x="284" y="445"/>
      <point x="246" y="502"/>
      <point x="202" y="568" type="curve" smooth="yes"/>
      <point x="183" y="596"/>
      <point x="171" y="618"/>
      <point x="171" y="626" type="curve" smooth="yes"/>
      <point x="171" y="635"/>
      <point x="184" y="639"/>
      <point x="202" y="642" type="curve" smooth="yes"/>
      <point x="230" y="647" type="line"/>
      <point x="234" y="653"/>
      <point x="233" y="659"/>
      <point x="228" y="663" type="curve"/>
      <point x="196" y="661"/>
      <point x="151" y="660"/>
      <point x="118" y="660" type="curve" smooth="yes"/>
      <point x="82" y="660"/>
      <point x="49" y="661"/>
      <point x="9" y="663" type="curve"/>
      <point x="3" y="660"/>
      <point x="2" y="653"/>
      <point x="6" y="647" type="curve"/>
      <point x="37" y="639" type="line" smooth="yes"/>
      <point x="74" y="629"/>
      <point x="97" y="596"/>
      <point x="123" y="557" type="curve" smooth="yes"/>
      <point x="157" y="505"/>
      <point x="227" y="405"/>
      <point x="276" y="337" type="curve" smooth="yes"/>
      <point x="289" y="319"/>
      <point x="288" y="315"/>
      <point x="273" y="295" type="curve" smooth="yes"/>
      <point x="215" y="217"/>
      <point x="153" y="130"/>
      <point x="141" y="114" type="curve" smooth="yes"/>
      <point x="112" y="77"/>
      <point x="84" y="47"/>
      <point x="73" y="39" type="curve" smooth="yes"/>
      <point x="58" y="28"/>
      <point x="40" y="20"/>
      <point x="21" y="17" type="curve" smooth="yes"/>
      <point x="-4" y="13" type="line"/>
      <point x="-7" y="7"/>
      <point x="-7" y="0"/>
      <point x="-3" y="-3" type="curve"/>
      <point x="25" y="-1"/>
      <point x="62" y="0"/>
      <point x="96" y="0" type="curve" smooth="yes"/>
      <point x="134" y="0"/>
      <point x="173" y="-1"/>
      <point x="204" y="-3" type="curve"/>
      <point x="209" y="1"/>
      <point x="209" y="9"/>
      <point x="205" y="13" type="curve"/>
    </contour>
  </outline>
</glyph>
<glyph name="braceleft.titling" format="1">
  <advance width="320"/>
  <unicode hex="E070"/>
  <outline>
    <contour>
      <point x="213" y="161" type="curve" smooth="yes" name="hr01"/>
      <point x="213" y="218"/>
      <point x="190" y="253"/>
      <point x="138" y="266" type="curve"/>
      <point x="138" y="270" type="line"/>
      <point x="190" y="283"/>
      <point x="213" y="318"/>
      <point x="213" y="375" type="curve" smooth="yes"/>
      <point x="213" y="410"/>
      <point x="208" y="444"/>
      <point x="204" y="478" type="curve" smooth="yes"/>
      <point x="199" y="512"/>
      <point x="194" y="546"/>
      <point x="194" y="578" type="curve" smooth="yes" name="hr02"/>
      <point x="194" y="619"/>
      <point x="204" y="665"/>
      <point x="278" y="680" type="curve"/>
      <point x="282" y="684"/>
      <point x="281" y="690"/>
      <point x="278" y="694" type="curve"/>
      <point x="233" y="694"/>
      <point x="144" y="685"/>
      <point x="144" y="570" type="curve" smooth="yes"/>
      <point x="144" y="534"/>
      <point x="149" y="497"/>
      <point x="152" y="462" type="curve" smooth="yes"/>
      <point x="156" y="426"/>
      <point x="159" y="393"/>
      <point x="159" y="362" type="curve" smooth="yes" name="hr03"/>
      <point x="159" y="326"/>
      <point x="155" y="282"/>
      <point x="71" y="276" type="curve"/>
      <point x="66" y="272"/>
      <point x="66" y="263"/>
      <point x="71" y="260" type="curve" name="hr04"/>
      <point x="155" y="254"/>
      <point x="159" y="210"/>
      <point x="159" y="174" type="curve" smooth="yes" name="hr05"/>
      <point x="159" y="144"/>
      <point x="155" y="110"/>
      <point x="152" y="75" type="curve" smooth="yes"/>
      <point x="148" y="39"/>
      <point x="144" y="3"/>
      <point x="144" y="-34" type="curve" smooth="yes" name="hr06"/>
      <point x="144" y="-149"/>
      <point x="233" y="-158"/>
      <point x="278" y="-158" type="curve"/>
      <point x="281" y="-154"/>
      <point x="281" y="-148"/>
      <point x="278" y="-144" type="curve"/>
      <point x="204" y="-129"/>
      <point x="194" y="-83"/>
      <point x="194" y="-42" type="curve" smooth="yes"/>
      <point x="194" y="-9"/>
      <point x="199" y="24"/>
      <point x="204" y="58" type="curve" smooth="yes"/>
      <point x="208" y="92"/>
      <point x="213" y="127"/>
    </contour>
  </outline>
</glyph>
<glyph name="bracketright.titling" format="1">
  <advance width="320"/>
  <unicode hex="E073"/>
  <outline>
    <contour>
      <point x="196" y="688" type="line" name="hr00"/>
      <point x="175" y="689"/>
      <point x="157" y="689"/>
      <point x="134" y="689" type="curve" smooth="yes"/>
      <point x="79" y="689"/>
      <point x="39" y="687"/>
      <point x="24" y="685" type="curve"/>
      <point x="19" y="681"/>
      <point x="19" y="675"/>
      <point x="23" y="671" type="curve"/>
      <point x="112" y="660" type="line" smooth="yes"/>
      <point x="125" y="658"/>
      <point x="134" y="656"/>
      <point x="138" y="650" type="curve" smooth="yes"/>
      <point x="147" y="636"/>
      <point x="150" y="566"/>
      <point x="150" y="492" type="curve" smooth="yes"/>
      <point x="150" y="44" type="line" smooth="yes"/>
      <point x="150" y="-30"/>
      <point x="147" y="-100"/>
      <point x="138" y="-114" type="curve" smooth="yes"/>
      <point x="134" y="-120"/>
      <point x="125" y="-122"/>
      <point x="112" y="-124" type="curve" smooth="yes"/>
      <point x="23" y="-135" type="line"/>
      <point x="19" y="-139"/>
      <point x="19" y="-145"/>
      <point x="24" y="-149" type="curve"/>
      <point x="39" y="-151"/>
      <point x="79" y="-153"/>
      <point x="134" y="-153" type="curve" smooth="yes"/>
      <point x="157" y="-153"/>
      <point x="175" y="-153"/>
      <point x="196" y="-152" type="curve"/>
    </contour>
  </outline>
</glyph>
<glyph name="space_uni0326.titling" format="1">
  <advance width="250"/>
  <unicode hex="E07E"/>
  <outline>
    <contour>
      <point x="110" y="-66" type="curve" smooth="yes" name="hr00"/>
      <point x="87" y="-66"/>
      <point x="74" y="-82"/>
      <point x="74" y="-99" type="curve" smooth="yes"/>
      <point x="74" y="-108"/>
      <point x="77" y="-115"/>
      <point x="87" y="-121" type="curve" smooth="yes"/>
      <point x="93" y="-124"/>
      <point x="129" y="-133"/>
      <point x="129" y="-164" type="curve" smooth="yes"/>
      <point x="129" y="-203"/>
      <point x="91" y="-223"/>
      <point x="68" y="-231" type="curve"/>
      <point x="64" y="-234"/>
      <point x="66" y="-245"/>
      <point x="72" y="-247" type="curve"/>
      <point x="125" y="-230"/>
      <point x="170" y="-198"/>
      <point x="170" y="-139" type="curve" smooth="yes"/>
      <point x="170" y="-89"/>
      <point x="136" y="-66"/>
    </contour>
  </outline>
</glyph>
<glyph name="dieresis.titling" format="1">
  <advance width="360"/>
  <unicode hex="E080"/>
  <outline>
    <contour>
      <point x="103" y="705" type="curve" smooth="yes" name="hr00"/>
      <point x="126" y="705"/>
      <point x="143" y="723"/>
      <point x="143" y="746" type="curve" smooth="yes"/>
      <point x="143" y="766"/>
      <point x="126" y="787"/>
      <point x="103" y="787" type="curve" smooth="yes"/>
      <point x="80" y="787"/>
      <point x="64" y="767"/>
      <point x="64" y="745" type="curve" smooth="yes"/>
      <point x="65" y="719"/>
      <point x="80" y="705"/>
    </contour>
    <contour>
      <point x="258" y="705" type="curve" smooth="yes"/>
      <point x="281" y="705"/>
      <point x="296" y="723"/>
      <point x="296" y="746" type="curve" smooth="yes"/>
      <point x="296" y="766"/>
      <point x="281" y="787"/>
      <point x="258" y="787" type="curve" smooth="yes"/>
      <point x="234" y="787"/>
      <point x="217" y="767"/>
      <point x="217" y="745" type="curve" smooth="yes"/>
      <point x="218" y="719"/>
      <point x="235" y="705"/>
    </contour>
  </outline>
</glyph>
<glyph name="dotaccent.titling" format="1">
  <advance width="360"/>
  <unicode hex="E082"/>
  <outline>
    <contour>
      <point x="181" y="709" type="curve" smooth="yes" name="hr00"/>
      <point x="204" y="709"/>
      <point x="221" y="726"/>
      <point x="221" y="751" type="curve" smooth="yes"/>
      <point x="221" y="770"/>
      <point x="204" y="789"/>
      <point x="181" y="789" type="curve" smooth="yes"/>
      <point x="157" y="789"/>
      <point x="139" y="771"/>
      <point x="141" y="749" type="curve"/>
      <point x="141" y="723"/>
      <point x="158" y="709"/>
    </contour>
  </outline>
</glyph>
<glyph name="five.titling" format="1">
  <advance width="500"/>
  <unicode hex="E08A"/>
  <outline>
    <contour>
      <point x="157" y="620" type="line" smooth="yes" name="hr00"/>
      <point x="142" y="618"/>
      <point x="137" y="609"/>
      <point x="132" y="593" type="curve" smooth="yes"/>
      <point x="79" y="415" type="line" smooth="yes"/>
      <point x="73" y="394"/>
      <point x="73" y="386"/>
      <point x="88" y="386" type="curve" smooth="yes"/>
      <point x="205" y="386"/>
      <point x="359" y="349"/>
      <point x="360" y="200" type="curve" smooth="yes"/>
      <point x="360" y="57"/>
      <point x="230" y="-33"/>
      <point x="70" y="-42" type="curve"/>
      <point x="61" y="-49"/>
      <point x="63" y="-63"/>
      <point x="73" y="-68" type="curve"/>
      <point x="230" y="-64"/>
      <point x="427" y="59"/>
      <point x="427" y="229" type="curve" smooth="yes"/>
      <point x="427" y="380"/>
      <point x="290" y="428"/>
      <point x="170" y="442" type="curve" smooth="yes"/>
      <point x="145" y="445" type="line" smooth="yes"/>
      <point x="120" y="448"/>
      <point x="118" y="456"/>
      <point x="122" y="469" type="curve" smooth="yes"/>
      <point x="140" y="529" type="line" smooth="yes"/>
      <point x="147" y="552"/>
      <point x="156" y="558"/>
      <point x="177" y="561" type="curve" smooth="yes"/>
      <point x="370" y="588" type="line"/>
      <point x="384" y="606"/>
      <point x="397" y="625"/>
      <point x="405" y="647" type="curve"/>
      <point x="405" y="650"/>
      <point x="402" y="654"/>
      <point x="396" y="654" type="curve"/>
    </contour>
  </outline>
</glyph>
<glyph name="grave.titling" format="1">
  <advance width="360"/>
  <unicode hex="E08D"/>
  <outline>
    <contour>
      <point x="248" y="707" type="line" name="hr00"/>
      <point x="253" y="709"/>
      <point x="256" y="716"/>
      <point x="254" y="722" type="curve"/>
      <point x="147" y="812" type="line" smooth="yes"/>
      <point x="138" y="820"/>
      <point x="132" y="824"/>
      <point x="127" y="824" type="curve" smooth="yes"/>
      <point x="121" y="824"/>
      <point x="116" y="820"/>
      <point x="107" y="807" type="curve" smooth="yes"/>
      <point x="98" y="794"/>
      <point x="97" y="785"/>
      <point x="99" y="781" type="curve" smooth="yes"/>
      <point x="101" y="775"/>
      <point x="108" y="770"/>
      <point x="118" y="766" type="curve" smooth="yes"/>
    </contour>
  </outline>
</glyph>
<glyph name="guilsinglleft.titling" format="1">
  <advance width="236"/>
  <unicode hex="E090"/>
  <outline>
    <contour>
      <point x="187" y="360" type="line" name="hr00"/>
      <point x="186" y="367"/>
      <point x="182" y="371"/>
      <point x="175" y="371" type="curve"/>
      <point x="136" y="321"/>
      <point x="97" y="271"/>
      <point x="56" y="221" type="curve" smooth="yes"/>
      <point x="46" y="209"/>
      <point x="47" y="201"/>
      <point x="56" y="190" type="curve" smooth="yes"/>
      <point x="98" y="140"/>
      <point x="136" y="89"/>
      <point x="175" y="39" type="curve"/>
      <point x="183" y="38"/>
      <point x="187" y="43"/>
      <point x="187" y="50" type="curve"/>
      <point x="117" y="194" type="line" smooth="yes"/>
      <point x="113" y="201"/>
      <point x="112" y="209"/>
      <point x="117" y="218" type="curve" smooth="yes"/>
    </contour>
  </outline>
</glyph>
<glyph name="n.swash" format="1">
  <advance width="810"/>
  <unicode hex="E096"/>
  <outline>
    <contour>
      <point x="98" y="112" type="line" smooth="yes" name="hr01"/>
      <point x="98" y="40"/>
      <point x="97" y="30"/>
      <point x="60" y="25" type="curve" smooth="yes"/>
      <point x="39" y="22" type="line"/>
      <point x="32" y="17"/>
      <point x="34" y="0"/>
      <point x="41" y="-3" type="curve"/>
      <point x="69" y="-1"/>
      <point x="99" y="0"/>
      <point x="135" y="0" type="curve" smooth="yes"/>
      <point x="170" y="0"/>
      <point x="199" y="-1"/>
      <point x="226" y="-3" type="curve"/>
      <point x="233" y="0"/>
      <point x="235" y="17"/>
      <point x="228" y="22" type="curve"/>
      <point x="210" y="25" type="line" smooth="yes"/>
      <point x="174" y="31"/>
      <point x="172" y="40"/>
      <point x="172" y="112" type="curve" smooth="yes"/>
      <point x="172" y="265" type="line" smooth="yes"/>
      <point x="172" y="294"/>
      <point x="174" y="308"/>
      <point x="187" y="325" type="curve" smooth="yes"/>
      <point x="201" y="344"/>
      <point x="234" y="360"/>
      <point x="272" y="360" type="curve" smooth="yes"/>
      <point x="340" y="360"/>
      <point x="366" y="318"/>
      <point x="366" y="261" type="curve" smooth="yes"/>
      <point x="366" y="112" type="line" smooth="yes"/>
      <point x="366" y="40"/>
      <point x="365" y="31"/>
      <point x="328" y="25" type="curve" smooth="yes"/>
      <point x="309" y="22" type="line"/>
      <point x="302" y="17"/>
      <point x="304" y="0"/>
      <point x="311" y="-3" type="curve"/>
      <point x="338" y="-1"/>
      <point x="368" y="0"/>
      <point x="395" y="0" type="curve" smooth="yes" name="hr02"/>
      <point x="598" y="0" type="line" smooth="yes"/>
      <point x="655" y="0"/>
      <point x="710" y="4"/>
      <point x="747" y="29" type="curve" smooth="yes"/>
      <point x="786" y="55"/>
      <point x="804" y="92"/>
      <point x="804" y="119" type="curve" smooth="yes"/>
      <point x="804" y="150"/>
      <point x="792" y="178"/>
      <point x="770" y="178" type="curve" smooth="yes"/>
      <point x="748" y="178"/>
      <point x="729" y="155"/>
      <point x="729" y="140" type="curve" smooth="yes"/>
      <point x="729" y="129"/>
      <point x="736" y="124"/>
      <point x="751" y="117" type="curve" smooth="yes"/>
      <point x="759" y="114"/>
      <point x="764" y="106"/>
      <point x="764" y="99" type="curve" smooth="yes"/>
      <point x="764" y="87"/>
      <point x="751" y="70"/>
      <point x="726" y="59" type="curve" smooth="yes"/>
      <point x="704" y="50"/>
      <point x="674" y="46"/>
      <point x="624" y="46" type="curve" smooth="yes"/>
      <point x="470" y="46" type="line" smooth="yes"/>
      <point x="445" y="46"/>
      <point x="440" y="51"/>
      <point x="440" y="112" type="curve" smooth="yes"/>
      <point x="440" y="284" type="line" smooth="yes"/>
      <point x="440" y="351"/>
      <point x="406" y="408"/>
      <point x="323" y="408" type="curve" smooth="yes"/>
      <point x="272" y="408"/>
      <point x="225" y="383"/>
      <point x="183" y="357" type="curve"/>
      <point x="176" y="357"/>
      <point x="172" y="362"/>
      <point x="172" y="368" type="curve" smooth="yes"/>
      <point x="172" y="377"/>
      <point x="172" y="392"/>
      <point x="174" y="415" type="curve"/>
      <point x="172" y="420"/>
      <point x="167" y="422"/>
      <point x="163" y="422" type="curve"/>
      <point x="143" y="407"/>
      <point x="86" y="381"/>
      <point x="63" y="373" type="curve"/>
      <point x="58" y="370"/>
      <point x="58" y="359"/>
      <point x="62" y="355" type="curve"/>
      <point x="71" y="349" type="line" smooth="yes"/>
      <point x="98" y="331"/>
      <point x="98" y="326"/>
      <point x="98" y="287" type="curve" smooth="yes"/>
    </contour>
  </outline>
</glyph>
<glyph name="bullet.003" format="1">
  <advance width="583"/>
  <unicode hex="E09F"/>
  <outline>
    <contour>
      <point x="298" y="693" type="curve" smooth="yes" name="hr01"/>
      <point x="235" y="692"/>
      <point x="195" y="652"/>
      <point x="195" y="594" type="curve" smooth="yes"/>
      <point x="195" y="544"/>
      <point x="227" y="523"/>
      <point x="228" y="501" type="curve" smooth="yes"/>
      <point x="228" y="496"/>
      <point x="222" y="486"/>
      <point x="214" y="486" type="curve" smooth="yes"/>
      <point x="206" y="486"/>
      <point x="177" y="503"/>
      <point x="140" y="502" type="curve" smooth="yes"/>
      <point x="95" y="501"/>
      <point x="40" y="476"/>
      <point x="40" y="404" type="curve" smooth="yes"/>
      <point x="40" y="359"/>
      <point x="68" y="302"/>
      <point x="141" y="303" type="curve" smooth="yes" name="hr02"/>
      <point x="184" y="304"/>
      <point x="234" y="346"/>
      <point x="242" y="356" type="curve" smooth="yes"/>
      <point x="250" y="366"/>
      <point x="262" y="372"/>
      <point x="267" y="372" type="curve" smooth="yes"/>
      <point x="272" y="372"/>
      <point x="277" y="370"/>
      <point x="277" y="365" type="curve" smooth="yes"/>
      <point x="277" y="359"/>
      <point x="270" y="345"/>
      <point x="265" y="337" type="curve" smooth="yes"/>
      <point x="249" y="310"/>
      <point x="239" y="280"/>
      <point x="239" y="253" type="curve" smooth="yes"/>
      <point x="239" y="217"/>
      <point x="263" y="176"/>
      <point x="343" y="125" type="curve" smooth="yes"/>
      <point x="385" y="98"/>
      <point x="439" y="68"/>
      <point x="440" y="16" type="curve" smooth="yes"/>
      <point x="440" y="-21"/>
      <point x="415" y="-48"/>
      <point x="383" y="-48" type="curve" smooth="yes"/>
      <point x="350" y="-48"/>
      <point x="323" y="-34"/>
      <point x="279" y="-2" type="curve" smooth="yes"/>
      <point x="228" y="36"/>
      <point x="196" y="67"/>
      <point x="147" y="66" type="curve" smooth="yes"/>
      <point x="121" y="65"/>
      <point x="79" y="46"/>
      <point x="67" y="-23" type="curve"/>
      <point x="67" y="-34"/>
      <point x="75" y="-37"/>
      <point x="83" y="-37" type="curve"/>
      <point x="97" y="-3"/>
      <point x="112" y="19"/>
      <point x="132" y="19" type="curve"/>
      <point x="151" y="21"/>
      <point x="167" y="10"/>
      <point x="198" y="-16" type="curve" smooth="yes"/>
      <point x="244" y="-53"/>
      <point x="302" y="-92"/>
      <point x="354" y="-92" type="curve" smooth="yes"/>
      <point x="439" y="-92"/>
      <point x="490" y="-21"/>
      <point x="489" y="38" type="curve" smooth="yes"/>
      <point x="488" y="87"/>
      <point x="460" y="127"/>
      <point x="397" y="164" type="curve" smooth="yes"/>
      <point x="340" y="198"/>
      <point x="289" y="237"/>
      <point x="287" y="288" type="curve" smooth="yes"/>
      <point x="286" y="327"/>
      <point x="315" y="373"/>
      <point x="323" y="373" type="curve" smooth="yes"/>
      <point x="333" y="373"/>
      <point x="342" y="366"/>
      <point x="349" y="356" type="curve" smooth="yes"/>
      <point x="361" y="337"/>
      <point x="394" y="301"/>
      <point x="446" y="303" type="curve" smooth="yes" name="hr03"/>
      <point x="524" y="305"/>
      <point x="543" y="370"/>
      <point x="543" y="406" type="curve" smooth="yes"/>
      <point x="543" y="478"/>
      <point x="486" y="504"/>
      <point x="446" y="503" type="curve" smooth="yes"/>
      <point x="401" y="502"/>
      <point x="370" y="477"/>
      <point x="362" y="477" type="curve" smooth="yes"/>
      <point x="354" y="477"/>
      <point x="347" y="485"/>
      <point x="347" y="490" type="curve" smooth="yes"/>
      <point x="347" y="499"/>
      <point x="354" y="510"/>
      <point x="364" y="520" type="curve"/>
      <point x="377" y="536"/>
      <point x="396" y="560"/>
      <point x="396" y="604" type="curve" smooth="yes" name="hr04"/>
      <point x="396" y="643"/>
      <point x="368" y="694"/>
    </contour>
    <contour>
      <point x="284" y="493" type="curve" smooth="yes" name="hr05"/>
      <point x="311" y="493"/>
      <point x="332" y="470"/>
      <point x="332" y="446" type="curve" smooth="yes"/>
      <point x="332" y="417"/>
      <point x="311" y="398"/>
      <point x="284" y="398" type="curve" smooth="yes"/>
      <point x="260" y="398"/>
      <point x="238" y="418"/>
      <point x="238" y="444" type="curve" smooth="yes"/>
      <point x="238" y="468"/>
      <point x="257" y="493"/>
    </contour>
  </outline>
</glyph>
<glyph name="period.titling" format="1">
  <advance width="250"/>
  <unicode hex="E0A3"/>
  <outline>
    <contour>
      <point x="125" y="-14" type="curve" smooth="yes" name="hr00"/>
      <point x="156" y="-14"/>
      <point x="176" y="8"/>
      <point x="176" y="36" type="curve" smooth="yes"/>
      <point x="176" y="65"/>
      <point x="156" y="90"/>
      <point x="125" y="90" type="curve" smooth="yes"/>
      <point x="96" y="90"/>
      <point x="74" y="67"/>
      <point x="74" y="36" type="curve" smooth="yes"/>
      <point x="74" y="6"/>
      <point x="99" y="-14"/>
    </contour>
  </outline>
</glyph>
<glyph name="periodcentered.titling" format="1">
  <advance width="250"/>
  <unicode hex="E0A4"/>
  <outline>
    <contour>
      <point x="125" y="263" type="curve" smooth="yes" name="hr00"/>
      <point x="156" y="263"/>
      <point x="176" y="285"/>
      <point x="176" y="313" type="curve" smooth="yes"/>
      <point x="176" y="342"/>
      <point x="156" y="367"/>
      <point x="125" y="367" type="curve" smooth="yes"/>
      <point x="96" y="367"/>
      <point x="74" y="344"/>
      <point x="74" y="313" type="curve" smooth="yes"/>
      <point x="74" y="283"/>
      <point x="99" y="263"/>
    </contour>
  </outline>
</glyph>
<glyph name="questiondown.titling" format="1">
  <advance width="321"/>
  <unicode hex="E0A6"/>
  <outline>
    <contour>
      <point x="222" y="-12" type="curve" smooth="yes" name="hr01"/>
      <point x="252" y="-12"/>
      <point x="265" y="8"/>
      <point x="265" y="26" type="curve" smooth="yes"/>
      <point x="265" y="41"/>
      <point x="247" y="62"/>
      <point x="239" y="62" type="curve" smooth="yes"/>
      <point x="148" y="62"/>
      <point x="122" y="84"/>
      <point x="101" y="111" type="curve" smooth="yes"/>
      <point x="87" y="129"/>
      <point x="85" y="146"/>
      <point x="85" y="162" type="curve" smooth="yes"/>
      <point x="85" y="188"/>
      <point x="105" y="207"/>
      <point x="138" y="227" type="curve" smooth="yes"/>
      <point x="200" y="264" type="line" smooth="yes"/>
      <point x="220" y="276"/>
      <point x="253" y="294"/>
      <point x="253" y="329" type="curve" smooth="yes"/>
      <point x="253" y="370"/>
      <point x="225" y="408"/>
      <point x="211" y="431" type="curve"/>
      <point x="206" y="434"/>
      <point x="200" y="432"/>
      <point x="198" y="426" type="curve"/>
      <point x="205" y="406"/>
      <point x="208" y="383"/>
      <point x="208" y="368" type="curve" smooth="yes"/>
      <point x="208" y="347"/>
      <point x="196" y="334"/>
      <point x="172" y="320" type="curve" smooth="yes"/>
      <point x="112" y="285" type="line" smooth="yes"/>
      <point x="78" y="265"/>
      <point x="56" y="232"/>
      <point x="56" y="189" type="curve" smooth="yes"/>
      <point x="56" y="128"/>
      <point x="89" y="70"/>
      <point x="121" y="39" type="curve" smooth="yes"/>
      <point x="149" y="12"/>
      <point x="187" y="-12"/>
    </contour>
    <contour>
      <point x="202" y="648" type="curve" smooth="yes" name="hr02"/>
      <point x="176" y="648"/>
      <point x="151" y="628"/>
      <point x="151" y="598" type="curve" smooth="yes"/>
      <point x="151" y="567"/>
      <point x="173" y="544"/>
      <point x="202" y="544" type="curve" smooth="yes"/>
      <point x="233" y="544"/>
      <point x="253" y="569"/>
      <point x="253" y="598" type="curve" smooth="yes"/>
      <point x="253" y="626"/>
      <point x="233" y="648"/>
    </contour>
  </outline>
</glyph>
